<?xml version="1.0" encoding="UTF-8" standalone="no"?><!DOCTYPE svg PUBLIC "-//W3C//DTD SVG 1.1//EN" "http://www.w3.org/Graphics/SVG/1.1/DTD/svg11.dtd"><svg width="100%" height="100%" viewBox="0 0 334 334" version="1.1" xmlns="http://www.w3.org/2000/svg" xmlns:xlink="http://www.w3.org/1999/xlink" xml:space="preserve" xmlns:serif="http://www.serif.com/" style="fill-rule:evenodd;clip-rule:evenodd;stroke-linejoin:round;stroke-miterlimit:2;"><g><g><g><path d="M176.654,133.962l-0,-11.325c-0,-6.6 -3.542,-12.692 -9.278,-15.957c-5.736,-3.266 -12.783,-3.201 -18.458,0.168c-21.98,13.049 -52.496,31.165 -74.174,44.035c-5.572,3.308 -8.988,9.308 -8.988,15.789c-0,6.48 3.416,12.481 8.988,15.789c21.678,12.87 52.194,30.986 74.174,44.035c5.675,3.369 12.722,3.433 18.458,0.168c5.736,-3.265 9.278,-9.357 9.278,-15.957l-0,-11.325l45.672,27.114c5.676,3.369 12.723,3.433 18.458,0.168c5.736,-3.265 9.278,-9.357 9.278,-15.957c0,-25.92 0,-62.151 0,-88.07c0,-6.6 -3.542,-12.692 -9.278,-15.957c-5.735,-3.266 -12.782,-3.201 -18.458,0.168l-45.672,27.114Z"/></g></g><rect x="-0" y="0" width="333.333" height="333.333" style="fill:none;"/></g></svg>