<?xml version="1.0" encoding="UTF-8" standalone="no"?><!DOCTYPE svg PUBLIC "-//W3C//DTD SVG 1.1//EN" "http://www.w3.org/Graphics/SVG/1.1/DTD/svg11.dtd"><svg width="100%" height="100%" viewBox="0 0 334 334" version="1.1" xmlns="http://www.w3.org/2000/svg" xmlns:xlink="http://www.w3.org/1999/xlink" xml:space="preserve" xmlns:serif="http://www.serif.com/" style="fill-rule:evenodd;clip-rule:evenodd;stroke-linejoin:round;stroke-miterlimit:2;"><g><path d="M157.948,135.231l-0,-11.326c-0,-6.6 3.542,-12.692 9.278,-15.957c5.735,-3.265 12.782,-3.201 18.458,0.168c21.98,13.049 52.495,31.165 74.173,44.035c5.573,3.308 8.989,9.309 8.989,15.789c-0,6.481 -3.416,12.481 -8.989,15.789c-21.678,12.87 -52.193,30.986 -74.173,44.035c-5.676,3.369 -12.723,3.434 -18.458,0.168c-5.736,-3.265 -9.278,-9.357 -9.278,-15.957l-0,-11.325l-45.673,27.114c-5.675,3.369 -12.722,3.434 -18.458,0.168c-5.736,-3.265 -9.278,-9.357 -9.278,-15.957c0,-25.919 0,-62.15 0,-88.07c0,-6.6 3.542,-12.692 9.278,-15.957c5.736,-3.265 12.783,-3.201 18.458,0.168l45.673,27.115Z"/><rect x="-0" y="0" width="333.333" height="333.333" style="fill:none;"/></g></svg>