<?xml version="1.0" encoding="UTF-8" standalone="no"?><!DOCTYPE svg PUBLIC "-//W3C//DTD SVG 1.1//EN" "http://www.w3.org/Graphics/SVG/1.1/DTD/svg11.dtd"><svg width="100%" height="100%" viewBox="0 0 334 334" version="1.1" xmlns="http://www.w3.org/2000/svg" xmlns:xlink="http://www.w3.org/1999/xlink" xml:space="preserve" xmlns:serif="http://www.serif.com/" style="fill-rule:evenodd;clip-rule:evenodd;stroke-linejoin:round;stroke-miterlimit:2;"><g><g><path d="M228.047,186.521c4.961,0 9.72,-1.971 13.228,-5.479c3.509,-3.509 5.48,-8.267 5.48,-13.229c0,-0.004 0,-0.008 0,-0.011c0,-4.962 -1.971,-9.721 -5.48,-13.229c-3.508,-3.509 -8.267,-5.48 -13.228,-5.48c-30.825,0 -91.936,0 -122.76,0c-4.962,0 -9.721,1.971 -13.229,5.48c-3.509,3.508 -5.48,8.267 -5.48,13.229c0,0.003 0,0.007 0,0.011c0,4.962 1.971,9.72 5.48,13.229c3.508,3.508 8.267,5.479 13.229,5.479c30.824,0 91.935,0 122.76,0Z"/><path d="M228.047,129.724c4.961,-0 9.72,-1.971 13.228,-5.48c3.509,-3.508 5.48,-8.267 5.48,-13.228c0,-0.004 0,-0.008 0,-0.012c0,-4.962 -1.971,-9.72 -5.48,-13.229c-3.508,-3.508 -8.267,-5.479 -13.228,-5.479c-30.825,-0 -91.936,-0 -122.76,-0c-4.962,-0 -9.721,1.971 -13.229,5.479c-3.509,3.509 -5.48,8.267 -5.48,13.229c0,0.004 0,0.008 0,0.012c0,4.961 1.971,9.72 5.48,13.228c3.508,3.509 8.267,5.48 13.229,5.48c30.824,-0 91.935,-0 122.76,-0Z"/><path d="M228.047,243.574c4.961,-0 9.72,-1.971 13.228,-5.48c3.509,-3.508 5.48,-8.267 5.48,-13.229c0,-0.003 0,-0.007 0,-0.011c0,-4.962 -1.971,-9.72 -5.48,-13.229c-3.508,-3.508 -8.267,-5.479 -13.228,-5.479c-30.825,-0 -91.936,-0 -122.76,-0c-4.962,-0 -9.721,1.971 -13.229,5.479c-3.509,3.509 -5.48,8.267 -5.48,13.229c0,0.004 0,0.008 0,0.011c0,4.962 1.971,9.721 5.48,13.229c3.508,3.509 8.267,5.48 13.229,5.48c30.824,-0 91.935,-0 122.76,-0Z"/></g><rect x="-0" y="0" width="333.333" height="333.333" style="fill:none;"/></g></svg>