<?xml version="1.0" encoding="UTF-8" standalone="no"?><!DOCTYPE svg PUBLIC "-//W3C//DTD SVG 1.1//EN" "http://www.w3.org/Graphics/SVG/1.1/DTD/svg11.dtd"><svg width="100%" height="100%" viewBox="0 0 334 334" version="1.1" xmlns="http://www.w3.org/2000/svg" xmlns:xlink="http://www.w3.org/1999/xlink" xml:space="preserve" xmlns:serif="http://www.serif.com/" style="fill-rule:evenodd;clip-rule:evenodd;stroke-linejoin:round;stroke-miterlimit:2;"><g><path d="M205.496,147.643l-0,-25.591c-0,-4.379 1.739,-8.578 4.835,-11.674c3.096,-3.095 7.295,-4.835 11.673,-4.835c0.005,0 0.01,0 0.016,0c4.378,0 8.577,1.74 11.673,4.835c3.096,3.096 4.835,7.295 4.835,11.674c-0,23.893 -0,67.86 -0,91.754c-0,4.378 -1.739,8.577 -4.835,11.673c-3.096,3.096 -7.295,4.835 -11.673,4.835c-0.006,0 -0.011,0 -0.016,0c-4.378,0 -8.577,-1.739 -11.673,-4.835c-3.096,-3.096 -4.835,-7.295 -4.835,-11.673l-0,-25.575l-79.879,40.152c-5.689,2.86 -12.444,2.554 -17.855,-0.807c-5.41,-3.362 -8.703,-9.3 -8.703,-15.694c-0,-25.598 -0,-62.292 -0,-87.89c-0,-6.394 3.293,-12.332 8.703,-15.693c5.411,-3.362 12.166,-3.668 17.855,-0.808l79.879,40.152Z"/><rect x="-0" y="0" width="333.333" height="333.333" style="fill:none;"/></g></svg>