<?xml version="1.0" encoding="UTF-8" standalone="no"?><!DOCTYPE svg PUBLIC "-//W3C//DTD SVG 1.1//EN" "http://www.w3.org/Graphics/SVG/1.1/DTD/svg11.dtd"><svg width="100%" height="100%" viewBox="0 0 334 334" version="1.1" xmlns="http://www.w3.org/2000/svg" xmlns:xlink="http://www.w3.org/1999/xlink" xml:space="preserve" xmlns:serif="http://www.serif.com/" style="fill-rule:evenodd;clip-rule:evenodd;stroke-linejoin:round;stroke-miterlimit:2;"><g><g><path d="M151.875,111.861c-0,-11.506 -9.328,-20.833 -20.834,-20.833c-5.209,-0 -10.797,-0 -16.007,-0c-11.506,-0 -20.833,9.327 -20.833,20.833c-0,28.87 -0,80.741 -0,109.611c-0,11.506 9.327,20.834 20.833,20.834c5.21,-0 10.798,-0 16.007,-0c11.506,-0 20.834,-9.328 20.834,-20.834c-0,-28.87 -0,-80.741 -0,-109.611Z"/><path d="M239.132,111.861c0,-11.506 -9.327,-20.833 -20.833,-20.833c-5.209,-0 -10.797,-0 -16.007,-0c-11.506,-0 -20.833,9.327 -20.833,20.833c-0,28.87 -0,80.741 -0,109.611c-0,11.506 9.327,20.834 20.833,20.834c5.21,-0 10.798,-0 16.007,-0c11.506,-0 20.833,-9.328 20.833,-20.834c0,-28.87 0,-80.741 0,-109.611Z"/></g><rect x="-0" y="0" width="333.333" height="333.333" style="fill:none;"/></g></svg>