<?xml version="1.0" encoding="UTF-8" standalone="no"?><!DOCTYPE svg PUBLIC "-//W3C//DTD SVG 1.1//EN" "http://www.w3.org/Graphics/SVG/1.1/DTD/svg11.dtd"><svg width="100%" height="100%" viewBox="0 0 334 334" version="1.1" xmlns="http://www.w3.org/2000/svg" xmlns:xlink="http://www.w3.org/1999/xlink" xml:space="preserve" xmlns:serif="http://www.serif.com/" style="fill-rule:evenodd;clip-rule:evenodd;stroke-linejoin:round;stroke-miterlimit:2;"><g><g><path d="M239.886,146.662c7.537,3.789 12.298,11.533 12.298,20.005c-0,8.471 -4.761,16.215 -12.298,20.004c-31.95,16.06 -76.237,38.322 -105.982,53.273c-6.896,3.467 -15.086,3.097 -21.645,-0.979c-6.559,-4.075 -10.551,-11.273 -10.551,-19.025c0,-31.032 0,-75.515 0,-106.547c0,-7.751 3.992,-14.95 10.551,-19.025c6.559,-4.075 14.749,-4.446 21.645,-0.979c29.745,14.952 74.032,37.213 105.982,53.273Z"/></g><rect x="0" y="0" width="333.333" height="333.333" style="fill:none;"/></g></svg>