<?xml version="1.0" encoding="UTF-8" standalone="no"?><!DOCTYPE svg PUBLIC "-//W3C//DTD SVG 1.1//EN" "http://www.w3.org/Graphics/SVG/1.1/DTD/svg11.dtd"><svg width="100%" height="100%" viewBox="0 0 334 334" version="1.1" xmlns="http://www.w3.org/2000/svg" xmlns:xlink="http://www.w3.org/1999/xlink" xml:space="preserve" xmlns:serif="http://www.serif.com/" style="fill-rule:evenodd;clip-rule:evenodd;stroke-linejoin:round;stroke-miterlimit:2;"><g><path d="M127.838,186.963l-0,25.575c-0,4.378 -1.74,8.577 -4.836,11.673c-3.095,3.096 -7.294,4.835 -11.673,4.835c-0.005,0 -0.01,0 -0.015,0c-4.379,0 -8.577,-1.739 -11.673,-4.835c-3.096,-3.096 -4.836,-7.295 -4.836,-11.673c0,-23.894 0,-67.861 0,-91.755c0,-4.378 1.74,-8.577 4.836,-11.673c3.096,-3.096 7.294,-4.835 11.673,-4.835c0.005,0 0.01,0 0.015,0c4.379,0 8.578,1.739 11.673,4.835c3.096,3.096 4.836,7.295 4.836,11.673l-0,25.592l79.878,-40.152c5.689,-2.86 12.445,-2.554 17.855,0.807c5.41,3.362 8.703,9.3 8.703,15.694c0,25.598 0,62.292 0,87.89c0,6.394 -3.293,12.332 -8.703,15.694c-5.41,3.361 -12.166,3.667 -17.855,0.807l-79.878,-40.152Z"/><rect x="-0" y="0" width="333.333" height="333.333" style="fill:none;"/></g></svg>