<?xml version="1.0" encoding="UTF-8" standalone="no"?><!DOCTYPE svg PUBLIC "-//W3C//DTD SVG 1.1//EN" "http://www.w3.org/Graphics/SVG/1.1/DTD/svg11.dtd"><svg width="100%" height="100%" viewBox="0 0 30 30" version="1.1" xmlns="http://www.w3.org/2000/svg" xmlns:xlink="http://www.w3.org/1999/xlink" xml:space="preserve" xmlns:serif="http://www.serif.com/" style="fill-rule:evenodd;clip-rule:evenodd;stroke-linejoin:round;stroke-miterlimit:2;"><g><g><g><g><path d="M19.042,-29.818c0.435,-0.136 0.922,-0.156 1.4,-0.156c0.825,0 1.643,0.075 2.459,0.156l2.601,0c0.047,0 0.561,-0.124 0.592,-0.124c0.062,-0.032 1.028,-0.032 1.355,-0.032c0.233,0 1.151,0 1.337,0.032c0.353,0.27 0.496,0.581 0.556,0.917c0.129,0.179 0.207,0.392 0.207,0.638c0,0.399 -0.022,0.8 -0.049,1.202c0.027,0.176 0.049,0.324 0.049,0.355l0,1.697c0,0.031 0.155,0.389 0.155,0.404c0.031,0.249 0.14,1.806 0.14,2.289l0,1.059c0.016,0.031 0.156,0.373 0.156,0.405l0,0.295c-0.031,0.218 -0.14,1.028 -0.156,1.23c-0.011,0.053 -0.029,0.097 -0.05,0.132c0.018,0.229 0.036,0.411 0.05,0.476l0,0.156c-0.046,0.592 -0.14,3.425 -0.155,4.033c-0.062,0.062 -0.14,0.358 -0.14,0.467l0,0.124c0.031,0.063 0.218,0.39 0.295,0.467l0,2.634c0.141,0.445 0.156,0.945 0.156,1.431c0,0.848 -0.076,1.69 -0.156,2.527l0,2.533c0,0.062 0.14,0.576 0.14,0.591c0.016,0.063 0.016,1.028 0.016,1.355c0,0.233 0,1.151 -0.016,1.338c-0.285,0.363 -0.606,0.507 -0.951,0.567c-0.175,0.122 -0.382,0.195 -0.62,0.195c-0.39,0 -0.781,-0.023 -1.173,-0.052c-0.189,0.028 -0.351,0.052 -0.383,0.052l-1.697,0c-0.031,0 -0.374,0.156 -0.405,0.156c-0.233,0.031 -1.806,0.14 -2.289,0.14l-1.043,0c-0.031,0.031 -0.389,0.155 -0.405,0.155l-0.295,0c-0.218,-0.015 -1.028,-0.124 -1.246,-0.155l0,0c-0.055,-0.013 -0.101,-0.032 -0.137,-0.057c-0.219,0.019 -0.392,0.039 -0.455,0.057l-0.171,0c-0.592,-0.062 -3.41,-0.14 -4.033,-0.171c-0.062,-0.047 -0.358,-0.125 -0.467,-0.125l-0.125,0c-0.062,0.016 -0.374,0.202 -0.467,0.296l-2.664,0c-0.435,0.136 -0.922,0.155 -1.4,0.155c-0.825,0 -1.643,-0.074 -2.459,-0.155l-2.601,0c-0.047,0 -0.561,0.124 -0.592,0.124c-0.062,0.031 -1.028,0.031 -1.355,0.031c-0.233,0 -1.151,0 -1.337,-0.031c-0.353,-0.27 -0.496,-0.581 -0.556,-0.917c-0.129,-0.179 -0.207,-0.392 -0.207,-0.638c0,-0.399 0.022,-0.8 0.049,-1.202c-0.027,-0.176 -0.049,-0.324 -0.049,-0.355l0,-1.697c0,-0.031 -0.155,-0.389 -0.155,-0.404c-0.031,-0.25 -0.14,-1.806 -0.14,-2.289l0,-1.059c-0.016,-0.031 -0.156,-0.373 -0.156,-0.405l0,-0.295c0.031,-0.218 0.14,-1.028 0.156,-1.23c0.011,-0.053 0.029,-0.097 0.05,-0.132c-0.018,-0.229 -0.036,-0.411 -0.05,-0.476l0,-0.156c0.046,-0.592 0.14,-3.425 0.155,-4.033c0.062,-0.062 0.14,-0.358 0.14,-0.467l0,-0.124c-0.031,-0.063 -0.218,-0.39 -0.295,-0.467l0,-2.634c-0.141,-0.445 -0.156,-0.945 -0.156,-1.431c0,-0.848 0.076,-1.69 0.156,-2.527l0,-2.533c0,-0.062 -0.14,-0.576 -0.14,-0.591c-0.016,-0.063 -0.016,-1.028 -0.016,-1.355c0,-0.233 0,-1.151 0.016,-1.338c0.285,-0.363 0.606,-0.507 0.951,-0.567c0.175,-0.122 0.382,-0.195 0.62,-0.195c0.39,0 0.781,0.023 1.173,0.052c0.189,-0.028 0.351,-0.052 0.383,-0.052l1.697,0c0.031,0 0.374,-0.156 0.405,-0.156c0.233,-0.031 1.806,-0.14 2.289,-0.14l1.043,0c0.031,-0.031 0.389,-0.156 0.405,-0.156l0.295,0c0.218,0.016 1.028,0.125 1.246,0.156l0,0c0.055,0.013 0.101,0.032 0.137,0.057c0.219,-0.019 0.392,-0.039 0.455,-0.057l0.171,0c0.592,0.062 3.41,0.14 4.033,0.171c0.062,0.047 0.358,0.125 0.467,0.125l0.125,0c0.062,-0.016 0.374,-0.202 0.467,-0.296l2.664,0Z" style="fill-rule:nonzero;"/></g></g></g></g><g><g><g><g><path d="M19.042,0.022c0.435,-0.137 0.922,-0.156 1.4,-0.156c0.825,0 1.643,0.074 2.459,0.156l2.601,0c0.047,0 0.561,-0.125 0.592,-0.125c0.062,-0.031 1.028,-0.031 1.355,-0.031c0.233,0 1.151,0 1.337,0.031c0.353,0.271 0.496,0.581 0.556,0.917c0.129,0.18 0.207,0.392 0.207,0.639c0,0.398 -0.022,0.799 -0.049,1.201c0.027,0.176 0.049,0.324 0.049,0.355l0,1.697c0,0.031 0.155,0.389 0.155,0.405c0.031,0.249 0.14,1.806 0.14,2.288l0,1.059c0.016,0.031 0.156,0.374 0.156,0.405l0,0.296c-0.031,0.218 -0.14,1.027 -0.156,1.23c-0.011,0.053 -0.029,0.096 -0.05,0.132c0.018,0.229 0.036,0.411 0.05,0.476l0,0.155c-0.046,0.592 -0.14,3.426 -0.155,4.033c-0.062,0.062 -0.14,0.358 -0.14,0.467l0,0.125c0.031,0.062 0.218,0.389 0.295,0.467l0,2.634c0.141,0.444 0.156,0.945 0.156,1.43c0,0.849 -0.076,1.69 -0.156,2.528l0,2.532c0,0.062 0.14,0.576 0.14,0.592c0.016,0.062 0.016,1.027 0.016,1.354c0,0.234 0,1.152 -0.016,1.338c-0.285,0.363 -0.606,0.508 -0.951,0.567c-0.175,0.122 -0.382,0.195 -0.62,0.195c-0.39,0 -0.781,-0.022 -1.173,-0.051c-0.189,0.028 -0.351,0.052 -0.383,0.052l-1.697,0c-0.031,0 -0.374,0.155 -0.405,0.155c-0.233,0.031 -1.806,0.14 -2.289,0.14l-1.043,0c-0.031,0.031 -0.389,0.156 -0.405,0.156l-0.295,0c-0.218,-0.016 -1.028,-0.125 -1.246,-0.156l0,0c-0.055,-0.013 -0.101,-0.032 -0.137,-0.056c-0.219,0.019 -0.392,0.038 -0.455,0.056l-0.171,0c-0.592,-0.062 -3.41,-0.14 -4.033,-0.171c-0.062,-0.047 -0.358,-0.125 -0.467,-0.125l-0.125,0c-0.062,0.016 -0.374,0.203 -0.467,0.296l-2.664,0c-0.435,0.137 -0.922,0.156 -1.4,0.156c-0.825,0 -1.643,-0.075 -2.459,-0.156l-2.601,0c-0.047,0 -0.561,0.125 -0.592,0.125c-0.062,0.031 -1.028,0.031 -1.355,0.031c-0.233,0 -1.151,0 -1.337,-0.031c-0.353,-0.271 -0.496,-0.581 -0.556,-0.917c-0.129,-0.18 -0.207,-0.392 -0.207,-0.639c0,-0.398 0.022,-0.799 0.049,-1.202c-0.027,-0.176 -0.049,-0.323 -0.049,-0.354l0,-1.697c0,-0.031 -0.155,-0.389 -0.155,-0.405c-0.031,-0.249 -0.14,-1.806 -0.14,-2.289l0,-1.058c-0.016,-0.032 -0.156,-0.374 -0.156,-0.405l0,-0.296c0.031,-0.218 0.14,-1.028 0.156,-1.23c0.011,-0.053 0.029,-0.096 0.05,-0.132c-0.018,-0.229 -0.036,-0.411 -0.05,-0.476l0,-0.156c0.046,-0.591 0.14,-3.425 0.155,-4.032c0.062,-0.063 0.14,-0.358 0.14,-0.467l0,-0.125c-0.031,-0.062 -0.218,-0.389 -0.295,-0.467l0,-2.634c-0.141,-0.444 -0.156,-0.945 -0.156,-1.431c0,-0.848 0.076,-1.689 0.156,-2.527l0,-2.532c0,-0.063 -0.14,-0.576 -0.14,-0.592c-0.016,-0.062 -0.016,-1.028 -0.016,-1.355c0,-0.233 0,-1.151 0.016,-1.338c0.285,-0.363 0.606,-0.507 0.951,-0.566c0.175,-0.123 0.382,-0.196 0.62,-0.196c0.39,0 0.781,0.023 1.173,0.052c0.189,-0.028 0.351,-0.052 0.383,-0.052l1.697,0c0.031,0 0.374,-0.155 0.405,-0.155c0.233,-0.032 1.806,-0.141 2.289,-0.141l1.043,0c0.031,-0.031 0.389,-0.155 0.405,-0.155l0.295,0c0.218,0.015 1.028,0.124 1.246,0.155l0,0.001c0.055,0.013 0.101,0.032 0.137,0.056c0.219,-0.019 0.392,-0.038 0.455,-0.056l0.171,0c0.592,0.062 3.41,0.14 4.033,0.171c0.062,0.047 0.358,0.124 0.467,0.124l0.125,0c0.062,-0.015 0.374,-0.202 0.467,-0.295l2.664,0Zm7.419,2.777c-0.309,-0.068 -0.748,-0.086 -1.099,-0.086l-0.342,0c-0.966,0 -2.258,0.062 -3.099,0.171c-0.109,0 -0.701,0.265 -0.747,0.296l-0.249,0c-0.25,0 -0.374,0 -0.514,-0.296l-1.043,0c-0.094,0 -0.545,-0.171 -0.592,-0.171c-0.109,0 -0.685,0.031 -1.09,0.031c-0.218,0 -0.374,0 -0.42,-0.031c-0.094,0 -0.545,-0.233 -0.592,-0.296l-0.171,0c-0.032,0 -0.53,0.172 -0.592,0.172l-0.888,0c-0.077,0 -0.56,0.124 -0.622,0.124l-0.296,0c-0.047,0 -0.53,-0.124 -0.592,-0.124l-0.125,0c-0.172,0 -1.215,0.124 -1.386,0.124c-0.078,0 -1.23,0.062 -1.635,0.062c-0.249,0 -1.401,-0.062 -1.65,-0.062c-0.078,-0.015 -0.514,-0.124 -0.592,-0.124c-0.109,0 -0.42,-0.032 -0.747,-0.032c-0.327,0 -0.654,0.032 -0.763,0.032c-0.007,-0.01 -0.016,-0.021 -0.026,-0.032c-0.311,-0.009 -0.595,-0.09 -0.876,-0.137c-0.509,0.104 -1.033,0 -1.511,0.293c-0.062,0.094 -0.514,0.436 -0.576,0.467c-0.078,0.033 -0.463,0.153 -0.701,0.231c-0.06,0.308 -0.078,0.74 -0.078,1.077l0,0.358c0,0.966 0.047,2.258 0.156,3.099c0,0.109 0.28,0.701 0.296,0.747l0,0.249c0,0.234 0,0.374 -0.296,0.514l0,1.043c0,0.078 -0.156,0.545 -0.156,0.592c0,0.109 0.031,0.67 0.031,1.074c0,0.218 0,0.39 -0.031,0.436c0,0.078 -0.249,0.545 -0.295,0.592l0,0.156c0,0.031 0.155,0.545 0.155,0.607l0,0.888c0,0.077 0.14,0.56 0.14,0.607l0,0.297c0,0.062 -0.14,0.544 -0.14,0.591l0,0.14c0,0.172 0.14,1.215 0.14,1.37c0,0.094 0.047,1.246 0.047,1.651c0,0.233 -0.047,1.401 -0.047,1.635c-0.031,0.093 -0.14,0.513 -0.14,0.591c0,0.109 -0.015,0.436 -0.015,0.763c0,0.327 0.015,0.638 0.015,0.747c-0.005,0.004 -0.01,0.009 -0.016,0.014c-0.004,0.323 -0.086,0.622 -0.129,0.927c0.091,0.498 0,1.022 0.285,1.488c0.078,0.062 0.436,0.514 0.452,0.561c0.044,0.077 0.168,0.471 0.24,0.708c0.309,0.068 0.748,0.086 1.099,0.086l0.342,0c0.966,0 2.258,-0.063 3.099,-0.172c0.109,0 0.701,-0.264 0.747,-0.295l0.249,0c0.25,0 0.374,0 0.514,0.295l1.043,0c0.094,0 0.545,0.172 0.592,0.172c0.109,0 0.685,-0.031 1.09,-0.031c0.218,0 0.374,0 0.42,0.031c0.094,0 0.545,0.233 0.592,0.295l0.171,0c0.032,0 0.53,-0.171 0.592,-0.171l0.888,0c0.077,0 0.56,-0.124 0.622,-0.124l0.296,0c0.047,0 0.53,0.124 0.592,0.124l0.125,0c0.172,0 1.215,-0.124 1.386,-0.124c0.078,0 1.23,-0.063 1.635,-0.063c0.249,0 1.401,0.063 1.65,0.063c0.078,0.015 0.514,0.124 0.592,0.124c0.109,0 0.42,0.031 0.747,0.031c0.327,0 0.654,-0.031 0.763,-0.031c0.007,0.01 0.016,0.021 0.026,0.032c0.311,0.009 0.595,0.089 0.876,0.136c0.509,-0.104 1.033,0.001 1.511,-0.292c0.062,-0.094 0.514,-0.436 0.576,-0.467c0.078,-0.034 0.463,-0.154 0.701,-0.231c0.06,-0.308 0.078,-0.74 0.078,-1.077l0,-0.359c0,-0.965 -0.047,-2.257 -0.156,-3.098c0,-0.109 -0.28,-0.701 -0.296,-0.747l0,-0.25c0,-0.233 0,-0.373 0.296,-0.513l0,-1.044c0,-0.077 0.156,-0.545 0.156,-0.591c0,-0.109 -0.031,-0.67 -0.031,-1.075c0,-0.218 0,-0.389 0.031,-0.436c0,-0.077 0.249,-0.545 0.295,-0.591l0,-0.156c0,-0.031 -0.155,-0.545 -0.155,-0.607l0,-0.888c0,-0.078 -0.14,-0.56 -0.14,-0.607l0,-0.297c0,-0.062 0.14,-0.545 0.14,-0.591l0,-0.14c0,-0.172 -0.14,-1.215 -0.14,-1.371c0,-0.093 -0.047,-1.245 -0.047,-1.65c0,-0.233 0.047,-1.401 0.047,-1.635c0.031,-0.093 0.14,-0.513 0.14,-0.591c0,-0.109 0.015,-0.436 0.015,-0.763c0,-0.327 -0.015,-0.639 -0.015,-0.747c0.005,-0.005 0.01,-0.009 0.016,-0.015c0.004,-0.322 0.086,-0.621 0.129,-0.926c-0.091,-0.498 0,-1.022 -0.285,-1.488c-0.078,-0.062 -0.436,-0.514 -0.452,-0.561c-0.044,-0.077 -0.168,-0.471 -0.24,-0.708Z" style="fill-rule:nonzero;"/></g></g></g></g><g><g><g><g><path d="M49.042,-29.818c0.435,-0.136 0.922,-0.156 1.4,-0.156c0.825,0 1.643,0.075 2.459,0.156l2.601,0c0.047,0 0.561,-0.124 0.592,-0.124c0.062,-0.032 1.028,-0.032 1.355,-0.032c0.233,0 1.151,0 1.337,0.032c0.353,0.27 0.496,0.581 0.556,0.917c0.129,0.179 0.207,0.392 0.207,0.638c0,0.399 -0.022,0.8 -0.049,1.202c0.027,0.176 0.049,0.324 0.049,0.355l0,1.697c0,0.031 0.155,0.389 0.155,0.404c0.031,0.249 0.14,1.806 0.14,2.289l0,1.059c0.016,0.031 0.156,0.373 0.156,0.405l0,0.295c-0.031,0.218 -0.14,1.028 -0.156,1.23c-0.011,0.053 -0.029,0.097 -0.05,0.132c0.018,0.229 0.036,0.411 0.05,0.476l0,0.156c-0.046,0.592 -0.14,3.425 -0.155,4.033c-0.062,0.062 -0.14,0.358 -0.14,0.467l0,0.124c0.031,0.063 0.218,0.39 0.295,0.467l0,2.634c0.141,0.445 0.156,0.945 0.156,1.431c0,0.848 -0.076,1.69 -0.156,2.527l0,2.533c0,0.062 0.14,0.576 0.14,0.591c0.016,0.063 0.016,1.028 0.016,1.355c0,0.233 0,1.151 -0.016,1.338c-0.285,0.363 -0.606,0.507 -0.951,0.567c-0.175,0.122 -0.382,0.195 -0.62,0.195c-0.39,0 -0.781,-0.023 -1.173,-0.052c-0.189,0.028 -0.351,0.052 -0.383,0.052l-1.697,0c-0.031,0 -0.374,0.156 -0.405,0.156c-0.233,0.031 -1.806,0.14 -2.289,0.14l-1.043,0c-0.031,0.031 -0.389,0.155 -0.405,0.155l-0.295,0c-0.218,-0.015 -1.028,-0.124 -1.246,-0.155l0,0c-0.055,-0.013 -0.101,-0.032 -0.137,-0.057c-0.219,0.019 -0.392,0.039 -0.455,0.057l-0.171,0c-0.592,-0.062 -3.41,-0.14 -4.033,-0.171c-0.062,-0.047 -0.358,-0.125 -0.467,-0.125l-0.125,0c-0.062,0.016 -0.374,0.202 -0.467,0.296l-2.664,0c-0.435,0.136 -0.922,0.155 -1.4,0.155c-0.825,0 -1.643,-0.074 -2.459,-0.155l-2.601,0c-0.047,0 -0.561,0.124 -0.592,0.124c-0.062,0.031 -1.028,0.031 -1.355,0.031c-0.233,0 -1.151,0 -1.337,-0.031c-0.353,-0.27 -0.496,-0.581 -0.556,-0.917c-0.129,-0.179 -0.207,-0.392 -0.207,-0.638c0,-0.399 0.022,-0.8 0.049,-1.202c-0.027,-0.176 -0.049,-0.324 -0.049,-0.355l0,-1.697c0,-0.031 -0.155,-0.389 -0.155,-0.404c-0.031,-0.25 -0.14,-1.806 -0.14,-2.289l0,-1.059c-0.016,-0.031 -0.156,-0.373 -0.156,-0.405l0,-0.295c0.031,-0.218 0.14,-1.028 0.156,-1.23c0.011,-0.053 0.029,-0.097 0.05,-0.132c-0.018,-0.229 -0.036,-0.411 -0.05,-0.476l0,-0.156c0.046,-0.592 0.14,-3.425 0.155,-4.033c0.062,-0.062 0.14,-0.358 0.14,-0.467l0,-0.124c-0.031,-0.063 -0.218,-0.39 -0.295,-0.467l0,-2.634c-0.141,-0.445 -0.156,-0.945 -0.156,-1.431c0,-0.848 0.076,-1.69 0.156,-2.527l0,-2.533c0,-0.062 -0.14,-0.576 -0.14,-0.591c-0.016,-0.063 -0.016,-1.028 -0.016,-1.355c0,-0.233 0,-1.151 0.016,-1.338c0.285,-0.363 0.606,-0.507 0.951,-0.567c0.175,-0.122 0.382,-0.195 0.62,-0.195c0.39,0 0.781,0.023 1.173,0.052c0.189,-0.028 0.351,-0.052 0.383,-0.052l1.697,0c0.031,0 0.374,-0.156 0.405,-0.156c0.233,-0.031 1.806,-0.14 2.289,-0.14l1.043,0c0.031,-0.031 0.389,-0.156 0.405,-0.156l0.295,0c0.218,0.016 1.028,0.125 1.246,0.156l0,0c0.055,0.013 0.101,0.032 0.137,0.057c0.219,-0.019 0.392,-0.039 0.455,-0.057l0.171,0c0.592,0.062 3.41,0.14 4.033,0.171c0.062,0.047 0.358,0.125 0.467,0.125l0.125,0c0.062,-0.016 0.374,-0.202 0.467,-0.296l2.664,0Z" style="fill-rule:nonzero;"/></g></g></g></g><g><g><g><g><path d="M49.042,0.022c0.435,-0.137 0.922,-0.156 1.4,-0.156c0.825,0 1.643,0.074 2.459,0.156l2.601,0c0.047,0 0.561,-0.125 0.592,-0.125c0.062,-0.031 1.028,-0.031 1.355,-0.031c0.233,0 1.151,0 1.337,0.031c0.353,0.271 0.496,0.581 0.556,0.917c0.129,0.18 0.207,0.392 0.207,0.639c0,0.398 -0.022,0.799 -0.049,1.201c0.027,0.176 0.049,0.324 0.049,0.355l0,1.697c0,0.031 0.155,0.389 0.155,0.405c0.031,0.249 0.14,1.806 0.14,2.288l0,1.059c0.016,0.031 0.156,0.374 0.156,0.405l0,0.296c-0.031,0.218 -0.14,1.027 -0.156,1.23c-0.011,0.053 -0.029,0.096 -0.05,0.132c0.018,0.229 0.036,0.411 0.05,0.476l0,0.155c-0.046,0.592 -0.14,3.426 -0.155,4.033c-0.062,0.062 -0.14,0.358 -0.14,0.467l0,0.125c0.031,0.062 0.218,0.389 0.295,0.467l0,2.634c0.141,0.444 0.156,0.945 0.156,1.43c0,0.849 -0.076,1.69 -0.156,2.528l0,2.532c0,0.062 0.14,0.576 0.14,0.592c0.016,0.062 0.016,1.027 0.016,1.354c0,0.234 0,1.152 -0.016,1.338c-0.285,0.363 -0.606,0.508 -0.951,0.567c-0.175,0.122 -0.382,0.195 -0.62,0.195c-0.39,0 -0.781,-0.022 -1.173,-0.051c-0.189,0.028 -0.351,0.052 -0.383,0.052l-1.697,0c-0.031,0 -0.374,0.155 -0.405,0.155c-0.233,0.031 -1.806,0.14 -2.289,0.14l-1.043,0c-0.031,0.031 -0.389,0.156 -0.405,0.156l-0.295,0c-0.218,-0.016 -1.028,-0.125 -1.246,-0.156l0,0c-0.055,-0.013 -0.101,-0.032 -0.137,-0.056c-0.219,0.019 -0.392,0.038 -0.455,0.056l-0.171,0c-0.592,-0.062 -3.41,-0.14 -4.033,-0.171c-0.062,-0.047 -0.358,-0.125 -0.467,-0.125l-0.125,0c-0.062,0.016 -0.374,0.203 -0.467,0.296l-2.664,0c-0.435,0.137 -0.922,0.156 -1.4,0.156c-0.825,0 -1.643,-0.075 -2.459,-0.156l-2.601,0c-0.047,0 -0.561,0.125 -0.592,0.125c-0.062,0.031 -1.028,0.031 -1.355,0.031c-0.233,0 -1.151,0 -1.337,-0.031c-0.353,-0.271 -0.496,-0.581 -0.556,-0.917c-0.129,-0.18 -0.207,-0.392 -0.207,-0.639c0,-0.398 0.022,-0.799 0.049,-1.202c-0.027,-0.176 -0.049,-0.323 -0.049,-0.354l0,-1.697c0,-0.031 -0.155,-0.389 -0.155,-0.405c-0.031,-0.249 -0.14,-1.806 -0.14,-2.289l0,-1.058c-0.016,-0.032 -0.156,-0.374 -0.156,-0.405l0,-0.296c0.031,-0.218 0.14,-1.028 0.156,-1.23c0.011,-0.053 0.029,-0.096 0.05,-0.132c-0.018,-0.229 -0.036,-0.411 -0.05,-0.476l0,-0.156c0.046,-0.591 0.14,-3.425 0.155,-4.032c0.062,-0.063 0.14,-0.358 0.14,-0.467l0,-0.125c-0.031,-0.062 -0.218,-0.389 -0.295,-0.467l0,-2.634c-0.141,-0.444 -0.156,-0.945 -0.156,-1.431c0,-0.848 0.076,-1.689 0.156,-2.527l0,-2.532c0,-0.063 -0.14,-0.576 -0.14,-0.592c-0.016,-0.062 -0.016,-1.028 -0.016,-1.355c0,-0.233 0,-1.151 0.016,-1.338c0.285,-0.363 0.606,-0.507 0.951,-0.566c0.175,-0.123 0.382,-0.196 0.62,-0.196c0.39,0 0.781,0.023 1.173,0.052c0.189,-0.028 0.351,-0.052 0.383,-0.052l1.697,0c0.031,0 0.374,-0.155 0.405,-0.155c0.233,-0.032 1.806,-0.141 2.289,-0.141l1.043,0c0.031,-0.031 0.389,-0.155 0.405,-0.155l0.295,0c0.218,0.015 1.028,0.124 1.246,0.155l0,0.001c0.055,0.013 0.101,0.032 0.137,0.056c0.219,-0.019 0.392,-0.038 0.455,-0.056l0.171,0c0.592,0.062 3.41,0.14 4.033,0.171c0.062,0.047 0.358,0.124 0.467,0.124l0.125,0c0.062,-0.015 0.374,-0.202 0.467,-0.295l2.664,0Zm7.419,2.777c-0.309,-0.068 -0.748,-0.086 -1.099,-0.086l-0.342,0c-0.966,0 -2.258,0.062 -3.099,0.171c-0.109,0 -0.701,0.265 -0.747,0.296l-0.249,0c-0.25,0 -0.374,0 -0.514,-0.296l-1.043,0c-0.094,0 -0.545,-0.171 -0.592,-0.171c-0.109,0 -0.685,0.031 -1.09,0.031c-0.218,0 -0.374,0 -0.42,-0.031c-0.094,0 -0.545,-0.233 -0.592,-0.296l-0.171,0c-0.032,0 -0.53,0.172 -0.592,0.172l-0.888,0c-0.077,0 -0.56,0.124 -0.622,0.124l-0.296,0c-0.047,0 -0.53,-0.124 -0.592,-0.124l-0.125,0c-0.172,0 -1.215,0.124 -1.386,0.124c-0.078,0 -1.23,0.062 -1.635,0.062c-0.249,0 -1.401,-0.062 -1.65,-0.062c-0.078,-0.015 -0.514,-0.124 -0.592,-0.124c-0.109,0 -0.42,-0.032 -0.747,-0.032c-0.327,0 -0.654,0.032 -0.763,0.032c-0.007,-0.01 -0.016,-0.021 -0.026,-0.032c-0.311,-0.009 -0.595,-0.09 -0.876,-0.137c-0.509,0.104 -1.033,0 -1.511,0.293c-0.062,0.094 -0.514,0.436 -0.576,0.467c-0.078,0.033 -0.463,0.153 -0.701,0.231c-0.06,0.308 -0.078,0.74 -0.078,1.077l0,0.358c0,0.966 0.047,2.258 0.156,3.099c0,0.109 0.28,0.701 0.296,0.747l0,0.249c0,0.234 0,0.374 -0.296,0.514l0,1.043c0,0.078 -0.156,0.545 -0.156,0.592c0,0.109 0.031,0.67 0.031,1.074c0,0.218 0,0.39 -0.031,0.436c0,0.078 -0.249,0.545 -0.295,0.592l0,0.156c0,0.031 0.155,0.545 0.155,0.607l0,0.888c0,0.077 0.14,0.56 0.14,0.607l0,0.297c0,0.062 -0.14,0.544 -0.14,0.591l0,0.14c0,0.172 0.14,1.215 0.14,1.37c0,0.094 0.047,1.246 0.047,1.651c0,0.233 -0.047,1.401 -0.047,1.635c-0.031,0.093 -0.14,0.513 -0.14,0.591c0,0.109 -0.015,0.436 -0.015,0.763c0,0.327 0.015,0.638 0.015,0.747c-0.005,0.004 -0.01,0.009 -0.016,0.014c-0.004,0.323 -0.086,0.622 -0.129,0.927c0.091,0.498 0,1.022 0.285,1.488c0.078,0.062 0.436,0.514 0.452,0.561c0.044,0.077 0.168,0.471 0.24,0.708c0.309,0.068 0.748,0.086 1.099,0.086l0.342,0c0.966,0 2.258,-0.063 3.099,-0.172c0.109,0 0.701,-0.264 0.747,-0.295l0.249,0c0.25,0 0.374,0 0.514,0.295l1.043,0c0.094,0 0.545,0.172 0.592,0.172c0.109,0 0.685,-0.031 1.09,-0.031c0.218,0 0.374,0 0.42,0.031c0.094,0 0.545,0.233 0.592,0.295l0.171,0c0.032,0 0.53,-0.171 0.592,-0.171l0.888,0c0.077,0 0.56,-0.124 0.622,-0.124l0.296,0c0.047,0 0.53,0.124 0.592,0.124l0.125,0c0.172,0 1.215,-0.124 1.386,-0.124c0.078,0 1.23,-0.063 1.635,-0.063c0.249,0 1.401,0.063 1.65,0.063c0.078,0.015 0.514,0.124 0.592,0.124c0.109,0 0.42,0.031 0.747,0.031c0.327,0 0.654,-0.031 0.763,-0.031c0.007,0.01 0.016,0.021 0.026,0.032c0.311,0.009 0.595,0.089 0.876,0.136c0.509,-0.104 1.033,0.001 1.511,-0.292c0.062,-0.094 0.514,-0.436 0.576,-0.467c0.078,-0.034 0.463,-0.154 0.701,-0.231c0.06,-0.308 0.078,-0.74 0.078,-1.077l0,-0.359c0,-0.965 -0.047,-2.257 -0.156,-3.098c0,-0.109 -0.28,-0.701 -0.296,-0.747l0,-0.25c0,-0.233 0,-0.373 0.296,-0.513l0,-1.044c0,-0.077 0.156,-0.545 0.156,-0.591c0,-0.109 -0.031,-0.67 -0.031,-1.075c0,-0.218 0,-0.389 0.031,-0.436c0,-0.077 0.249,-0.545 0.295,-0.591l0,-0.156c0,-0.031 -0.155,-0.545 -0.155,-0.607l0,-0.888c0,-0.078 -0.14,-0.56 -0.14,-0.607l0,-0.297c0,-0.062 0.14,-0.545 0.14,-0.591l0,-0.14c0,-0.172 -0.14,-1.215 -0.14,-1.371c0,-0.093 -0.047,-1.245 -0.047,-1.65c0,-0.233 0.047,-1.401 0.047,-1.635c0.031,-0.093 0.14,-0.513 0.14,-0.591c0,-0.109 0.015,-0.436 0.015,-0.763c0,-0.327 -0.015,-0.639 -0.015,-0.747c0.005,-0.005 0.01,-0.009 0.016,-0.015c0.004,-0.322 0.086,-0.621 0.129,-0.926c-0.091,-0.498 0,-1.022 -0.285,-1.488c-0.078,-0.062 -0.436,-0.514 -0.452,-0.561c-0.044,-0.077 -0.168,-0.471 -0.24,-0.708Z" style="fill-rule:nonzero;"/></g></g></g></g><g><path d="M-10.958,0.182c0.435,-0.136 0.922,-0.156 1.4,-0.156c0.825,0 1.643,0.075 2.459,0.156l2.601,0c0.047,0 0.561,-0.124 0.592,-0.124c0.062,-0.032 1.028,-0.032 1.355,-0.032c0.233,0 1.151,0 1.337,0.032c0.353,0.27 0.496,0.581 0.556,0.917c0.129,0.179 0.207,0.392 0.207,0.638c0,0.399 -0.022,0.8 -0.049,1.202c0.027,0.176 0.049,0.324 0.049,0.355l0,1.697c0,0.031 0.155,0.389 0.155,0.404c0.031,0.249 0.14,1.806 0.14,2.289l0,1.059c0.016,0.031 0.156,0.373 0.156,0.405l0,0.295c-0.031,0.218 -0.14,1.028 -0.156,1.23c-0.011,0.053 -0.029,0.097 -0.05,0.132c0.018,0.229 0.036,0.411 0.05,0.476l0,0.156c-0.046,0.592 -0.14,3.425 -0.155,4.033c-0.062,0.062 -0.14,0.358 -0.14,0.467l0,0.124c0.031,0.063 0.218,0.39 0.295,0.467l0,2.634c0.141,0.445 0.156,0.945 0.156,1.431c0,0.848 -0.076,1.69 -0.156,2.527l0,2.533c0,0.062 0.14,0.576 0.14,0.591c0.016,0.063 0.016,1.028 0.016,1.355c0,0.233 0,1.151 -0.016,1.338c-0.285,0.363 -0.606,0.507 -0.951,0.567c-0.175,0.122 -0.382,0.195 -0.62,0.195c-0.39,0 -0.781,-0.023 -1.173,-0.052c-0.189,0.028 -0.351,0.052 -0.383,0.052l-1.697,0c-0.031,0 -0.374,0.156 -0.405,0.156c-0.233,0.031 -1.806,0.14 -2.289,0.14l-1.043,0c-0.031,0.031 -0.389,0.155 -0.405,0.155l-0.295,0c-0.218,-0.015 -1.028,-0.124 -1.246,-0.155l0,0c-0.055,-0.013 -0.101,-0.032 -0.137,-0.057c-0.219,0.019 -0.392,0.039 -0.455,0.057l-0.171,0c-0.592,-0.062 -3.41,-0.14 -4.033,-0.171c-0.062,-0.047 -0.358,-0.125 -0.467,-0.125l-0.125,0c-0.062,0.016 -0.374,0.202 -0.467,0.296l-2.664,0c-0.435,0.136 -0.922,0.155 -1.4,0.155c-0.825,0 -1.643,-0.074 -2.459,-0.155l-2.601,0c-0.047,0 -0.561,0.124 -0.592,0.124c-0.062,0.031 -1.028,0.031 -1.355,0.031c-0.233,0 -1.151,0 -1.337,-0.031c-0.353,-0.27 -0.496,-0.581 -0.556,-0.917c-0.129,-0.179 -0.207,-0.392 -0.207,-0.638c0,-0.399 0.022,-0.8 0.049,-1.202c-0.027,-0.176 -0.049,-0.324 -0.049,-0.355l0,-1.697c0,-0.031 -0.155,-0.389 -0.155,-0.404c-0.031,-0.25 -0.14,-1.806 -0.14,-2.289l0,-1.059c-0.016,-0.031 -0.156,-0.373 -0.156,-0.405l0,-0.295c0.031,-0.218 0.14,-1.028 0.156,-1.23c0.011,-0.053 0.029,-0.097 0.05,-0.132c-0.018,-0.229 -0.036,-0.411 -0.05,-0.476l0,-0.156c0.046,-0.592 0.14,-3.425 0.155,-4.033c0.062,-0.062 0.14,-0.358 0.14,-0.467l0,-0.124c-0.031,-0.063 -0.218,-0.39 -0.295,-0.467l0,-2.634c-0.141,-0.445 -0.156,-0.945 -0.156,-1.431c0,-0.848 0.076,-1.69 0.156,-2.527l0,-2.533c0,-0.062 -0.14,-0.576 -0.14,-0.591c-0.016,-0.063 -0.016,-1.028 -0.016,-1.355c0,-0.233 0,-1.151 0.016,-1.338c0.285,-0.363 0.606,-0.507 0.951,-0.567c0.175,-0.122 0.382,-0.195 0.62,-0.195c0.39,0 0.781,0.023 1.173,0.052c0.189,-0.028 0.351,-0.052 0.383,-0.052l1.697,0c0.031,0 0.374,-0.156 0.405,-0.156c0.233,-0.031 1.806,-0.14 2.289,-0.14l1.043,0c0.031,-0.031 0.389,-0.156 0.405,-0.156l0.295,0c0.218,0.016 1.028,0.125 1.246,0.156l0,0c0.055,0.013 0.101,0.032 0.137,0.057c0.219,-0.019 0.392,-0.039 0.455,-0.057l0.171,0c0.592,0.062 3.41,0.14 4.033,0.171c0.062,0.047 0.358,0.125 0.467,0.125l0.125,0c0.062,-0.016 0.374,-0.202 0.467,-0.296l2.664,0Zm7.419,2.777c-0.309,-0.068 -0.748,-0.085 -1.099,-0.085l-0.342,0c-0.966,0 -2.258,0.062 -3.099,0.171c-0.109,0 -0.701,0.265 -0.747,0.296l-0.249,0c-0.25,0 -0.374,0 -0.514,-0.296l-1.043,0c-0.094,0 -0.545,-0.171 -0.592,-0.171c-0.109,0 -0.685,0.031 -1.09,0.031c-0.218,0 -0.374,0 -0.42,-0.031c-0.094,0 -0.545,-0.234 -0.592,-0.296l-0.171,0c-0.032,0 -0.53,0.171 -0.592,0.171l-0.888,0c-0.077,0 -0.56,0.125 -0.622,0.125l-0.296,0c-0.047,0 -0.53,-0.125 -0.592,-0.125l-0.125,0c-0.172,0 -1.215,0.125 -1.386,0.125c-0.078,0 -1.23,0.062 -1.635,0.062c-0.249,0 -1.401,-0.062 -1.65,-0.062c-0.078,-0.016 -0.514,-0.125 -0.592,-0.125c-0.109,0 -0.42,-0.031 -0.747,-0.031c-0.327,0 -0.654,0.031 -0.763,0.031c-0.007,-0.01 -0.016,-0.021 -0.026,-0.032c-0.311,-0.009 -0.595,-0.089 -0.876,-0.136c-0.509,0.104 -1.033,0 -1.511,0.293c-0.062,0.093 -0.514,0.436 -0.576,0.467c-0.078,0.033 -0.463,0.153 -0.701,0.231c-0.06,0.307 -0.078,0.74 -0.078,1.077l0,0.358c0,0.965 0.047,2.258 0.156,3.098c0,0.109 0.28,0.701 0.296,0.748l0,0.249c0,0.234 0,0.374 -0.296,0.514l0,1.043c0,0.078 -0.156,0.545 -0.156,0.592c0,0.109 0.031,0.669 0.031,1.074c0,0.218 0,0.389 -0.031,0.436c0,0.078 -0.249,0.545 -0.295,0.592l0,0.155c0,0.032 0.155,0.545 0.155,0.608l0,0.887c0,0.078 0.14,0.561 0.14,0.607l0,0.297c0,0.062 -0.14,0.545 -0.14,0.592l0,0.14c0,0.171 0.14,1.214 0.14,1.37c0,0.093 0.047,1.246 0.047,1.65c0,0.234 -0.047,1.402 -0.047,1.635c-0.031,0.094 -0.14,0.514 -0.14,0.592c0,0.109 -0.015,0.436 -0.015,0.763c0,0.327 0.015,0.638 0.015,0.747c-0.005,0.004 -0.01,0.009 -0.016,0.014c-0.004,0.322 -0.086,0.622 -0.129,0.927c0.091,0.498 0,1.022 0.285,1.488c0.078,0.062 0.436,0.513 0.452,0.56c0.044,0.078 0.168,0.472 0.24,0.709c0.309,0.068 0.748,0.085 1.099,0.085l0.342,0c0.966,0 2.258,-0.062 3.099,-0.171c0.109,0 0.701,-0.265 0.747,-0.296l0.249,0c0.25,0 0.374,0 0.514,0.296l1.043,0c0.094,0 0.545,0.171 0.592,0.171c0.109,0 0.685,-0.031 1.09,-0.031c0.218,0 0.374,0 0.42,0.031c0.094,0 0.545,0.234 0.592,0.296l0.171,0c0.032,0 0.53,-0.171 0.592,-0.171l0.888,0c0.077,0 0.56,-0.125 0.622,-0.125l0.296,0c0.047,0 0.53,0.125 0.592,0.125l0.125,0c0.172,0 1.215,-0.125 1.386,-0.125c0.078,0 1.23,-0.062 1.635,-0.062c0.249,0 1.401,0.062 1.65,0.062c0.078,0.016 0.514,0.125 0.592,0.125c0.109,0 0.42,0.031 0.747,0.031c0.327,0 0.654,-0.031 0.763,-0.031c0.007,0.01 0.016,0.021 0.026,0.032c0.311,0.009 0.595,0.089 0.876,0.136c0.509,-0.104 1.033,0 1.511,-0.293c0.062,-0.093 0.514,-0.436 0.576,-0.467c0.078,-0.033 0.463,-0.153 0.701,-0.231c0.06,-0.307 0.078,-0.74 0.078,-1.077l0,-0.358c0,-0.965 -0.047,-2.258 -0.156,-3.098c0,-0.109 -0.28,-0.701 -0.296,-0.748l0,-0.249c0,-0.234 0,-0.374 0.296,-0.514l0,-1.043c0,-0.078 0.156,-0.545 0.156,-0.592c0,-0.109 -0.031,-0.669 -0.031,-1.074c0,-0.218 0,-0.389 0.031,-0.436c0,-0.078 0.249,-0.545 0.295,-0.592l0,-0.155c0,-0.032 -0.155,-0.545 -0.155,-0.608l0,-0.887c0,-0.078 -0.14,-0.561 -0.14,-0.607l0,-0.297c0,-0.062 0.14,-0.545 0.14,-0.592l0,-0.14c0,-0.171 -0.14,-1.214 -0.14,-1.37c0,-0.093 -0.047,-1.246 -0.047,-1.65c0,-0.234 0.047,-1.402 0.047,-1.635c0.031,-0.094 0.14,-0.514 0.14,-0.592c0,-0.109 0.015,-0.436 0.015,-0.763c0,-0.327 -0.015,-0.638 -0.015,-0.747c0.005,-0.004 0.01,-0.009 0.016,-0.014c0.004,-0.323 0.086,-0.622 0.129,-0.927c-0.091,-0.498 0,-1.022 -0.285,-1.488c-0.078,-0.062 -0.436,-0.513 -0.452,-0.56c-0.044,-0.078 -0.168,-0.472 -0.24,-0.709Z" style="fill-rule:nonzero;"/></g><path d="M14.947,8.231l0.945,0c0.019,0 0.36,-0.093 0.474,-0.114c0.038,-0.062 0.105,-0.104 0.181,-0.104c0.36,0.218 0.759,0.322 1.138,0.322l0.702,-0.104l0.579,0.052c0.361,0 0.702,-0.228 1.101,-0.228c0.36,0 0.654,0.228 0.996,0.228c0.18,0 0.275,-0.021 0.474,-0.104l1.167,0c0.011,0.004 0.021,0.008 0.031,0.012c0.064,-0.014 0.128,-0.021 0.193,-0.021c0.172,0 0.365,0.078 0.365,0.549l0,0.236c0,0.196 -0.257,0.923 -0.3,1.218c-1.032,1.433 -2.299,1.845 -3.008,3.574c-0.409,0.039 -0.817,1.021 -1.118,1.315c0.666,1.198 1.526,1.611 2.192,2.691c0.516,0.687 0.902,0.942 1.117,1.119c1.075,1.433 1.225,1.257 1.44,1.728l0,0.727c-0.258,0.196 -0.365,0.235 -0.623,0.235c-0.165,0 -0.372,-0.016 -0.535,-0.073l-0.026,0.015l-2.182,-0.228l-0.987,0.072c-0.029,0.031 -0.095,0.052 -0.209,0.052c-0.417,0 -0.493,-0.176 -0.721,-0.176c-0.332,0 -0.607,0.176 -0.958,0.176l-0.674,-0.125c-0.247,0 -0.768,0 -0.987,0.228c-0.047,0 -0.142,-0.052 -0.341,-0.052c-0.068,0 -0.134,0.01 -0.192,0.02c-0.101,0.062 -0.198,0.084 -0.347,0.09c-0.001,0.001 -0.002,0.003 -0.002,0.005l-0.005,-0.005c-0.026,0.001 -0.055,0.001 -0.085,0.001c-0.258,0 -0.494,-0.039 -0.752,-0.216c-1.139,-0.569 -1.633,-1.041 -2.664,-1.905c-0.365,-0.235 -1.268,-1.001 -1.569,-1.256c-0.816,-0.334 -1.697,-1.041 -2.449,-1.728c-0.516,-0.413 -0.924,-0.943 -0.924,-1.454c0,-0.373 0.408,-0.883 0.86,-1.198c0.816,-0.746 1.332,-0.903 1.847,-1.453c1.118,-0.746 1.633,-1.767 2.128,-1.767c0.15,-0.334 2.148,-1.964 2.406,-2.042c0.301,-0.099 0.752,-0.373 1.053,-0.373c0.114,0 0.204,0.013 0.269,0.061Z" style="fill-rule:nonzero;"/></svg>