<?xml version="1.0" encoding="UTF-8" standalone="no"?>
<!DOCTYPE svg PUBLIC "-//W3C//DTD SVG 1.1//EN" "http://www.w3.org/Graphics/SVG/1.1/DTD/svg11.dtd">
<svg width="100%" height="100%" viewBox="0 0 18 30" version="1.1" xmlns="http://www.w3.org/2000/svg" xmlns:xlink="http://www.w3.org/1999/xlink" xml:space="preserve" xmlns:serif="http://www.serif.com/" style="fill-rule:evenodd;clip-rule:evenodd;stroke-linejoin:round;stroke-miterlimit:2;">
    <g transform="matrix(1.71405e-15,27.9925,-27.9925,1.71405e-15,-0.000854263,-1.64104)">
        <path d="M0.059,-0.018C0.059,-0.003 0.069,0 0.081,0C0.101,0 0.12,-0.001 0.138,-0.007C0.139,-0.007 0.15,-0.011 0.152,-0.011C0.155,-0.012 0.174,-0.013 0.176,-0.015C0.179,-0.015 0.19,-0.028 0.194,-0.032C0.21,-0.05 0.217,-0.075 0.217,-0.098C0.217,-0.112 0.212,-0.127 0.212,-0.143L0.212,-0.147C0.212,-0.15 0.213,-0.155 0.219,-0.157C0.228,-0.157 0.265,-0.163 0.273,-0.163C0.274,-0.163 0.287,-0.165 0.292,-0.165C0.297,-0.165 0.311,-0.163 0.312,-0.163C0.313,-0.163 0.322,-0.16 0.323,-0.16L0.351,-0.16C0.352,-0.16 0.364,-0.154 0.365,-0.152L0.38,-0.152C0.381,-0.152 0.39,-0.149 0.39,-0.149C0.393,-0.148 0.416,-0.147 0.418,-0.145C0.423,-0.144 0.457,-0.129 0.461,-0.129C0.463,-0.127 0.474,-0.125 0.475,-0.125C0.479,-0.125 0.486,-0.121 0.486,-0.121C0.52,-0.105 0.555,-0.087 0.589,-0.071C0.591,-0.07 0.606,-0.066 0.611,-0.064C0.622,-0.06 0.671,-0.049 0.682,-0.046L0.699,-0.046C0.708,-0.046 0.716,-0.046 0.721,-0.053C0.723,-0.055 0.727,-0.063 0.728,-0.064C0.735,-0.074 0.744,-0.109 0.746,-0.11C0.779,-0.112 0.794,-0.116 0.813,-0.142L0.813,-0.178C0.813,-0.179 0.811,-0.184 0.811,-0.186C0.811,-0.186 0.809,-0.19 0.809,-0.191C0.809,-0.192 0.811,-0.198 0.811,-0.199C0.84,-0.199 0.868,-0.204 0.868,-0.239C0.868,-0.261 0.852,-0.27 0.852,-0.281C0.852,-0.285 0.852,-0.287 0.856,-0.292L0.888,-0.292C0.893,-0.292 0.93,-0.285 0.934,-0.284C0.939,-0.284 0.973,-0.281 0.977,-0.281C0.981,-0.28 1.012,-0.274 1.017,-0.274L1.084,-0.274C1.096,-0.28 1.13,-0.299 1.13,-0.317C1.13,-0.32 1.128,-0.336 1.127,-0.337C1.124,-0.34 1.112,-0.352 1.109,-0.355C1.096,-0.365 1.075,-0.375 1.059,-0.376L1.04,-0.376C1.028,-0.379 1.019,-0.386 1.005,-0.387C0.992,-0.39 0.958,-0.393 0.956,-0.394C0.954,-0.394 0.933,-0.404 0.93,-0.405C0.93,-0.407 0.912,-0.409 0.909,-0.409C0.909,-0.41 0.901,-0.411 0.899,-0.413C0.898,-0.413 0.886,-0.418 0.885,-0.42L0.856,-0.42C0.853,-0.42 0.836,-0.425 0.832,-0.426C0.801,-0.438 0.77,-0.449 0.741,-0.47C0.741,-0.47 0.737,-0.476 0.735,-0.477C0.706,-0.495 0.66,-0.506 0.628,-0.506C0.605,-0.506 0.587,-0.506 0.565,-0.498C0.561,-0.498 0.529,-0.481 0.524,-0.481C0.523,-0.479 0.512,-0.477 0.512,-0.477C0.51,-0.476 0.502,-0.47 0.501,-0.47C0.498,-0.467 0.487,-0.463 0.486,-0.463C0.485,-0.463 0.473,-0.459 0.472,-0.459C0.47,-0.457 0.442,-0.449 0.439,-0.449C0.397,-0.436 0.352,-0.434 0.309,-0.424L0.305,-0.424C0.302,-0.425 0.285,-0.426 0.284,-0.426C0.283,-0.428 0.274,-0.429 0.273,-0.431C0.27,-0.431 0.25,-0.433 0.249,-0.434C0.243,-0.435 0.219,-0.442 0.217,-0.445C0.209,-0.447 0.209,-0.45 0.209,-0.457L0.209,-0.463C0.209,-0.463 0.212,-0.472 0.212,-0.473C0.212,-0.509 0.2,-0.552 0.17,-0.576C0.164,-0.582 0.141,-0.593 0.134,-0.597C0.133,-0.598 0.124,-0.604 0.123,-0.604C0.122,-0.604 0.116,-0.608 0.116,-0.608L0.078,-0.604C0.069,-0.603 0.063,-0.579 0.063,-0.575L0.063,-0.573C0.064,-0.569 0.066,-0.555 0.066,-0.551L0.066,-0.424C0.07,-0.411 0.071,-0.4 0.071,-0.39C0.074,-0.39 0.08,-0.391 0.081,-0.394C0.082,-0.399 0.084,-0.418 0.084,-0.424C0.084,-0.428 0.088,-0.443 0.088,-0.445C0.088,-0.446 0.091,-0.447 0.091,-0.449L0.095,-0.449C0.096,-0.447 0.105,-0.445 0.106,-0.445C0.139,-0.435 0.168,-0.436 0.173,-0.394L0.173,-0.359C0.172,-0.35 0.162,-0.344 0.162,-0.333C0.191,-0.333 0.2,-0.362 0.204,-0.387C0.204,-0.39 0.203,-0.397 0.201,-0.397C0.201,-0.4 0.196,-0.411 0.194,-0.413C0.194,-0.414 0.197,-0.418 0.198,-0.42L0.201,-0.42C0.21,-0.42 0.215,-0.414 0.222,-0.413L0.245,-0.413C0.245,-0.413 0.251,-0.41 0.251,-0.409C0.255,-0.409 0.267,-0.405 0.269,-0.405L0.312,-0.405C0.314,-0.405 0.328,-0.402 0.33,-0.402C0.33,-0.402 0.333,-0.4 0.334,-0.4C0.347,-0.4 0.361,-0.408 0.372,-0.409C0.379,-0.41 0.43,-0.415 0.437,-0.415C0.438,-0.415 0.45,-0.418 0.455,-0.42C0.472,-0.424 0.491,-0.432 0.508,-0.434C0.517,-0.435 0.56,-0.44 0.569,-0.441L0.596,-0.441C0.614,-0.44 0.697,-0.435 0.714,-0.434C0.734,-0.425 0.756,-0.425 0.777,-0.42C0.782,-0.417 0.817,-0.407 0.82,-0.405C0.838,-0.4 0.856,-0.399 0.874,-0.394C0.893,-0.39 0.916,-0.38 0.934,-0.376L0.954,-0.376C0.961,-0.376 0.968,-0.375 0.977,-0.369C0.99,-0.362 0.996,-0.342 0.996,-0.329L0.996,-0.324C0.996,-0.32 0.996,-0.319 0.991,-0.317C0.987,-0.313 0.972,-0.306 0.97,-0.305L0.959,-0.305C0.958,-0.306 0.946,-0.31 0.945,-0.31L0.92,-0.31C0.885,-0.311 0.85,-0.324 0.812,-0.324L0.804,-0.324C0.797,-0.324 0.791,-0.323 0.791,-0.313C0.791,-0.28 0.838,-0.283 0.838,-0.257L0.838,-0.256C0.83,-0.241 0.821,-0.239 0.804,-0.239C0.787,-0.239 0.775,-0.252 0.756,-0.252C0.746,-0.252 0.739,-0.246 0.739,-0.235C0.739,-0.206 0.782,-0.199 0.782,-0.171C0.782,-0.156 0.765,-0.154 0.754,-0.149L0.749,-0.149C0.748,-0.149 0.74,-0.156 0.739,-0.157C0.731,-0.16 0.71,-0.168 0.702,-0.168C0.689,-0.167 0.678,-0.162 0.678,-0.147C0.678,-0.133 0.692,-0.124 0.692,-0.112C0.692,-0.099 0.669,-0.099 0.662,-0.099L0.652,-0.099C0.649,-0.099 0.644,-0.099 0.64,-0.103C0.639,-0.104 0.633,-0.109 0.632,-0.11C0.63,-0.11 0.617,-0.113 0.614,-0.113C0.6,-0.117 0.596,-0.123 0.586,-0.131C0.583,-0.134 0.569,-0.145 0.569,-0.145C0.566,-0.147 0.549,-0.151 0.547,-0.152C0.545,-0.154 0.541,-0.157 0.54,-0.16L0.54,-0.163C0.541,-0.166 0.544,-0.169 0.547,-0.171C0.544,-0.176 0.54,-0.178 0.535,-0.178L0.533,-0.178C0.517,-0.178 0.503,-0.173 0.487,-0.173C0.482,-0.173 0.482,-0.176 0.482,-0.18C0.482,-0.183 0.482,-0.187 0.479,-0.189C0.477,-0.19 0.456,-0.191 0.455,-0.191C0.442,-0.194 0.429,-0.203 0.418,-0.206L0.418,-0.208C0.418,-0.221 0.47,-0.224 0.47,-0.242C0.47,-0.243 0.47,-0.246 0.468,-0.246C0.467,-0.247 0.461,-0.248 0.459,-0.248L0.457,-0.248C0.438,-0.247 0.421,-0.235 0.399,-0.235C0.388,-0.235 0.377,-0.239 0.365,-0.239C0.351,-0.239 0.343,-0.231 0.327,-0.231C0.327,-0.232 0.326,-0.234 0.326,-0.235C0.33,-0.247 0.351,-0.25 0.351,-0.261L0.351,-0.263C0.351,-0.264 0.348,-0.266 0.348,-0.266C0.345,-0.266 0.333,-0.267 0.33,-0.267C0.325,-0.267 0.312,-0.266 0.312,-0.266C0.31,-0.266 0.299,-0.26 0.297,-0.26L0.293,-0.26C0.293,-0.263 0.294,-0.271 0.294,-0.274C0.294,-0.274 0.291,-0.277 0.291,-0.277L0.251,-0.277C0.239,-0.277 0.229,-0.259 0.218,-0.259C0.207,-0.259 0.203,-0.291 0.198,-0.299C0.197,-0.3 0.196,-0.302 0.194,-0.302L0.188,-0.302C0.186,-0.302 0.182,-0.305 0.18,-0.305C0.173,-0.312 0.173,-0.32 0.163,-0.323C0.161,-0.324 0.146,-0.327 0.141,-0.327L0.134,-0.327C0.133,-0.327 0.124,-0.324 0.123,-0.323C0.119,-0.323 0.096,-0.319 0.091,-0.319C0.084,-0.324 0.081,-0.334 0.081,-0.341L0.078,-0.342C0.072,-0.342 0.069,-0.34 0.066,-0.334L0.066,-0.31C0.066,-0.309 0.07,-0.303 0.07,-0.302C0.07,-0.3 0.066,-0.287 0.066,-0.284L0.066,-0.279C0.066,-0.273 0.069,-0.266 0.074,-0.266C0.091,-0.266 0.091,-0.288 0.103,-0.295L0.114,-0.295C0.144,-0.295 0.164,-0.277 0.18,-0.256C0.182,-0.255 0.186,-0.249 0.188,-0.248C0.188,-0.247 0.189,-0.236 0.189,-0.232C0.189,-0.217 0.179,-0.189 0.159,-0.189C0.157,-0.189 0.146,-0.191 0.145,-0.191L0.141,-0.191C0.123,-0.191 0.108,-0.19 0.091,-0.186C0.091,-0.186 0.091,-0.184 0.089,-0.184C0.084,-0.184 0.084,-0.197 0.084,-0.201C0.084,-0.211 0.088,-0.222 0.088,-0.232L0.088,-0.237C0.088,-0.246 0.087,-0.256 0.074,-0.256C0.067,-0.256 0.066,-0.241 0.066,-0.239C0.066,-0.236 0.064,-0.219 0.063,-0.214L0.063,-0.209C0.064,-0.207 0.066,-0.19 0.066,-0.189C0.066,-0.186 0.063,-0.163 0.063,-0.16L0.063,-0.085L0.066,-0.071L0.07,-0.071C0.07,-0.071 0.074,-0.083 0.078,-0.088C0.084,-0.109 0.091,-0.131 0.116,-0.134L0.134,-0.134C0.135,-0.134 0.14,-0.139 0.141,-0.139L0.152,-0.139C0.166,-0.13 0.173,-0.113 0.173,-0.098L0.173,-0.095C0.172,-0.094 0.168,-0.085 0.166,-0.082C0.154,-0.059 0.121,-0.059 0.099,-0.05C0.098,-0.05 0.089,-0.043 0.088,-0.043C0.074,-0.036 0.059,-0.036 0.059,-0.018ZM1.022,-0.341C1.022,-0.35 1.024,-0.352 1.032,-0.352L1.039,-0.352C1.039,-0.352 1.05,-0.345 1.051,-0.345C1.064,-0.342 1.087,-0.349 1.087,-0.327C1.087,-0.312 1.078,-0.302 1.062,-0.302C1.04,-0.302 1.022,-0.319 1.022,-0.341ZM0.589,-0.468L0.589,-0.474C0.593,-0.474 0.607,-0.476 0.611,-0.477L0.617,-0.481L0.621,-0.481C0.626,-0.481 0.664,-0.479 0.664,-0.464C0.664,-0.459 0.659,-0.457 0.654,-0.457L0.65,-0.457C0.649,-0.457 0.643,-0.459 0.643,-0.459C0.641,-0.459 0.63,-0.465 0.628,-0.465C0.623,-0.466 0.596,-0.468 0.589,-0.468ZM0.085,-0.55C0.085,-0.552 0.099,-0.58 0.104,-0.58L0.106,-0.58C0.107,-0.579 0.112,-0.576 0.113,-0.576C0.115,-0.576 0.132,-0.573 0.134,-0.573C0.134,-0.573 0.138,-0.569 0.138,-0.569C0.158,-0.555 0.177,-0.542 0.177,-0.514C0.177,-0.506 0.161,-0.465 0.156,-0.465L0.106,-0.465C0.101,-0.465 0.096,-0.485 0.095,-0.488C0.087,-0.507 0.085,-0.526 0.085,-0.55Z" style="fill-rule:nonzero;"/>
    </g>
</svg>
