<?xml version="1.0" standalone="no"?>
<!DOCTYPE svg PUBLIC "-//W3C//DTD SVG 20010904//EN"
 "http://www.w3.org/TR/2001/REC-SVG-20010904/DTD/svg10.dtd">
<svg version="1.0" xmlns="http://www.w3.org/2000/svg"
 width="700.000000pt" height="700.000000pt" viewBox="0 0 700.000000 700.000000"
 preserveAspectRatio="xMidYMid meet">
<metadata>
Created by potrace 1.11, written by Peter Selinger 2001-2013
</metadata>
<g transform="translate(0.000000,700.000000) scale(0.100000,-0.100000)"
fill="#000000" stroke="none">
<path d="M854 6403 c-48 -6 -90 -58 -133 -164 l-39 -94 -1 -337 c0 -274 -3
-344 -15 -373 -20 -47 -35 -219 -42 -485 -4 -155 -10 -227 -21 -257 -14 -39
-14 -55 3 -180 10 -76 18 -194 19 -263 5 -360 26 -797 42 -846 18 -58 14 -85
-21 -137 -25 -36 -25 -38 -29 -309 -2 -150 -10 -322 -17 -382 -11 -91 -11
-142 0 -305 7 -108 15 -336 17 -507 4 -260 2 -320 -11 -371 -13 -48 -16 -116
-16 -311 l0 -250 36 -35 c41 -40 51 -45 154 -85 l75 -29 337 -1 c274 -1 344
-4 373 -16 46 -20 218 -34 480 -42 145 -4 225 -10 258 -21 44 -14 61 -14 190
3 78 10 185 19 237 19 239 1 808 28 854 41 72 20 98 17 144 -16 l41 -29 278
-4 c153 -2 325 -9 381 -17 87 -11 135 -11 295 0 106 7 329 15 497 17 253 4
323 2 407 -12 80 -13 151 -16 323 -13 l220 3 35 35 c23 23 49 69 74 130 l39
95 1 336 c0 275 3 343 16 379 20 56 33 218 41 485 4 151 10 222 21 252 14 39
14 55 -3 180 -10 76 -18 194 -19 263 -5 360 -26 797 -42 846 -18 58 -14 85 21
137 25 36 25 38 29 309 2 150 10 322 17 382 11 91 11 142 0 305 -7 108 -15
334 -17 504 -4 255 -2 319 11 377 12 53 16 127 16 314 l0 245 -35 34 c-39 38
-52 45 -155 85 l-75 29 -337 1 c-274 1 -344 4 -373 16 -46 20 -218 34 -480 42
-145 4 -225 10 -258 21 -44 14 -61 14 -190 -3 -78 -10 -185 -19 -237 -19 -239
-1 -808 -28 -854 -41 -72 -20 -98 -17 -144 16 l-41 29 -278 4 c-153 2 -325 9
-381 17 -87 11 -135 11 -295 0 -312 -22 -788 -25 -899 -6 -85 15 -431 21 -524
9z m2396 -504 c67 -22 351 -36 555 -27 44 2 143 -3 220 -11 201 -19 627 -17
729 4 51 11 144 18 255 20 97 1 198 8 225 14 57 14 192 6 279 -15 41 -10 74
-27 114 -60 67 -54 95 -69 157 -85 36 -9 50 -18 59 -38 14 -34 12 -485 -3
-697 -10 -136 -16 -170 -41 -232 -19 -49 -29 -91 -29 -127 0 -47 4 -56 30 -78
30 -26 30 -26 30 -134 0 -59 5 -124 11 -143 5 -19 10 -105 9 -190 -1 -154 -1
-156 29 -215 33 -65 38 -98 20 -142 -13 -31 -31 -266 -31 -383 1 -41 2 -120 4
-175 1 -55 -3 -152 -10 -215 -18 -169 -16 -626 3 -715 10 -43 17 -142 20 -255
2 -102 8 -210 15 -241 12 -63 0 -237 -21 -299 -6 -19 -29 -56 -50 -81 -53 -64
-76 -105 -90 -162 -6 -26 -16 -50 -21 -53 -28 -17 -225 -23 -463 -14 -341 13
-419 23 -502 60 -56 26 -74 29 -116 24 -34 -5 -56 -14 -70 -30 -19 -22 -28
-24 -123 -24 -68 0 -116 -5 -145 -16 -34 -12 -80 -15 -197 -14 -153 1 -154 1
-223 -31 l-70 -33 -72 17 c-105 24 -323 34 -542 25 -44 -2 -143 3 -220 11
-201 19 -627 17 -729 -4 -51 -11 -144 -18 -255 -20 -97 -1 -198 -8 -225 -14
-57 -14 -192 -6 -279 15 -42 10 -75 27 -120 64 -57 46 -146 90 -183 90 -32 0
-38 50 -36 320 1 372 16 544 53 640 18 48 29 94 29 127 0 45 -4 54 -30 76 -30
26 -30 26 -30 134 0 59 -5 124 -11 143 -5 19 -10 105 -9 190 1 154 1 156 -29
215 -33 65 -38 98 -20 142 13 31 31 266 31 383 -1 41 -2 120 -4 175 -1 55 3
152 10 215 18 169 16 626 -4 715 -9 43 -16 141 -19 255 -2 102 -8 210 -15 241
-12 63 -1 225 20 296 7 22 36 69 64 104 35 44 58 85 71 128 13 44 25 65 39 71
44 16 220 20 458 10 315 -12 413 -24 484 -55 79 -35 165 -35 196 0 20 24 27
25 124 25 67 0 116 5 145 16 34 12 81 15 199 15 152 -1 156 -1 215 28 68 33
85 36 135 20z"/>
<path d="M3681 5295 c-113 -34 -242 -103 -321 -170 -72 -61 -120 -81 -174 -71
-52 10 -66 37 -66 130 l0 79 -92 -5 c-67 -4 -104 -11 -134 -26 -23 -11 -72
-26 -109 -33 -56 -10 -78 -19 -120 -54 -35 -28 -76 -49 -124 -64 -82 -25 -111
-55 -95 -98 13 -37 50 -60 124 -78 133 -32 137 -33 178 -85 l40 -50 7 -162 c9
-212 -8 -533 -39 -713 -22 -127 -22 -144 -10 -193 27 -104 10 -442 -28 -548
l-22 -61 22 -35 c23 -36 29 -73 53 -299 15 -147 -6 -517 -32 -570 -10 -20 -25
-69 -34 -107 -18 -77 -72 -173 -120 -210 -24 -19 -40 -22 -127 -22 l-100 0
-34 -34 c-37 -37 -43 -68 -23 -124 8 -25 21 -35 63 -51 74 -28 182 -48 316
-61 63 -6 153 -15 200 -20 47 -6 177 -10 289 -10 l205 0 48 50 c88 92 66 146
-79 194 -43 14 -93 35 -111 46 l-34 21 7 187 c5 113 2 320 -5 519 -13 318 -12
331 6 369 14 28 34 47 71 67 l52 28 83 -18 c114 -24 316 -24 421 0 88 21 200
70 273 120 28 19 77 49 110 65 66 34 87 54 200 197 103 129 104 131 163 272
97 229 113 285 121 424 9 139 5 169 -39 321 -16 57 -31 124 -35 150 -3 26 -23
87 -45 136 -22 48 -45 112 -51 140 -11 48 -21 60 -161 198 -82 81 -183 172
-226 203 -72 53 -81 56 -152 63 -205 20 -222 19 -310 -7z m51 -298 c77 -38
145 -94 174 -143 23 -40 91 -110 126 -130 8 -5 23 -32 32 -61 9 -28 39 -87 65
-130 64 -105 71 -130 71 -240 0 -231 -36 -400 -116 -551 -37 -69 -59 -125 -66
-165 -33 -191 -201 -327 -402 -327 -46 0 -67 9 -240 110 -204 119 -208 127
-219 445 -11 302 -11 472 0 700 7 161 11 185 32 225 53 100 142 210 190 235
15 7 51 16 83 20 31 4 69 16 84 26 40 26 116 20 186 -14z"/>
</g>
</svg>
