<svg xmlns="http://www.w3.org/2000/svg" xml:space="preserve" fill-rule="evenodd" stroke-linejoin="round" stroke-miterlimit="2" clip-rule="evenodd" viewBox="0 0 250 250">
  <path fill="none" d="M0 0h250v250H0z"/>
  <path d="M108.672 104.741V87.333a6.332 6.332 0 0 1 9.161-5.662l75.263 37.632a6.39 6.39 0 0 1 0 11.431l-75.176 37.588a6.389 6.389 0 0 1-9.248-5.715v-17.311l-46.053 23.026a6.389 6.389 0 0 1-9.248-5.715V87.333a6.332 6.332 0 0 1 9.161-5.662l46.14 23.07Z"/>
  <path d="M108.672 104.741V87.333a6.332 6.332 0 0 1 9.161-5.662l75.263 37.632a6.39 6.39 0 0 1 0 11.431l-75.176 37.588a6.389 6.389 0 0 1-9.248-5.715v-17.311l-46.053 23.026a6.389 6.389 0 0 1-9.248-5.715V87.333a6.332 6.332 0 0 1 9.161-5.662l46.14 23.07Zm12.5-7.425 55.405 27.703-55.405 27.702v-7.425a12.5 12.5 0 0 0-18.09-11.18l-37.211 18.605V97.316l37.211 18.605a12.498 12.498 0 0 0 18.09-11.18v-7.425Z"/>
</svg>