<svg xmlns="http://www.w3.org/2000/svg" xml:space="preserve" fill-rule="evenodd" stroke-linejoin="round" stroke-miterlimit="2" clip-rule="evenodd" viewBox="0 0 250 250">
  <path fill="none" d="M0 0h250v250H0z"/>
  <path d="M184.975 159.977a5.705 5.705 0 0 0-5.702-5.702H70.727a5.705 5.705 0 0 0-5.702 5.702v11.404a5.705 5.705 0 0 0 5.702 5.702h108.546a5.705 5.705 0 0 0 5.702-5.702v-11.404Z"/>
  <path d="M184.975 159.977a5.705 5.705 0 0 0-5.702-5.702H70.727a5.705 5.705 0 0 0-5.702 5.702v11.404a5.705 5.705 0 0 0 5.702 5.702h108.546a5.705 5.705 0 0 0 5.702-5.702v-11.404Zm0-40.679a5.705 5.705 0 0 0-5.702-5.702H70.727a5.705 5.705 0 0 0-5.702 5.702v11.404a5.705 5.705 0 0 0 5.702 5.702h108.546a5.705 5.705 0 0 0 5.702-5.702v-11.404Z"/>
  <path d="M184.975 119.298a5.705 5.705 0 0 0-5.702-5.702H70.727a5.705 5.705 0 0 0-5.702 5.702v11.404a5.705 5.705 0 0 0 5.702 5.702h108.546a5.705 5.705 0 0 0 5.702-5.702v-11.404Zm0-40.679a5.705 5.705 0 0 0-5.702-5.702H70.727a5.705 5.705 0 0 0-5.702 5.702v11.404a5.705 5.705 0 0 0 5.702 5.702h108.546a5.705 5.705 0 0 0 5.702-5.702V78.619Z"/>
  <path d="M184.975 78.619a5.705 5.705 0 0 0-5.702-5.702H70.727a5.705 5.705 0 0 0-5.702 5.702v11.404a5.705 5.705 0 0 0 5.702 5.702h108.546a5.705 5.705 0 0 0 5.702-5.702V78.619Z"/>
</svg>