<svg xmlns="http://www.w3.org/2000/svg" xml:space="preserve" fill-rule="evenodd" stroke-linejoin="round" stroke-miterlimit="2" clip-rule="evenodd" viewBox="0 0 250 250">
  <path fill="none" d="M0 0h250v250H0z"/>
  <path d="M168.978 164.489V85.511a4.51 4.51 0 0 0-4.508-4.508h-9.017a4.51 4.51 0 0 0-4.508 4.508v26.541L90.182 81.671a6.33 6.33 0 0 0-9.16 5.662v75.274a6.39 6.39 0 0 0 9.248 5.715l60.675-30.337v26.504a4.51 4.51 0 0 0 4.508 4.508h9.017a4.51 4.51 0 0 0 4.508-4.508Z"/>
  <path d="M168.978 164.489V85.511a4.51 4.51 0 0 0-4.508-4.508h-9.017a4.51 4.51 0 0 0-4.508 4.508v26.541L90.182 81.671a6.33 6.33 0 0 0-9.16 5.662v75.274a6.39 6.39 0 0 0 9.248 5.715l60.675-30.337v26.504a4.51 4.51 0 0 0 4.508 4.508h9.017a4.51 4.51 0 0 0 4.508-4.508Zm-12.5-41.235v3.53a12.471 12.471 0 0 0-11.123.021l-51.833 25.916V97.316l51.833 25.917a12.474 12.474 0 0 0 11.123.021Z"/>
</svg>