<svg xmlns="http://www.w3.org/2000/svg" xml:space="preserve" fill-rule="evenodd" stroke-linejoin="round" stroke-miterlimit="2" clip-rule="evenodd" viewBox="0 0 250 250">
  <path fill="none" d="M0 0h250v250H0z"/>
  <path d="M113.091 82.292c0-5.175-4.201-9.375-9.375-9.375h-18.75c-5.175 0-9.375 4.2-9.375 9.375v85.416c0 5.175 4.2 9.375 9.375 9.375h18.75c5.174 0 9.375-4.2 9.375-9.375V82.292Z"/>
  <path d="M113.091 82.292c0-5.175-4.201-9.375-9.375-9.375h-18.75c-5.175 0-9.375 4.2-9.375 9.375v85.416c0 5.175 4.2 9.375 9.375 9.375h18.75c5.174 0 9.375-4.2 9.375-9.375V82.292Zm-25 3.125v79.166h12.5V85.417h-12.5Zm86.318-3.125c0-5.175-4.2-9.375-9.375-9.375h-18.75c-5.174 0-9.375 4.2-9.375 9.375v85.416c0 5.175 4.201 9.375 9.375 9.375h18.75c5.175 0 9.375-4.2 9.375-9.375V82.292Z"/>
  <path d="M174.409 82.292c0-5.175-4.2-9.375-9.375-9.375h-18.75c-5.174 0-9.375 4.2-9.375 9.375v85.416c0 5.175 4.201 9.375 9.375 9.375h18.75c5.175 0 9.375-4.2 9.375-9.375V82.292Zm-25 3.125v79.166h12.5V85.417h-12.5Z"/>
</svg>