<svg xmlns="http://www.w3.org/2000/svg" xml:space="preserve" fill-rule="evenodd" stroke-linejoin="round" stroke-miterlimit="2" clip-rule="evenodd" viewBox="0 0 250 250">
  <path fill="none" d="M0 0h250v250H0z"/>
  <path d="M180.07 118.256a7.564 7.564 0 0 1 0 13.532l-88.992 44.497a7.567 7.567 0 0 1-10.948-6.767V80.41a7.49 7.49 0 0 1 10.844-6.702l89.096 44.548Z"/>
  <path d="M180.07 118.256a7.564 7.564 0 0 1 0 13.532l-88.992 44.497a7.567 7.567 0 0 1-10.948-6.767V80.41a7.49 7.49 0 0 1 10.844-6.702l89.096 44.548Zm-87.44 43.277 73.022-36.511L92.63 88.511v73.022Z"/>
</svg>