<?xml version="1.0" encoding="UTF-8" standalone="no"?><!DOCTYPE svg PUBLIC "-//W3C//DTD SVG 1.1//EN" "http://www.w3.org/Graphics/SVG/1.1/DTD/svg11.dtd"><svg width="100%" height="100%" viewBox="0 0 1700 1300" version="1.1" xmlns="http://www.w3.org/2000/svg" xmlns:xlink="http://www.w3.org/1999/xlink" xml:space="preserve" xmlns:serif="http://www.serif.com/" style="fill-rule:evenodd;clip-rule:evenodd;stroke-linecap:round;stroke-linejoin:round;stroke-miterlimit:1.5;"><g><g><path d="M200,1120c-0,-11.038 -8.962,-20 -20,-20l-60,0c-11.038,0 -20,8.962 -20,20l0,60c0,11.038 8.962,20 20,20l60,0c11.038,0 20,-8.962 20,-20l-0,-60Z" style="fill:#fff;"/><path d="M200,1120c-0,-11.038 -8.962,-20 -20,-20l-60,0c-11.038,0 -20,8.962 -20,20l0,60c0,11.038 8.962,20 20,20l60,0c11.038,0 20,-8.962 20,-20l-0,-60Zm-3,0l-0,60c-0,9.383 -7.617,17 -17,17c-0,0 -60,0 -60,0c-9.383,0 -17,-7.617 -17,-17l0,-60c0,-9.383 7.617,-17 17,-17l60,0c9.383,0 17,7.617 17,17Z"/><path d="M200,1120c-0,-11.038 -8.962,-20 -20,-20l-60,0c-11.038,0 -20,8.962 -20,20l0,60c0,11.038 8.962,20 20,20l60,0c11.038,0 20,-8.962 20,-20l-0,-60Z" style="fill:#fff;"/><path d="M200,1120c-0,-11.038 -8.962,-20 -20,-20l-60,0c-11.038,0 -20,8.962 -20,20l0,60c0,11.038 8.962,20 20,20l60,0c11.038,0 20,-8.962 20,-20l-0,-60Zm-3,0l-0,60c-0,9.383 -7.617,17 -17,17c-0,0 -60,0 -60,0c-9.383,0 -17,-7.617 -17,-17l0,-60c0,-9.383 7.617,-17 17,-17l60,0c9.383,0 17,7.617 17,17Z"/><path d="M200,1120c-0,-11.038 -8.962,-20 -20,-20l-60,0c-11.038,0 -20,8.962 -20,20l0,60c0,11.038 8.962,20 20,20l60,0c11.038,0 20,-8.962 20,-20l-0,-60Z" style="fill:#726699;"/><path d="M200,1120c-0,-11.038 -8.962,-20 -20,-20l-60,0c-11.038,0 -20,8.962 -20,20l0,60c0,11.038 8.962,20 20,20l60,0c11.038,0 20,-8.962 20,-20l-0,-60Zm-4,0l-0,60c-0,8.831 -7.169,16 -16,16c-0,0 -60,0 -60,0c-8.831,0 -16,-7.169 -16,-16l0,-60c0,-8.831 7.169,-16 16,-16l60,0c8.831,0 16,7.169 16,16Z"/><path d="M177.683,1148.61c0.488,0.293 0.787,0.821 0.787,1.39c0,0.57 -0.299,1.098 -0.787,1.391c-8.38,5.028 -37.057,22.234 -45.393,27.235c-0.467,0.281 -1.049,0.288 -1.523,0.02c-0.474,-0.269 -0.767,-0.771 -0.767,-1.316c-0,-9.942 -0,-44.747 -0,-54.67c0,-0.543 0.292,-1.043 0.764,-1.31c0.472,-0.268 1.051,-0.26 1.516,0.019c8.324,4.994 37.02,22.211 45.403,27.241Z" style="fill:#fff;stroke:#000;stroke-width:4px;"/></g><g><path d="M400,1120c-0,-11.038 -8.962,-20 -20,-20l-60,0c-11.038,0 -20,8.962 -20,20l-0,60c-0,11.038 8.962,20 20,20l60,0c11.038,0 20,-8.962 20,-20l-0,-60Z" style="fill:#fff;"/><path d="M400,1120c-0,-11.038 -8.962,-20 -20,-20l-60,0c-11.038,0 -20,8.962 -20,20l-0,60c-0,11.038 8.962,20 20,20l60,0c11.038,0 20,-8.962 20,-20l-0,-60Zm-3,0l-0,60c-0,9.383 -7.617,17 -17,17c-0,0 -60,0 -60,0c-9.383,0 -17,-7.617 -17,-17l-0,-60c-0,-9.383 7.617,-17 17,-17l60,0c9.383,0 17,7.617 17,17Z"/><path d="M400,1120c-0,-11.038 -8.962,-20 -20,-20l-60,0c-11.038,0 -20,8.962 -20,20l-0,60c-0,11.038 8.962,20 20,20l60,0c11.038,0 20,-8.962 20,-20l-0,-60Z" style="fill:#726699;"/><path d="M400,1120c-0,-11.038 -8.962,-20 -20,-20l-60,0c-11.038,0 -20,8.962 -20,20l-0,60c-0,11.038 8.962,20 20,20l60,0c11.038,0 20,-8.962 20,-20l-0,-60Zm-4,0l-0,60c-0,8.831 -7.169,16 -16,16c-0,0 -60,0 -60,0c-8.831,0 -16,-7.169 -16,-16l-0,-60c-0,-8.831 7.169,-16 16,-16l60,0c8.831,0 16,7.169 16,16Z"/><path d="M350,1156l0,15.33c-0,0.545 -0.293,1.047 -0.767,1.316c-0.474,0.268 -1.056,0.261 -1.523,-0.02c-7.04,-4.224 -28.317,-16.99 -35.393,-21.235c-0.488,-0.293 -0.787,-0.821 -0.787,-1.391c-0,-0.569 0.299,-1.097 0.787,-1.39c7.08,-4.248 28.372,-17.023 35.403,-21.241c0.465,-0.279 1.044,-0.287 1.516,-0.019c0.472,0.267 0.764,0.767 0.764,1.31l-0,15.34l27.72,-16.631c0.465,-0.279 1.044,-0.287 1.516,-0.019c0.472,0.267 0.764,0.767 0.764,1.31c-0,8.393 -0,34.262 0,42.67c-0,0.545 -0.293,1.047 -0.767,1.316c-0.474,0.268 -1.056,0.261 -1.523,-0.02l-27.71,-16.626Z" style="fill:#fff;stroke:#000;stroke-width:4px;"/></g><g><path d="M500,1120c-0,-11.038 8.962,-20 20,-20l60,0c11.038,0 20,8.962 20,20l-0,60c-0,11.038 -8.962,20 -20,20l-60,0c-11.038,0 -20,-8.962 -20,-20l-0,-60Z" style="fill:#fff;"/><path d="M500,1120c-0,-11.038 8.962,-20 20,-20l60,0c11.038,0 20,8.962 20,20l-0,60c-0,11.038 -8.962,20 -20,20l-60,0c-11.038,0 -20,-8.962 -20,-20l-0,-60Zm3,0c-0,-9.383 7.617,-17 17,-17l60,0c9.383,0 17,7.617 17,17c-0,0 -0,60 -0,60c-0,9.383 -7.617,17 -17,17c-0,0 -60,0 -60,0c-9.383,0 -17,-7.617 -17,-17c-0,-0 -0,-60 -0,-60Z"/><path d="M500,1120c-0,-11.038 8.962,-20 20,-20l60,0c11.038,0 20,8.962 20,20l-0,60c-0,11.038 -8.962,20 -20,20l-60,0c-11.038,0 -20,-8.962 -20,-20l-0,-60Z" style="fill:#726699;"/><path d="M500,1120c-0,-11.038 8.962,-20 20,-20l60,0c11.038,0 20,8.962 20,20l-0,60c-0,11.038 -8.962,20 -20,20l-60,0c-11.038,0 -20,-8.962 -20,-20l-0,-60Zm4,0c-0,-8.831 7.169,-16 16,-16l60,0c8.831,0 16,7.169 16,16c-0,0 -0,60 -0,60c-0,8.831 -7.169,16 -16,16c-0,0 -60,0 -60,0c-8.831,0 -16,-7.169 -16,-16c-0,-0 -0,-60 -0,-60Z"/><path d="M550,1156l-0,15.33c0,0.545 0.293,1.047 0.767,1.316c0.474,0.268 1.056,0.261 1.523,-0.02c7.04,-4.224 28.317,-16.99 35.393,-21.235c0.488,-0.293 0.787,-0.821 0.787,-1.391c0,-0.569 -0.299,-1.097 -0.787,-1.39c-7.08,-4.248 -28.372,-17.023 -35.403,-21.241c-0.465,-0.279 -1.044,-0.287 -1.516,-0.019c-0.472,0.267 -0.764,0.767 -0.764,1.31l0,15.34l-27.72,-16.631c-0.465,-0.279 -1.044,-0.287 -1.516,-0.019c-0.472,0.267 -0.764,0.767 -0.764,1.31c0,8.393 0,34.262 -0,42.67c0,0.545 0.293,1.047 0.767,1.316c0.474,0.268 1.056,0.261 1.523,-0.02l27.71,-16.626Z" style="fill:#fff;stroke:#000;stroke-width:4px;"/></g><g><path d="M800,1120c-0,-11.038 -8.962,-20 -20,-20l-60,0c-11.038,0 -20,8.962 -20,20l-0,60c-0,11.038 8.962,20 20,20l60,0c11.038,0 20,-8.962 20,-20l-0,-60Z" style="fill:#726699;"/><path d="M800,1120c-0,-11.038 -8.962,-20 -20,-20l-60,0c-11.038,0 -20,8.962 -20,20l-0,60c-0,11.038 8.962,20 20,20l60,0c11.038,0 20,-8.962 20,-20l-0,-60Zm-4,0l-0,60c-0,8.831 -7.169,16 -16,16c-0,0 -60,0 -60,0c-8.831,0 -16,-7.169 -16,-16l-0,-60c-0,-8.831 7.169,-16 16,-16l60,0c8.831,0 16,7.169 16,16Z"/><g><path d="M773.004,1128.51c-0,-0.402 -0.16,-0.787 -0.444,-1.071c-0.284,-0.284 -0.669,-0.444 -1.071,-0.444l-42.997,0c-0.397,0 -0.777,0.158 -1.058,0.438c-0.28,0.281 -0.438,0.661 -0.438,1.058l0,43.001c0,0.401 0.159,0.785 0.443,1.068c0.283,0.284 0.667,0.443 1.068,0.443l43.011,-0c0.394,-0 0.772,-0.157 1.051,-0.435c0.278,-0.279 0.435,-0.657 0.435,-1.051l-0,-43.007Z" style="fill:#fff;stroke:#000;stroke-width:4px;"/></g></g><g><path d="M1000,1120c-0,-11.038 -8.962,-20 -20,-20l-60,0c-11.038,0 -20,8.962 -20,20l-0,60c-0,11.038 8.962,20 20,20l60,0c11.038,0 20,-8.962 20,-20l-0,-60Z" style="fill:#726699;"/><path d="M1000,1120c-0,-11.038 -8.962,-20 -20,-20l-60,0c-11.038,0 -20,8.962 -20,20l-0,60c-0,11.038 8.962,20 20,20l60,0c11.038,0 20,-8.962 20,-20l-0,-60Zm-4,0l-0,60c-0,8.831 -7.169,16 -16,16c-0,0 -60,0 -60,0c-8.831,0 -16,-7.169 -16,-16c-0,-0 -0,-60 -0,-60c-0,-8.831 7.169,-16 16,-16l60,0c8.831,0 16,7.169 16,16Z"/><g><path d="M939.091,1154.47l0,17.032c0,0.399 -0.158,0.782 -0.441,1.065c-0.282,0.282 -0.665,0.441 -1.064,0.441c-2.05,-0 -5.695,-0 -7.739,-0c-0.396,-0 -0.776,-0.158 -1.057,-0.438c-0.28,-0.281 -0.438,-0.661 -0.438,-1.057c0,-6.963 0,-36.16 0,-43.051c0,-0.388 0.154,-0.759 0.428,-1.034c0.275,-0.274 0.646,-0.428 1.034,-0.428c2.038,0 5.714,0 7.774,0c0.83,0 1.503,0.673 1.503,1.503l0,17.035l30.276,-18.166c0.465,-0.279 1.045,-0.286 1.517,-0.019c0.472,0.267 0.764,0.768 0.764,1.31c-0,8.394 -0,34.262 -0,42.671c-0,0.544 -0.293,1.047 -0.767,1.315c-0.474,0.269 -1.056,0.261 -1.523,-0.019l-30.267,-18.16Z" style="fill:#fff;stroke:#000;stroke-width:4px;"/></g></g><g><path d="M1300,1120c-0,-11.038 8.962,-20 20,-20l60,0c11.038,0 20,8.962 20,20l-0,60c-0,11.038 -8.962,20 -20,20l-60,0c-11.038,0 -20,-8.962 -20,-20l-0,-60Z" style="fill:#726699;"/><path d="M1300,1120c-0,-11.038 8.962,-20 20,-20l60,0c11.038,0 20,8.962 20,20l-0,60c-0,11.038 -8.962,20 -20,20l-60,0c-11.038,0 -20,-8.962 -20,-20l-0,-60Zm4,0c-0,-8.831 7.169,-16 16,-16l60,0c8.831,0 16,7.169 16,16c-0,0 -0,60 -0,60c-0,8.831 -7.169,16 -16,16c-0,0 -60,0 -60,0c-8.831,0 -16,-7.169 -16,-16l-0,-60Z"/><g><path d="M1360.91,1154.47l-0,17.032c-0,0.399 0.158,0.782 0.441,1.065c0.282,0.282 0.665,0.441 1.064,0.441c2.05,-0 5.695,-0 7.739,-0c0.396,-0 0.776,-0.158 1.057,-0.438c0.28,-0.281 0.438,-0.661 0.438,-1.057c-0,-6.963 -0,-36.16 -0,-43.051c-0,-0.388 -0.154,-0.759 -0.428,-1.034c-0.275,-0.274 -0.646,-0.428 -1.034,-0.428c-2.038,0 -5.714,0 -7.774,0c-0.83,0 -1.503,0.673 -1.503,1.503l-0,17.035l-30.276,-18.166c-0.465,-0.279 -1.045,-0.286 -1.517,-0.019c-0.472,0.267 -0.764,0.768 -0.764,1.31c0,8.394 0,34.262 0,42.671c0,0.544 0.293,1.047 0.767,1.315c0.474,0.269 1.056,0.261 1.523,-0.019l30.267,-18.16Z" style="fill:#fff;stroke:#000;stroke-width:4px;"/></g></g><g><path d="M1200,1120c-0,-11.038 -8.962,-20 -20,-20l-60,0c-11.038,0 -20,8.962 -20,20l-0,60c-0,11.038 8.962,20 20,20l60,0c11.038,0 20,-8.962 20,-20l-0,-60Z" style="fill:#726699;"/><path d="M1200,1120c-0,-11.038 -8.962,-20 -20,-20l-60,0c-11.038,0 -20,8.962 -20,20l-0,60c-0,11.038 8.962,20 20,20l60,0c11.038,0 20,-8.962 20,-20l-0,-60Zm-4,0l-0,60c-0,8.831 -7.169,16 -16,16c-0,0 -60,0 -60,0c-8.831,0 -16,-7.169 -16,-16l-0,-60c-0,-8.831 7.169,-16 16,-16l60,0c8.831,0 16,7.169 16,16Z"/><path d="M1144.57,1128.46c-0,-0.807 -0.655,-1.462 -1.462,-1.462c-3.078,0 -10.2,0 -13.314,0c-0.83,0 -1.503,0.673 -1.503,1.503c0,6.963 0,36.031 0,42.999c0,0.399 0.159,0.782 0.441,1.065c0.283,0.282 0.666,0.441 1.065,0.441c3.104,-0 10.183,-0 13.278,-0c0.396,-0 0.776,-0.158 1.057,-0.438c0.28,-0.281 0.438,-0.661 0.438,-1.057c-0,-6.963 -0,-36.16 -0,-43.051Zm27.166,0c0,-0.807 -0.654,-1.462 -1.462,-1.462c-3.078,0 -10.199,0 -13.313,0c-0.83,0 -1.503,0.673 -1.503,1.503c-0,6.963 -0,36.031 -0,42.999c-0,0.399 0.158,0.782 0.441,1.065c0.282,0.282 0.665,0.441 1.065,0.441c3.104,-0 10.182,-0 13.277,-0c0.397,-0 0.777,-0.158 1.057,-0.438c0.281,-0.281 0.438,-0.661 0.438,-1.057c0,-6.963 0,-36.16 0,-43.051Z" style="fill:#fff;stroke:#000;stroke-width:4px;"/></g></g><g><g><path d="M200,920c-0,-11.038 -8.962,-20 -20,-20l-60,0c-11.038,0 -20,8.962 -20,20l0,60c0,11.038 8.962,20 20,20l60,0c11.038,0 20,-8.962 20,-20l-0,-60Z"/><path d="M200,920c-0,-11.038 -8.962,-20 -20,-20l-60,0c-11.038,0 -20,8.962 -20,20l0,60c0,11.038 8.962,20 20,20l60,0c11.038,0 20,-8.962 20,-20l-0,-60Zm-10,0l-0,60c-0,5.519 -4.481,10 -10,10l-60,0c-5.519,0 -10,-4.481 -10,-10l0,-60c0,-5.519 4.481,-10 10,-10c0,0 60,0 60,0c5.519,0 10,4.481 10,10Z"/><path d="M200,920c-0,-11.038 -8.962,-20 -20,-20l-60,0c-11.038,0 -20,8.962 -20,20l0,60c0,11.038 8.962,20 20,20l60,0c11.038,0 20,-8.962 20,-20l-0,-60Z"/><path d="M200,920c-0,-11.038 -8.962,-20 -20,-20l-60,0c-11.038,0 -20,8.962 -20,20l0,60c0,11.038 8.962,20 20,20l60,0c11.038,0 20,-8.962 20,-20l-0,-60Zm-10,0l-0,60c-0,5.519 -4.481,10 -10,10l-60,0c-5.519,0 -10,-4.481 -10,-10l0,-60c0,-5.519 4.481,-10 10,-10c0,0 60,0 60,0c5.519,0 10,4.481 10,10Z"/><path d="M200,920c-0,-11.038 -8.962,-20 -20,-20l-60,0c-11.038,0 -20,8.962 -20,20l0,60c0,11.038 8.962,20 20,20l60,0c11.038,0 20,-8.962 20,-20l-0,-60Z"/><path d="M200,920c-0,-11.038 -8.962,-20 -20,-20l-60,0c-11.038,0 -20,8.962 -20,20l0,60c0,11.038 8.962,20 20,20l60,0c11.038,0 20,-8.962 20,-20l-0,-60Zm-10,0l-0,60c-0,5.519 -4.481,10 -10,10l-60,0c-5.519,0 -10,-4.481 -10,-10l0,-60c0,-5.519 4.481,-10 10,-10c0,0 60,0 60,0c5.519,0 10,4.481 10,10Z"/><path d="M200,920c-0,-11.038 -8.962,-20 -20,-20l-60,0c-11.038,0 -20,8.962 -20,20l0,60c0,11.038 8.962,20 20,20l60,0c11.038,0 20,-8.962 20,-20l-0,-60Z"/><path d="M200,920c-0,-11.038 -8.962,-20 -20,-20l-60,0c-11.038,0 -20,8.962 -20,20l0,60c0,11.038 8.962,20 20,20l60,0c11.038,0 20,-8.962 20,-20l-0,-60Zm-10,0l-0,60c-0,5.519 -4.481,10 -10,10l-60,0c-5.519,0 -10,-4.481 -10,-10l0,-60c0,-5.519 4.481,-10 10,-10c0,0 60,0 60,0c5.519,0 10,4.481 10,10Z"/><g><path d="M177.683,948.61c0.488,0.293 0.787,0.821 0.787,1.39c0,0.569 -0.299,1.097 -0.787,1.39c-8.38,5.028 -37.057,22.234 -45.393,27.236c-0.467,0.28 -1.049,0.288 -1.523,0.019c-0.474,-0.268 -0.767,-0.771 -0.767,-1.315c0,-9.942 0,-44.747 0,-54.671c0,-0.542 0.292,-1.043 0.764,-1.31c0.472,-0.267 1.051,-0.26 1.516,0.019c8.324,4.995 37.02,22.212 45.403,27.242Z" style="fill:#fff;stroke:#fff;stroke-width:1px;"/></g></g><g><path d="M400,920c-0,-11.038 -8.962,-20 -20,-20l-60,0c-11.038,0 -20,8.962 -20,20l-0,60c-0,11.038 8.962,20 20,20l60,0c11.038,0 20,-8.962 20,-20l-0,-60Z"/><path d="M400,920c-0,-11.038 -8.962,-20 -20,-20l-60,0c-11.038,0 -20,8.962 -20,20l-0,60c-0,11.038 8.962,20 20,20l60,0c11.038,0 20,-8.962 20,-20l-0,-60Zm-10,0l-0,60c-0,5.519 -4.481,10 -10,10l-60,0c-5.519,0 -10,-4.481 -10,-10l-0,-60c-0,-5.519 4.481,-10 10,-10c0,0 60,0 60,0c5.519,0 10,4.481 10,10Z"/><path d="M400,920c-0,-11.038 -8.962,-20 -20,-20l-60,0c-11.038,0 -20,8.962 -20,20l-0,60c-0,11.038 8.962,20 20,20l60,0c11.038,0 20,-8.962 20,-20l-0,-60Z"/><path d="M400,920c-0,-11.038 -8.962,-20 -20,-20l-60,0c-11.038,0 -20,8.962 -20,20l-0,60c-0,11.038 8.962,20 20,20l60,0c11.038,0 20,-8.962 20,-20l-0,-60Zm-10,0l-0,60c-0,5.519 -4.481,10 -10,10l-60,0c-5.519,0 -10,-4.481 -10,-10l-0,-60c-0,-5.519 4.481,-10 10,-10c0,0 60,0 60,0c5.519,0 10,4.481 10,10Z"/><g><path d="M345.317,948.61c-0.488,0.293 -0.787,0.821 -0.787,1.39c-0,0.569 0.299,1.097 0.787,1.39c7.076,4.246 28.353,17.012 35.393,21.236c0.467,0.28 1.049,0.288 1.523,0.019c0.474,-0.268 0.767,-0.771 0.767,-1.315c-0,-8.409 -0,-34.277 -0,-42.671c-0,-0.542 -0.292,-1.043 -0.764,-1.31c-0.472,-0.267 -1.051,-0.26 -1.516,0.019c-7.031,4.219 -28.323,16.994 -35.403,21.242Z" style="fill:#fff;stroke:#fff;stroke-width:1px;"/><path d="M315.317,948.61c-0.488,0.293 -0.787,0.821 -0.787,1.39c-0,0.569 0.299,1.097 0.787,1.39c7.076,4.246 28.353,17.012 35.393,21.236c0.467,0.28 1.049,0.288 1.523,0.019c0.474,-0.268 0.767,-0.771 0.767,-1.315c-0,-8.409 -0,-34.277 -0,-42.671c-0,-0.542 -0.292,-1.043 -0.764,-1.31c-0.472,-0.267 -1.051,-0.26 -1.516,0.019c-7.031,4.219 -28.323,16.994 -35.403,21.242Z" style="fill:#fff;stroke:#fff;stroke-width:1px;"/></g></g><g><path d="M600,920c-0,-11.038 -8.962,-20 -20,-20l-60,0c-11.038,0 -20,8.962 -20,20l-0,60c-0,11.038 8.962,20 20,20l60,0c11.038,0 20,-8.962 20,-20l-0,-60Z"/><path d="M600,920c-0,-11.038 -8.962,-20 -20,-20l-60,0c-11.038,0 -20,8.962 -20,20l-0,60c-0,11.038 8.962,20 20,20l60,0c11.038,0 20,-8.962 20,-20l-0,-60Zm-10,0l-0,60c-0,5.519 -4.481,10 -10,10l-60,0c-5.519,0 -10,-4.481 -10,-10c-0,-0 -0,-60 -0,-60c-0,-5.519 4.481,-10 10,-10c0,0 60,0 60,0c5.519,0 10,4.481 10,10Z"/><g><path d="M554.683,948.61c0.488,0.293 0.787,0.821 0.787,1.39c0,0.569 -0.299,1.097 -0.787,1.39c-7.076,4.246 -28.353,17.012 -35.393,21.236c-0.467,0.28 -1.049,0.288 -1.523,0.019c-0.474,-0.268 -0.767,-0.771 -0.767,-1.315c0,-8.409 0,-34.277 0,-42.671c0,-0.542 0.292,-1.043 0.764,-1.31c0.472,-0.267 1.051,-0.26 1.516,0.019c7.031,4.219 28.323,16.994 35.403,21.242Z" style="fill:#fff;stroke:#fff;stroke-width:1px;"/><path d="M584.683,948.61c0.488,0.293 0.787,0.821 0.787,1.39c0,0.569 -0.299,1.097 -0.787,1.39c-7.076,4.246 -28.353,17.012 -35.393,21.236c-0.467,0.28 -1.049,0.288 -1.523,0.019c-0.474,-0.268 -0.767,-0.771 -0.767,-1.315c0,-8.409 0,-34.277 0,-42.671c0,-0.542 0.292,-1.043 0.764,-1.31c0.472,-0.267 1.051,-0.26 1.516,0.019c7.031,4.219 28.323,16.994 35.403,21.242Z" style="fill:#fff;stroke:#fff;stroke-width:1px;"/></g></g><g><path d="M800,920c-0,-11.038 -8.962,-20 -20,-20l-60,0c-11.038,0 -20,8.962 -20,20l-0,60c-0,11.038 8.962,20 20,20l60,0c11.038,0 20,-8.962 20,-20l-0,-60Z"/><path d="M800,920c-0,-11.038 -8.962,-20 -20,-20l-60,0c-11.038,0 -20,8.962 -20,20l-0,60c-0,11.038 8.962,20 20,20l60,0c11.038,0 20,-8.962 20,-20l-0,-60Zm-10,0l-0,60c-0,5.519 -4.481,10 -10,10l-60,0c-5.519,0 -10,-4.481 -10,-10l-0,-60c-0,-5.519 4.481,-10 10,-10c0,0 60,0 60,0c5.519,0 10,4.481 10,10Z"/><path d="M773.004,928.511c-0,-0.402 -0.16,-0.787 -0.444,-1.071c-0.284,-0.284 -0.669,-0.444 -1.071,-0.444l-42.997,0c-0.397,0 -0.777,0.158 -1.058,0.438c-0.28,0.281 -0.438,0.661 -0.438,1.058l0,43.001c0,0.401 0.159,0.785 0.443,1.068c0.283,0.284 0.667,0.443 1.068,0.443l43.011,-0c0.394,-0 0.772,-0.157 1.051,-0.435c0.278,-0.279 0.435,-0.657 0.435,-1.051l-0,-43.007Z" style="fill:#fff;stroke:#fff;stroke-width:1px;"/><path d="M773.004,928.511c-0,-0.402 -0.16,-0.787 -0.444,-1.071c-0.284,-0.284 -0.669,-0.444 -1.071,-0.444l-42.997,0c-0.397,0 -0.777,0.158 -1.058,0.438c-0.28,0.281 -0.438,0.661 -0.438,1.058l0,43.001c0,0.401 0.159,0.785 0.443,1.068c0.283,0.284 0.667,0.443 1.068,0.443l43.011,-0c0.394,-0 0.772,-0.157 1.051,-0.435c0.278,-0.279 0.435,-0.657 0.435,-1.051l-0,-43.007Z" style="fill:#fff;stroke:#fff;stroke-width:1px;"/></g><g><path d="M1000,920c-0,-11.038 -8.962,-20 -20,-20l-60,0c-11.038,0 -20,8.962 -20,20l-0,60c-0,11.038 8.962,20 20,20l60,0c11.038,0 20,-8.962 20,-20l-0,-60Z"/><path d="M1000,920c-0,-11.038 -8.962,-20 -20,-20l-60,0c-11.038,0 -20,8.962 -20,20l-0,60c-0,11.038 8.962,20 20,20l60,0c11.038,0 20,-8.962 20,-20l-0,-60Zm-10,0l-0,60c-0,5.519 -4.481,10 -10,10l-60,0c-5.519,0 -10,-4.481 -10,-10c-0,-0 -0,-60 -0,-60c-0,-5.519 4.481,-10 10,-10c0,0 60,0 60,0c5.519,0 10,4.481 10,10Z"/><g><path d="M934.056,948.61c-0.488,0.293 -0.787,0.821 -0.787,1.39c-0,0.569 0.299,1.097 0.787,1.39c7.077,4.246 28.353,17.012 35.393,21.236c0.467,0.28 1.049,0.288 1.523,0.019c0.474,-0.268 0.767,-0.771 0.767,-1.315c0,-8.409 0,-34.277 0,-42.671c0,-0.542 -0.292,-1.043 -0.764,-1.31c-0.472,-0.267 -1.051,-0.26 -1.516,0.019c-7.031,4.219 -28.323,16.994 -35.403,21.242Z" style="fill:#fff;stroke:#fff;stroke-width:1px;"/><path d="M925.53,928.458c-0,-0.388 0.154,-0.759 0.428,-1.034c0.274,-0.274 0.646,-0.428 1.034,-0.428c2.038,0 5.714,0 7.774,0c0.83,0 1.503,0.673 1.503,1.503c-0,6.963 -0,36.031 -0,42.999c-0,0.399 -0.159,0.782 -0.441,1.065c-0.283,0.282 -0.666,0.441 -1.065,0.441c-2.049,-0 -5.695,-0 -7.738,-0c-0.397,-0 -0.777,-0.158 -1.057,-0.438c-0.281,-0.281 -0.438,-0.661 -0.438,-1.057c-0,-6.963 -0,-36.16 -0,-43.051Z" style="fill:#fff;stroke:#fff;stroke-width:1px;"/></g><g><path d="M934.056,948.61c-0.488,0.293 -0.787,0.821 -0.787,1.39c-0,0.569 0.299,1.097 0.787,1.39c7.077,4.246 28.353,17.012 35.393,21.236c0.467,0.28 1.049,0.288 1.523,0.019c0.474,-0.268 0.767,-0.771 0.767,-1.315c0,-8.409 0,-34.277 0,-42.671c0,-0.542 -0.292,-1.043 -0.764,-1.31c-0.472,-0.267 -1.051,-0.26 -1.516,0.019c-7.031,4.219 -28.323,16.994 -35.403,21.242Z" style="fill:#fff;stroke:#fff;stroke-width:1px;"/><path d="M925.53,928.458c-0,-0.388 0.154,-0.759 0.428,-1.034c0.274,-0.274 0.646,-0.428 1.034,-0.428c2.038,0 5.714,0 7.774,0c0.83,0 1.503,0.673 1.503,1.503c-0,6.963 -0,36.031 -0,42.999c-0,0.399 -0.159,0.782 -0.441,1.065c-0.283,0.282 -0.666,0.441 -1.065,0.441c-2.049,-0 -5.695,-0 -7.738,-0c-0.397,-0 -0.777,-0.158 -1.057,-0.438c-0.281,-0.281 -0.438,-0.661 -0.438,-1.057c-0,-6.963 -0,-36.16 -0,-43.051Z" style="fill:#fff;stroke:#fff;stroke-width:1px;"/></g></g><g><path d="M1200,920c-0,-11.038 -8.962,-20 -20,-20l-60,0c-11.038,0 -20,8.962 -20,20l-0,60c-0,11.038 8.962,20 20,20l60,0c11.038,0 20,-8.962 20,-20l-0,-60Z"/><path d="M1200,920c-0,-11.038 -8.962,-20 -20,-20l-60,0c-11.038,0 -20,8.962 -20,20l-0,60c-0,11.038 8.962,20 20,20l60,0c11.038,0 20,-8.962 20,-20l-0,-60Zm-10,0l-0,60c-0,5.519 -4.481,10 -10,10l-60,0c-5.519,0 -10,-4.481 -10,-10l-0,-60c-0,-5.519 4.481,-10 10,-10c0,0 60,0 60,0c5.519,0 10,4.481 10,10Z"/><g><path d="M1144.57,928.458c-0,-0.807 -0.655,-1.462 -1.462,-1.462c-3.078,0 -10.2,0 -13.314,0c-0.83,0 -1.503,0.673 -1.503,1.503c0,6.963 0,36.031 0,42.999c0,0.399 0.159,0.782 0.441,1.065c0.283,0.282 0.666,0.441 1.065,0.441c3.104,-0 10.183,-0 13.278,-0c0.396,-0 0.776,-0.158 1.057,-0.438c0.28,-0.281 0.438,-0.661 0.438,-1.057c-0,-6.963 -0,-36.16 -0,-43.051Z" style="fill:#fff;stroke:#fff;stroke-width:1px;"/><path d="M1171.74,928.458c0,-0.807 -0.654,-1.462 -1.462,-1.462c-3.078,0 -10.199,0 -13.313,0c-0.83,0 -1.503,0.673 -1.503,1.503c-0,6.963 -0,36.031 -0,42.999c-0,0.399 0.158,0.782 0.441,1.065c0.282,0.282 0.665,0.441 1.065,0.441c3.104,-0 10.182,-0 13.277,-0c0.397,-0 0.777,-0.158 1.057,-0.438c0.281,-0.281 0.438,-0.661 0.438,-1.057c0,-6.963 0,-36.16 0,-43.051Z" style="fill:#fff;stroke:#fff;stroke-width:1px;"/></g><g><path d="M1144.57,928.458c-0,-0.807 -0.655,-1.462 -1.462,-1.462c-3.078,0 -10.2,0 -13.314,0c-0.83,0 -1.503,0.673 -1.503,1.503c0,6.963 0,36.031 0,42.999c0,0.399 0.159,0.782 0.441,1.065c0.283,0.282 0.666,0.441 1.065,0.441c3.104,-0 10.183,-0 13.278,-0c0.396,-0 0.776,-0.158 1.057,-0.438c0.28,-0.281 0.438,-0.661 0.438,-1.057c-0,-6.963 -0,-36.16 -0,-43.051Z" style="fill:#fff;stroke:#fff;stroke-width:1px;"/><path d="M1171.74,928.458c0,-0.807 -0.654,-1.462 -1.462,-1.462c-3.078,0 -10.199,0 -13.313,0c-0.83,0 -1.503,0.673 -1.503,1.503c-0,6.963 -0,36.031 -0,42.999c-0,0.399 0.158,0.782 0.441,1.065c0.282,0.282 0.665,0.441 1.065,0.441c3.104,-0 10.182,-0 13.277,-0c0.397,-0 0.777,-0.158 1.057,-0.438c0.281,-0.281 0.438,-0.661 0.438,-1.057c0,-6.963 0,-36.16 0,-43.051Z" style="fill:#fff;stroke:#fff;stroke-width:1px;"/></g></g><g><path d="M1400,920c-0,-11.038 -8.962,-20 -20,-20l-60,0c-11.038,0 -20,8.962 -20,20l-0,60c-0,11.038 8.962,20 20,20l60,0c11.038,0 20,-8.962 20,-20l-0,-60Z"/><path d="M1400,920c-0,-11.038 -8.962,-20 -20,-20l-60,0c-11.038,0 -20,8.962 -20,20l-0,60c-0,11.038 8.962,20 20,20l60,0c11.038,0 20,-8.962 20,-20l-0,-60Zm-10,0l-0,60c-0,5.519 -4.481,10 -10,10l-60,0c-5.519,0 -10,-4.481 -10,-10l-0,-60c-0,-5.519 4.481,-10 10,-10c0,0 60,0 60,0c5.519,0 10,4.481 10,10Z"/><path d="M1400,920c-0,-11.038 -8.962,-20 -20,-20l-60,0c-11.038,0 -20,8.962 -20,20l-0,60c-0,11.038 8.962,20 20,20l60,0c11.038,0 20,-8.962 20,-20l-0,-60Z"/><path d="M1400,920c-0,-11.038 -8.962,-20 -20,-20l-60,0c-11.038,0 -20,8.962 -20,20l-0,60c-0,11.038 8.962,20 20,20l60,0c11.038,0 20,-8.962 20,-20l-0,-60Zm-10,0l-0,60c-0,5.519 -4.481,10 -10,10l-60,0c-5.519,0 -10,-4.481 -10,-10l-0,-60c-0,-5.519 4.481,-10 10,-10c0,0 60,0 60,0c5.519,0 10,4.481 10,10Z"/><g><path d="M1363.21,948.61c0.488,0.293 0.787,0.821 0.787,1.39c-0,0.569 -0.299,1.097 -0.787,1.39c-7.077,4.246 -28.353,17.012 -35.393,21.236c-0.467,0.28 -1.049,0.288 -1.523,0.019c-0.474,-0.268 -0.767,-0.771 -0.767,-1.315c-0,-8.409 -0,-34.277 -0,-42.671c-0,-0.542 0.292,-1.043 0.764,-1.31c0.472,-0.267 1.051,-0.26 1.516,0.019c7.031,4.219 28.323,16.994 35.403,21.242Z" style="fill:#fff;stroke:#fff;stroke-width:1px;"/><path d="M1371.74,928.458c0,-0.388 -0.154,-0.759 -0.428,-1.034c-0.274,-0.274 -0.646,-0.428 -1.034,-0.428c-2.038,0 -5.714,0 -7.774,0c-0.83,0 -1.503,0.673 -1.503,1.503c0,6.963 0,36.031 -0,42.999c-0,0.399 0.159,0.782 0.441,1.065c0.282,0.282 0.665,0.441 1.065,0.441c2.049,-0 5.694,-0 7.738,-0c0.397,-0 0.777,-0.158 1.057,-0.438c0.281,-0.281 0.438,-0.661 0.438,-1.057c0,-6.963 0,-36.16 0,-43.051Z" style="fill:#fff;stroke:#fff;stroke-width:1px;"/></g><g><path d="M1363.21,948.61c0.488,0.293 0.787,0.821 0.787,1.39c-0,0.569 -0.299,1.097 -0.787,1.39c-7.077,4.246 -28.353,17.012 -35.393,21.236c-0.467,0.28 -1.049,0.288 -1.523,0.019c-0.474,-0.268 -0.767,-0.771 -0.767,-1.315c-0,-8.409 -0,-34.277 -0,-42.671c-0,-0.542 0.292,-1.043 0.764,-1.31c0.472,-0.267 1.051,-0.26 1.516,0.019c7.031,4.219 28.323,16.994 35.403,21.242Z" style="fill:#fff;stroke:#fff;stroke-width:1px;"/><path d="M1371.74,928.458c0,-0.388 -0.154,-0.759 -0.428,-1.034c-0.274,-0.274 -0.646,-0.428 -1.034,-0.428c-2.038,0 -5.714,0 -7.774,0c-0.83,0 -1.503,0.673 -1.503,1.503c0,6.963 0,36.031 -0,42.999c-0,0.399 0.159,0.782 0.441,1.065c0.282,0.282 0.665,0.441 1.065,0.441c2.049,-0 5.694,-0 7.738,-0c0.397,-0 0.777,-0.158 1.057,-0.438c0.281,-0.281 0.438,-0.661 0.438,-1.057c0,-6.963 0,-36.16 0,-43.051Z" style="fill:#fff;stroke:#fff;stroke-width:1px;"/></g></g></g><g><g><path d="M200,720c-0,-11.038 -8.962,-20 -20,-20l-60,0c-11.038,0 -20,8.962 -20,20l0,60c0,11.038 8.962,20 20,20l60,0c11.038,0 20,-8.962 20,-20l-0,-60Z" style="fill:#fff;stroke:#000;stroke-width:10px;"/><path d="M200,720c-0,-11.038 -8.962,-20 -20,-20l-60,0c-11.038,0 -20,8.962 -20,20l0,60c0,11.038 8.962,20 20,20l60,0c11.038,0 20,-8.962 20,-20l-0,-60Z" style="fill:#fff;stroke:#000;stroke-width:10px;"/><path d="M200,720c-0,-11.038 -8.962,-20 -20,-20l-60,0c-11.038,0 -20,8.962 -20,20l0,60c0,11.038 8.962,20 20,20l60,0c11.038,0 20,-8.962 20,-20l-0,-60Z" style="fill:#fff;stroke:#000;stroke-width:10px;"/><path d="M200,720c-0,-11.038 -8.962,-20 -20,-20l-60,0c-11.038,0 -20,8.962 -20,20l0,60c0,11.038 8.962,20 20,20l60,0c11.038,0 20,-8.962 20,-20l-0,-60Z" style="fill:#fff;stroke:#000;stroke-width:10px;"/><g><path d="M177.683,748.61c0.488,0.293 0.787,0.821 0.787,1.39c0,0.569 -0.299,1.097 -0.787,1.39c-8.38,5.028 -37.057,22.234 -45.393,27.236c-0.467,0.28 -1.049,0.288 -1.523,0.019c-0.474,-0.268 -0.767,-0.771 -0.767,-1.315c0,-9.942 0,-44.747 0,-54.671c0,-0.542 0.292,-1.043 0.764,-1.31c0.472,-0.267 1.051,-0.26 1.516,0.019c8.324,4.995 37.02,22.212 45.403,27.242Z"/></g></g><g><path d="M400,720c-0,-11.038 -8.962,-20 -20,-20l-60,0c-11.038,0 -20,8.962 -20,20l-0,60c-0,11.038 8.962,20 20,20l60,0c11.038,0 20,-8.962 20,-20l-0,-60Z" style="fill:#fff;stroke:#000;stroke-width:10px;"/><path d="M400,720c-0,-11.038 -8.962,-20 -20,-20l-60,0c-11.038,0 -20,8.962 -20,20l-0,60c-0,11.038 8.962,20 20,20l60,0c11.038,0 20,-8.962 20,-20l-0,-60Z" style="fill:#fff;stroke:#000;stroke-width:10px;"/><g><path d="M342.317,748.61c-0.488,0.293 -0.787,0.821 -0.787,1.39c-0,0.569 0.299,1.097 0.787,1.39c7.076,4.246 28.353,17.012 35.393,21.236c0.467,0.28 1.049,0.288 1.523,0.019c0.474,-0.268 0.767,-0.771 0.767,-1.315c-0,-8.409 -0,-34.277 -0,-42.671c-0,-0.542 -0.292,-1.043 -0.764,-1.31c-0.472,-0.267 -1.051,-0.26 -1.516,0.019c-7.031,4.219 -28.323,16.994 -35.403,21.242Z"/><path d="M312.317,748.61c-0.488,0.293 -0.787,0.821 -0.787,1.39c-0,0.569 0.299,1.097 0.787,1.39c7.076,4.246 28.353,17.012 35.393,21.236c0.467,0.28 1.049,0.288 1.523,0.019c0.474,-0.268 0.767,-0.771 0.767,-1.315c-0,-8.409 -0,-34.277 -0,-42.671c-0,-0.542 -0.292,-1.043 -0.764,-1.31c-0.472,-0.267 -1.051,-0.26 -1.516,0.019c-7.031,4.219 -28.323,16.994 -35.403,21.242Z"/></g><g><path d="M342.317,748.61c-0.488,0.293 -0.787,0.821 -0.787,1.39c-0,0.569 0.299,1.097 0.787,1.39c7.076,4.246 28.353,17.012 35.393,21.236c0.467,0.28 1.049,0.288 1.523,0.019c0.474,-0.268 0.767,-0.771 0.767,-1.315c-0,-8.409 -0,-34.277 -0,-42.671c-0,-0.542 -0.292,-1.043 -0.764,-1.31c-0.472,-0.267 -1.051,-0.26 -1.516,0.019c-7.031,4.219 -28.323,16.994 -35.403,21.242Z"/><path d="M312.317,748.61c-0.488,0.293 -0.787,0.821 -0.787,1.39c-0,0.569 0.299,1.097 0.787,1.39c7.076,4.246 28.353,17.012 35.393,21.236c0.467,0.28 1.049,0.288 1.523,0.019c0.474,-0.268 0.767,-0.771 0.767,-1.315c-0,-8.409 -0,-34.277 -0,-42.671c-0,-0.542 -0.292,-1.043 -0.764,-1.31c-0.472,-0.267 -1.051,-0.26 -1.516,0.019c-7.031,4.219 -28.323,16.994 -35.403,21.242Z"/></g></g><g><path d="M600,720c-0,-11.038 -8.962,-20 -20,-20l-60,0c-11.038,0 -20,8.962 -20,20l-0,60c-0,11.038 8.962,20 20,20l60,0c11.038,0 20,-8.962 20,-20l-0,-60Z" style="fill:#fff;stroke:#000;stroke-width:10px;"/><g><path d="M557.683,748.61c0.488,0.293 0.787,0.821 0.787,1.39c0,0.569 -0.299,1.097 -0.787,1.39c-7.076,4.246 -28.353,17.012 -35.393,21.236c-0.467,0.28 -1.049,0.288 -1.523,0.019c-0.474,-0.268 -0.767,-0.771 -0.767,-1.315c0,-8.409 0,-34.277 0,-42.671c0,-0.542 0.292,-1.043 0.764,-1.31c0.472,-0.267 1.051,-0.26 1.516,0.019c7.031,4.219 28.323,16.994 35.403,21.242Z"/><path d="M587.683,748.61c0.488,0.293 0.787,0.821 0.787,1.39c0,0.569 -0.299,1.097 -0.787,1.39c-7.076,4.246 -28.353,17.012 -35.393,21.236c-0.467,0.28 -1.049,0.288 -1.523,0.019c-0.474,-0.268 -0.767,-0.771 -0.767,-1.315c0,-8.409 0,-34.277 0,-42.671c0,-0.542 0.292,-1.043 0.764,-1.31c0.472,-0.267 1.051,-0.26 1.516,0.019c7.031,4.219 28.323,16.994 35.403,21.242Z"/></g><g><path d="M557.683,748.61c0.488,0.293 0.787,0.821 0.787,1.39c0,0.569 -0.299,1.097 -0.787,1.39c-7.076,4.246 -28.353,17.012 -35.393,21.236c-0.467,0.28 -1.049,0.288 -1.523,0.019c-0.474,-0.268 -0.767,-0.771 -0.767,-1.315c0,-8.409 0,-34.277 0,-42.671c0,-0.542 0.292,-1.043 0.764,-1.31c0.472,-0.267 1.051,-0.26 1.516,0.019c7.031,4.219 28.323,16.994 35.403,21.242Z"/><path d="M587.683,748.61c0.488,0.293 0.787,0.821 0.787,1.39c0,0.569 -0.299,1.097 -0.787,1.39c-7.076,4.246 -28.353,17.012 -35.393,21.236c-0.467,0.28 -1.049,0.288 -1.523,0.019c-0.474,-0.268 -0.767,-0.771 -0.767,-1.315c0,-8.409 0,-34.277 0,-42.671c0,-0.542 0.292,-1.043 0.764,-1.31c0.472,-0.267 1.051,-0.26 1.516,0.019c7.031,4.219 28.323,16.994 35.403,21.242Z"/></g></g><g><path d="M800,720c-0,-11.038 -8.962,-20 -20,-20l-60,0c-11.038,0 -20,8.962 -20,20l-0,60c-0,11.038 8.962,20 20,20l60,0c11.038,0 20,-8.962 20,-20l-0,-60Z" style="fill:#fff;stroke:#000;stroke-width:10px;"/><path d="M773.004,728.511c-0,-0.402 -0.16,-0.787 -0.444,-1.071c-0.284,-0.284 -0.669,-0.444 -1.071,-0.444l-42.997,0c-0.397,0 -0.777,0.158 -1.058,0.438c-0.28,0.281 -0.438,0.661 -0.438,1.058l0,43.001c0,0.401 0.159,0.785 0.443,1.068c0.283,0.284 0.667,0.443 1.068,0.443l43.011,-0c0.394,-0 0.772,-0.157 1.051,-0.435c0.278,-0.279 0.435,-0.657 0.435,-1.051l-0,-43.007Z"/><path d="M773.004,728.511c-0,-0.402 -0.16,-0.787 -0.444,-1.071c-0.284,-0.284 -0.669,-0.444 -1.071,-0.444l-42.997,0c-0.397,0 -0.777,0.158 -1.058,0.438c-0.28,0.281 -0.438,0.661 -0.438,1.058l0,43.001c0,0.401 0.159,0.785 0.443,1.068c0.283,0.284 0.667,0.443 1.068,0.443l43.011,-0c0.394,-0 0.772,-0.157 1.051,-0.435c0.278,-0.279 0.435,-0.657 0.435,-1.051l-0,-43.007Z"/></g><g><path d="M1000,720c-0,-11.038 -8.962,-20 -20,-20l-60,0c-11.038,0 -20,8.962 -20,20l-0,60c-0,11.038 8.962,20 20,20l60,0c11.038,0 20,-8.962 20,-20l-0,-60Z" style="fill:#fff;stroke:#000;stroke-width:10px;"/><path d="M934.056,748.61c-0.488,0.293 -0.787,0.821 -0.787,1.39c-0,0.569 0.299,1.097 0.787,1.39c7.077,4.246 28.353,17.012 35.393,21.236c0.467,0.28 1.049,0.288 1.523,0.019c0.474,-0.268 0.767,-0.771 0.767,-1.315c0,-8.409 0,-34.277 0,-42.671c0,-0.542 -0.292,-1.043 -0.764,-1.31c-0.472,-0.267 -1.051,-0.26 -1.516,0.019c-7.031,4.219 -28.323,16.994 -35.403,21.242Z"/><path d="M925.53,728.458c-0,-0.388 0.154,-0.759 0.428,-1.034c0.274,-0.274 0.646,-0.428 1.034,-0.428c2.038,0 5.714,0 7.774,0c0.83,0 1.503,0.673 1.503,1.503c-0,6.963 -0,36.031 -0,42.999c-0,0.399 -0.159,0.782 -0.441,1.065c-0.283,0.282 -0.666,0.441 -1.065,0.441c-2.049,-0 -5.695,-0 -7.738,-0c-0.397,-0 -0.777,-0.158 -1.057,-0.438c-0.281,-0.281 -0.438,-0.661 -0.438,-1.057c-0,-6.963 -0,-36.16 -0,-43.051Z"/><path d="M934.056,748.61c-0.488,0.293 -0.787,0.821 -0.787,1.39c-0,0.569 0.299,1.097 0.787,1.39c7.077,4.246 28.353,17.012 35.393,21.236c0.467,0.28 1.049,0.288 1.523,0.019c0.474,-0.268 0.767,-0.771 0.767,-1.315c0,-8.409 0,-34.277 0,-42.671c0,-0.542 -0.292,-1.043 -0.764,-1.31c-0.472,-0.267 -1.051,-0.26 -1.516,0.019c-7.031,4.219 -28.323,16.994 -35.403,21.242Z"/><path d="M925.53,728.458c-0,-0.388 0.154,-0.759 0.428,-1.034c0.274,-0.274 0.646,-0.428 1.034,-0.428c2.038,0 5.714,0 7.774,0c0.83,0 1.503,0.673 1.503,1.503c-0,6.963 -0,36.031 -0,42.999c-0,0.399 -0.159,0.782 -0.441,1.065c-0.283,0.282 -0.666,0.441 -1.065,0.441c-2.049,-0 -5.695,-0 -7.738,-0c-0.397,-0 -0.777,-0.158 -1.057,-0.438c-0.281,-0.281 -0.438,-0.661 -0.438,-1.057c-0,-6.963 -0,-36.16 -0,-43.051Z"/></g><g><path d="M1200,720c-0,-11.038 -8.962,-20 -20,-20l-60,0c-11.038,0 -20,8.962 -20,20l-0,60c-0,11.038 8.962,20 20,20l60,0c11.038,0 20,-8.962 20,-20l-0,-60Z" style="fill:#fff;stroke:#000;stroke-width:10px;"/><g><path d="M1144.57,728.458c-0,-0.807 -0.655,-1.462 -1.462,-1.462c-3.078,0 -10.2,0 -13.314,0c-0.83,0 -1.503,0.673 -1.503,1.503c0,6.963 0,36.031 0,42.999c0,0.399 0.159,0.782 0.441,1.065c0.283,0.282 0.666,0.441 1.065,0.441c3.104,-0 10.183,-0 13.278,-0c0.396,-0 0.776,-0.158 1.057,-0.438c0.28,-0.281 0.438,-0.661 0.438,-1.057c-0,-6.963 -0,-36.16 -0,-43.051Z"/><path d="M1171.74,728.458c0,-0.807 -0.654,-1.462 -1.462,-1.462c-3.078,0 -10.199,0 -13.313,0c-0.83,0 -1.503,0.673 -1.503,1.503c-0,6.963 -0,36.031 -0,42.999c-0,0.399 0.158,0.782 0.441,1.065c0.282,0.282 0.665,0.441 1.065,0.441c3.104,-0 10.182,-0 13.277,-0c0.397,-0 0.777,-0.158 1.057,-0.438c0.281,-0.281 0.438,-0.661 0.438,-1.057c0,-6.963 0,-36.16 0,-43.051Z"/></g><g><path d="M1144.57,728.458c-0,-0.807 -0.655,-1.462 -1.462,-1.462c-3.078,0 -10.2,0 -13.314,0c-0.83,0 -1.503,0.673 -1.503,1.503c0,6.963 0,36.031 0,42.999c0,0.399 0.159,0.782 0.441,1.065c0.283,0.282 0.666,0.441 1.065,0.441c3.104,-0 10.183,-0 13.278,-0c0.396,-0 0.776,-0.158 1.057,-0.438c0.28,-0.281 0.438,-0.661 0.438,-1.057c-0,-6.963 -0,-36.16 -0,-43.051Z"/><path d="M1171.74,728.458c0,-0.807 -0.654,-1.462 -1.462,-1.462c-3.078,0 -10.199,0 -13.313,0c-0.83,0 -1.503,0.673 -1.503,1.503c-0,6.963 -0,36.031 -0,42.999c-0,0.399 0.158,0.782 0.441,1.065c0.282,0.282 0.665,0.441 1.065,0.441c3.104,-0 10.182,-0 13.277,-0c0.397,-0 0.777,-0.158 1.057,-0.438c0.281,-0.281 0.438,-0.661 0.438,-1.057c0,-6.963 0,-36.16 0,-43.051Z"/></g></g><g><path d="M1400,720c-0,-11.038 -8.962,-20 -20,-20l-60,0c-11.038,0 -20,8.962 -20,20l-0,60c-0,11.038 8.962,20 20,20l60,0c11.038,0 20,-8.962 20,-20l-0,-60Z" style="fill:#fff;stroke:#000;stroke-width:10px;"/><g><path d="M1363.21,748.61c0.488,0.293 0.787,0.821 0.787,1.39c-0,0.569 -0.299,1.097 -0.787,1.39c-7.077,4.246 -28.353,17.012 -35.393,21.236c-0.467,0.28 -1.049,0.288 -1.523,0.019c-0.474,-0.268 -0.767,-0.771 -0.767,-1.315c-0,-8.409 -0,-34.277 -0,-42.671c-0,-0.542 0.292,-1.043 0.764,-1.31c0.472,-0.267 1.051,-0.26 1.516,0.019c7.031,4.219 28.323,16.994 35.403,21.242Z"/><path d="M1371.74,728.458c0,-0.388 -0.154,-0.759 -0.428,-1.034c-0.274,-0.274 -0.646,-0.428 -1.034,-0.428c-2.038,0 -5.714,0 -7.774,0c-0.83,0 -1.503,0.673 -1.503,1.503c0,6.963 0,36.031 -0,42.999c-0,0.399 0.159,0.782 0.441,1.065c0.282,0.282 0.665,0.441 1.065,0.441c2.049,-0 5.694,-0 7.738,-0c0.397,-0 0.777,-0.158 1.057,-0.438c0.281,-0.281 0.438,-0.661 0.438,-1.057c0,-6.963 0,-36.16 0,-43.051Z"/></g><g><path d="M1363.21,748.61c0.488,0.293 0.787,0.821 0.787,1.39c-0,0.569 -0.299,1.097 -0.787,1.39c-7.077,4.246 -28.353,17.012 -35.393,21.236c-0.467,0.28 -1.049,0.288 -1.523,0.019c-0.474,-0.268 -0.767,-0.771 -0.767,-1.315c-0,-8.409 -0,-34.277 -0,-42.671c-0,-0.542 0.292,-1.043 0.764,-1.31c0.472,-0.267 1.051,-0.26 1.516,0.019c7.031,4.219 28.323,16.994 35.403,21.242Z"/><path d="M1371.74,728.458c0,-0.388 -0.154,-0.759 -0.428,-1.034c-0.274,-0.274 -0.646,-0.428 -1.034,-0.428c-2.038,0 -5.714,0 -7.774,0c-0.83,0 -1.503,0.673 -1.503,1.503c0,6.963 0,36.031 -0,42.999c-0,0.399 0.159,0.782 0.441,1.065c0.282,0.282 0.665,0.441 1.065,0.441c2.049,-0 5.694,-0 7.738,-0c0.397,-0 0.777,-0.158 1.057,-0.438c0.281,-0.281 0.438,-0.661 0.438,-1.057c0,-6.963 0,-36.16 0,-43.051Z"/></g></g></g><g><g><path d="M150,500c27.596,0 50,22.404 50,50c0,27.596 -22.404,50 -50,50c-27.596,0 -50,-22.404 -50,-50c0,-27.596 22.404,-50 50,-50Zm27.683,48.61c0.488,0.293 0.787,0.821 0.787,1.39c0,0.569 -0.299,1.097 -0.787,1.39c-8.38,5.028 -37.057,22.234 -45.393,27.236c-0.467,0.28 -1.049,0.288 -1.523,0.019c-0.474,-0.268 -0.767,-0.771 -0.767,-1.315c-0,-9.942 -0,-44.747 -0,-54.671c0,-0.542 0.292,-1.043 0.764,-1.31c0.472,-0.267 1.051,-0.26 1.516,0.019c8.324,4.995 37.02,22.212 45.403,27.242Z" style="fill:#4d7db3;stroke:#000;stroke-width:4px;"/></g><g><path d="M1150,500c27.596,0 50,22.404 50,50c-0,27.596 -22.404,50 -50,50c-27.596,0 -50,-22.404 -50,-50c-0,-27.596 22.404,-50 50,-50Zm-5.427,28.458c-0,-0.807 -0.655,-1.462 -1.462,-1.462c-3.078,0 -10.2,0 -13.314,0c-0.83,0 -1.503,0.673 -1.503,1.503c0,6.963 0,36.031 0,42.999c0,0.399 0.159,0.782 0.441,1.065c0.283,0.282 0.666,0.441 1.065,0.441c3.104,-0 10.183,-0 13.278,-0c0.396,-0 0.776,-0.158 1.057,-0.438c0.28,-0.281 0.438,-0.661 0.438,-1.057c-0,-6.963 -0,-36.16 -0,-43.051Zm27.166,0c0,-0.807 -0.654,-1.462 -1.462,-1.462c-3.078,0 -10.199,0 -13.313,0c-0.83,0 -1.503,0.673 -1.503,1.503c-0,6.963 -0,36.031 -0,42.999c-0,0.399 0.158,0.782 0.441,1.065c0.282,0.282 0.665,0.441 1.065,0.441c3.104,-0 10.182,-0 13.277,-0c0.397,-0 0.777,-0.158 1.057,-0.438c0.281,-0.281 0.438,-0.661 0.438,-1.057c0,-6.963 0,-36.16 0,-43.051Z" style="fill:#4d7db3;stroke:#000;stroke-width:4px;"/></g><g><g><path d="M950,500c27.596,0 50,22.404 50,50c-0,27.596 -22.404,50 -50,50c-27.596,0 -50,-22.404 -50,-50c-0,-27.596 22.404,-50 50,-50Zm-10.817,54.466l-0,17.032c-0,0.399 -0.159,0.782 -0.441,1.065c-0.283,0.282 -0.666,0.441 -1.065,0.441c-2.049,-0 -5.695,-0 -7.738,-0c-0.397,-0 -0.777,-0.158 -1.057,-0.438c-0.281,-0.281 -0.438,-0.661 -0.438,-1.057c-0,-6.963 -0,-36.16 -0,-43.051c-0,-0.388 0.154,-0.759 0.428,-1.034c0.274,-0.274 0.646,-0.428 1.034,-0.428c2.038,0 5.714,0 7.774,0c0.83,0 1.503,0.673 1.503,1.503l-0,17.035l30.276,-18.166c0.465,-0.279 1.044,-0.286 1.516,-0.019c0.472,0.267 0.764,0.768 0.764,1.31c0,8.394 0,34.262 0,42.671c0,0.544 -0.293,1.047 -0.767,1.315c-0.474,0.269 -1.056,0.261 -1.523,-0.019l-30.266,-18.16Z" style="fill:#4d7db3;stroke:#000;stroke-width:4px;"/></g></g><g><g><path d="M1350,500c-27.596,0 -50,22.404 -50,50c0,27.596 22.404,50 50,50c27.596,0 50,-22.404 50,-50c0,-27.596 -22.404,-50 -50,-50Zm10.817,54.466l0,17.032c0,0.399 0.159,0.782 0.441,1.065c0.283,0.282 0.666,0.441 1.065,0.441c2.049,-0 5.695,-0 7.738,-0c0.397,-0 0.777,-0.158 1.057,-0.438c0.281,-0.281 0.438,-0.661 0.438,-1.057c0,-6.963 0,-36.16 0,-43.051c0,-0.388 -0.154,-0.759 -0.428,-1.034c-0.274,-0.274 -0.646,-0.428 -1.034,-0.428c-2.038,0 -5.714,0 -7.774,0c-0.83,0 -1.503,0.673 -1.503,1.503l0,17.035l-30.276,-18.166c-0.465,-0.279 -1.044,-0.286 -1.516,-0.019c-0.472,0.267 -0.764,0.768 -0.764,1.31c-0,8.394 -0,34.262 -0,42.671c-0,0.544 0.293,1.047 0.767,1.315c0.474,0.269 1.056,0.261 1.523,-0.019l30.266,-18.16Z" style="fill:#4d7db3;stroke:#000;stroke-width:4px;"/></g></g><g><g><path d="M750,500c27.596,0 50,22.404 50,50c-0,27.596 -22.404,50 -50,50c-27.596,0 -50,-22.404 -50,-50c-0,-27.596 22.404,-50 50,-50Zm23.004,28.511c-0,-0.402 -0.16,-0.787 -0.444,-1.071c-0.284,-0.284 -0.669,-0.444 -1.071,-0.444l-42.997,0c-0.397,0 -0.777,0.158 -1.058,0.438c-0.28,0.281 -0.438,0.661 -0.438,1.058l0,43.001c0,0.401 0.159,0.785 0.443,1.068c0.283,0.284 0.667,0.443 1.068,0.443l43.011,-0c0.394,-0 0.772,-0.157 1.051,-0.435c0.278,-0.279 0.435,-0.657 0.435,-1.051l-0,-43.007Z" style="fill:#4d7db3;stroke:#000;stroke-width:4px;"/></g></g><g><g><g><path d="M350,500c27.596,0 50,22.404 50,50c0,27.596 -22.404,50 -50,50c-27.596,0 -50,-22.404 -50,-50c0,-27.596 22.404,-50 50,-50Zm-0,56l0,15.33c-0,0.544 -0.293,1.047 -0.767,1.315c-0.474,0.269 -1.056,0.261 -1.523,-0.019c-7.04,-4.224 -28.317,-16.99 -35.393,-21.236c-0.488,-0.293 -0.787,-0.821 -0.787,-1.39c-0,-0.569 0.299,-1.097 0.787,-1.39c7.08,-4.248 28.372,-17.023 35.403,-21.242c0.465,-0.279 1.044,-0.286 1.516,-0.019c0.472,0.267 0.764,0.768 0.764,1.31l-0,15.341l27.72,-16.632c0.465,-0.279 1.044,-0.286 1.516,-0.019c0.472,0.267 0.764,0.768 0.764,1.31c-0,8.394 -0,34.262 0,42.671c-0,0.544 -0.293,1.047 -0.767,1.315c-0.474,0.269 -1.056,0.261 -1.523,-0.019l-27.71,-16.626Z" style="fill:#4d7db3;stroke:#000;stroke-width:4px;"/></g></g></g><g><g><g><path d="M550,500c-27.596,0 -50,22.404 -50,50c0,27.596 22.404,50 50,50c27.596,0 50,-22.404 50,-50c0,-27.596 -22.404,-50 -50,-50Zm0,56l0,15.33c0,0.544 0.293,1.047 0.767,1.315c0.474,0.269 1.056,0.261 1.523,-0.019c7.04,-4.224 28.317,-16.99 35.393,-21.236c0.488,-0.293 0.787,-0.821 0.787,-1.39c0,-0.569 -0.299,-1.097 -0.787,-1.39c-7.08,-4.248 -28.372,-17.023 -35.403,-21.242c-0.465,-0.279 -1.044,-0.286 -1.516,-0.019c-0.472,0.267 -0.764,0.768 -0.764,1.31l0,15.341l-27.72,-16.632c-0.465,-0.279 -1.044,-0.286 -1.516,-0.019c-0.472,0.267 -0.764,0.768 -0.764,1.31c0,8.394 0,34.262 0,42.671c0,0.544 0.293,1.047 0.767,1.315c0.474,0.269 1.056,0.261 1.523,-0.019l27.71,-16.626Z" style="fill:#4d7db3;stroke:#000;stroke-width:4px;"/></g></g></g></g><g><circle cx="1150" cy="150" r="50" style="fill:none;stroke:#000;stroke-width:10px;"/><g><path d="M1144.57,128.458c-0,-0.807 -0.655,-1.462 -1.462,-1.462c-3.078,0 -10.2,0 -13.314,0c-0.83,0 -1.503,0.673 -1.503,1.503c0,6.963 0,36.031 0,42.999c0,0.399 0.159,0.782 0.441,1.065c0.283,0.282 0.666,0.441 1.065,0.441c3.104,-0 10.183,-0 13.278,-0c0.396,-0 0.776,-0.158 1.057,-0.438c0.28,-0.281 0.438,-0.661 0.438,-1.057c-0,-6.963 -0,-36.16 -0,-43.051Z"/><path d="M1171.74,128.458c0,-0.807 -0.654,-1.462 -1.462,-1.462c-3.078,0 -10.199,0 -13.313,0c-0.83,0 -1.503,0.673 -1.503,1.503c-0,6.963 -0,36.031 -0,42.999c-0,0.399 0.158,0.782 0.441,1.065c0.282,0.282 0.665,0.441 1.065,0.441c3.104,-0 10.182,-0 13.277,-0c0.397,-0 0.777,-0.158 1.057,-0.438c0.281,-0.281 0.438,-0.661 0.438,-1.057c0,-6.963 0,-36.16 0,-43.051Z"/></g></g><g><circle cx="1150" cy="350" r="50" style="stroke:#000;stroke-width:10px;"/><g><path d="M1144.57,328.458c-0,-0.807 -0.655,-1.462 -1.462,-1.462c-3.078,0 -10.2,0 -13.314,0c-0.83,0 -1.503,0.673 -1.503,1.503c0,6.963 0,36.031 0,42.999c0,0.399 0.159,0.782 0.441,1.065c0.283,0.282 0.666,0.441 1.065,0.441c3.104,-0 10.183,-0 13.278,-0c0.396,-0 0.776,-0.158 1.057,-0.438c0.28,-0.281 0.438,-0.661 0.438,-1.057c-0,-6.963 -0,-36.16 -0,-43.051Z" style="fill:#fff;"/><path d="M1171.74,328.458c0,-0.807 -0.654,-1.462 -1.462,-1.462c-3.078,0 -10.199,0 -13.313,0c-0.83,0 -1.503,0.673 -1.503,1.503c-0,6.963 -0,36.031 -0,42.999c-0,0.399 0.158,0.782 0.441,1.065c0.282,0.282 0.665,0.441 1.065,0.441c3.104,-0 10.182,-0 13.277,-0c0.397,-0 0.777,-0.158 1.057,-0.438c0.281,-0.281 0.438,-0.661 0.438,-1.057c0,-6.963 0,-36.16 0,-43.051Z" style="fill:#fff;"/></g></g><g><circle cx="950" cy="150" r="50" style="fill:none;stroke:#000;stroke-width:10px;"/><g><path d="M934.056,148.61c-0.488,0.293 -0.787,0.821 -0.787,1.39c-0,0.569 0.299,1.097 0.787,1.39c7.077,4.246 28.353,17.012 35.393,21.236c0.467,0.28 1.049,0.288 1.523,0.019c0.474,-0.268 0.767,-0.771 0.767,-1.315c0,-8.409 0,-34.277 0,-42.671c0,-0.542 -0.292,-1.043 -0.764,-1.31c-0.472,-0.267 -1.051,-0.26 -1.516,0.019c-7.031,4.219 -28.323,16.994 -35.403,21.242Z"/><path d="M925.53,128.458c-0,-0.388 0.154,-0.759 0.428,-1.034c0.274,-0.274 0.646,-0.428 1.034,-0.428c2.038,0 5.714,0 7.774,0c0.83,0 1.503,0.673 1.503,1.503c-0,6.963 -0,36.031 -0,42.999c-0,0.399 -0.159,0.782 -0.441,1.065c-0.283,0.282 -0.666,0.441 -1.065,0.441c-2.049,-0 -5.695,-0 -7.738,-0c-0.397,-0 -0.777,-0.158 -1.057,-0.438c-0.281,-0.281 -0.438,-0.661 -0.438,-1.057c-0,-6.963 -0,-36.16 -0,-43.051Z"/></g></g><g><circle cx="950" cy="350" r="50" style="stroke:#000;stroke-width:10px;"/><g><path d="M934.056,348.61c-0.488,0.293 -0.787,0.821 -0.787,1.39c-0,0.569 0.299,1.097 0.787,1.39c7.077,4.246 28.353,17.012 35.393,21.236c0.467,0.28 1.049,0.288 1.523,0.019c0.474,-0.268 0.767,-0.771 0.767,-1.315c0,-8.409 0,-34.277 0,-42.671c0,-0.542 -0.292,-1.043 -0.764,-1.31c-0.472,-0.267 -1.051,-0.26 -1.516,0.019c-7.031,4.219 -28.323,16.994 -35.403,21.242Z" style="fill:#fff;"/><path d="M925.53,328.458c-0,-0.388 0.154,-0.759 0.428,-1.034c0.274,-0.274 0.646,-0.428 1.034,-0.428c2.038,0 5.714,0 7.774,0c0.83,0 1.503,0.673 1.503,1.503c-0,6.963 -0,36.031 -0,42.999c-0,0.399 -0.159,0.782 -0.441,1.065c-0.283,0.282 -0.666,0.441 -1.065,0.441c-2.049,-0 -5.695,-0 -7.738,-0c-0.397,-0 -0.777,-0.158 -1.057,-0.438c-0.281,-0.281 -0.438,-0.661 -0.438,-1.057c-0,-6.963 -0,-36.16 -0,-43.051Z" style="fill:#fff;"/></g></g><g><circle cx="1350" cy="150" r="50" style="fill:none;stroke:#000;stroke-width:10px;"/><g><path d="M1363.21,148.61c0.488,0.293 0.787,0.821 0.787,1.39c-0,0.569 -0.299,1.097 -0.787,1.39c-7.077,4.246 -28.353,17.012 -35.393,21.236c-0.467,0.28 -1.049,0.288 -1.523,0.019c-0.474,-0.268 -0.767,-0.771 -0.767,-1.315c-0,-8.409 -0,-34.277 -0,-42.671c-0,-0.542 0.292,-1.043 0.764,-1.31c0.472,-0.267 1.051,-0.26 1.516,0.019c7.031,4.219 28.323,16.994 35.403,21.242Z"/><path d="M1371.74,128.458c0,-0.388 -0.154,-0.759 -0.428,-1.034c-0.274,-0.274 -0.646,-0.428 -1.034,-0.428c-2.038,0 -5.714,0 -7.774,0c-0.83,0 -1.503,0.673 -1.503,1.503c0,6.963 0,36.031 -0,42.999c-0,0.399 0.159,0.782 0.441,1.065c0.282,0.282 0.665,0.441 1.065,0.441c2.049,-0 5.694,-0 7.738,-0c0.397,-0 0.777,-0.158 1.057,-0.438c0.281,-0.281 0.438,-0.661 0.438,-1.057c0,-6.963 0,-36.16 0,-43.051Z"/></g></g><g><circle cx="1550" cy="150" r="50" style="fill:none;stroke:#000;stroke-width:10px;"/><g><path d="M1528.46,126.895c-0.388,0 -0.759,0.154 -1.034,0.429c-0.274,0.274 -0.428,0.646 -0.428,1.033c0,2.038 0,5.714 0,7.774c0,0.83 0.673,1.503 1.503,1.503c6.963,0 36.031,0 42.999,0c0.399,0 0.782,-0.158 1.065,-0.441c0.282,-0.282 0.441,-0.665 0.441,-1.064c-0,-2.05 -0,-5.695 -0,-7.739c-0,-0.396 -0.158,-0.776 -0.438,-1.057c-0.281,-0.28 -0.661,-0.438 -1.057,-0.438c-6.963,0 -36.16,0 -43.051,0Z"/><path d="M1571.54,173.105c0.388,-0 0.759,-0.154 1.034,-0.429c0.274,-0.274 0.428,-0.646 0.428,-1.033c-0,-2.038 -0,-5.714 -0,-7.774c-0,-0.83 -0.673,-1.503 -1.503,-1.503c-6.963,-0 -36.031,-0 -42.999,-0c-0.399,-0 -0.782,0.158 -1.065,0.441c-0.282,0.282 -0.441,0.665 -0.441,1.064c0,2.05 0,5.695 0,7.739c0,0.396 0.158,0.776 0.438,1.057c0.281,0.28 0.661,0.438 1.057,0.438c6.963,-0 36.16,-0 43.051,-0Z"/><path d="M1571.54,155.37c0.388,-0 0.759,-0.154 1.034,-0.429c0.274,-0.274 0.428,-0.646 0.428,-1.033c-0,-2.038 -0,-5.714 -0,-7.774c-0,-0.831 -0.673,-1.504 -1.503,-1.504c-6.963,0 -36.031,0 -42.999,0c-0.399,0 -0.782,0.159 -1.065,0.442c-0.282,0.282 -0.441,0.665 -0.441,1.064c0,2.05 0,5.695 0,7.739c0,0.396 0.158,0.776 0.438,1.057c0.281,0.28 0.661,0.438 1.057,0.438c6.963,-0 36.16,-0 43.051,-0Z"/></g></g><g><g><circle cx="1550" cy="350" r="50" style="stroke:#000;stroke-width:10px;"/><g><path d="M1528.46,326.895c-0.388,0 -0.759,0.154 -1.034,0.429c-0.274,0.274 -0.428,0.646 -0.428,1.033c0,2.038 0,5.714 0,7.774c0,0.83 0.673,1.503 1.503,1.503c6.963,0 36.031,0 42.999,0c0.399,0 0.782,-0.158 1.065,-0.441c0.282,-0.282 0.441,-0.665 0.441,-1.064c-0,-2.05 -0,-5.695 -0,-7.739c-0,-0.396 -0.158,-0.776 -0.438,-1.057c-0.281,-0.28 -0.661,-0.438 -1.057,-0.438c-6.963,0 -36.16,0 -43.051,0Z" style="fill:#fff;"/><path d="M1571.54,373.105c0.388,-0 0.759,-0.154 1.034,-0.429c0.274,-0.274 0.428,-0.646 0.428,-1.033c-0,-2.038 -0,-5.714 -0,-7.774c-0,-0.83 -0.673,-1.503 -1.503,-1.503c-6.963,-0 -36.031,-0 -42.999,-0c-0.399,-0 -0.782,0.158 -1.065,0.441c-0.282,0.282 -0.441,0.665 -0.441,1.064c0,2.05 0,5.695 0,7.739c0,0.396 0.158,0.776 0.438,1.057c0.281,0.28 0.661,0.438 1.057,0.438c6.963,-0 36.16,-0 43.051,-0Z" style="fill:#fff;"/><path d="M1571.54,355.37c0.388,-0 0.759,-0.154 1.034,-0.429c0.274,-0.274 0.428,-0.646 0.428,-1.033c-0,-2.038 -0,-5.714 -0,-7.774c-0,-0.831 -0.673,-1.504 -1.503,-1.504c-6.963,0 -36.031,0 -42.999,0c-0.399,0 -0.782,0.159 -1.065,0.442c-0.282,0.282 -0.441,0.665 -0.441,1.064c0,2.05 0,5.695 0,7.739c0,0.396 0.158,0.776 0.438,1.057c0.281,0.28 0.661,0.438 1.057,0.438c6.963,-0 36.16,-0 43.051,-0Z" style="fill:#fff;"/></g></g></g><g><circle cx="1350" cy="350" r="50" style="stroke:#000;stroke-width:10px;"/><g><path d="M1363.21,348.61c0.488,0.293 0.787,0.821 0.787,1.39c-0,0.569 -0.299,1.097 -0.787,1.39c-7.077,4.246 -28.353,17.012 -35.393,21.236c-0.467,0.28 -1.049,0.288 -1.523,0.019c-0.474,-0.268 -0.767,-0.771 -0.767,-1.315c-0,-8.409 -0,-34.277 -0,-42.671c-0,-0.542 0.292,-1.043 0.764,-1.31c0.472,-0.267 1.051,-0.26 1.516,0.019c7.031,4.219 28.323,16.994 35.403,21.242Z" style="fill:#fff;"/><path d="M1371.74,328.458c0,-0.388 -0.154,-0.759 -0.428,-1.034c-0.274,-0.274 -0.646,-0.428 -1.034,-0.428c-2.038,0 -5.714,0 -7.774,0c-0.83,0 -1.503,0.673 -1.503,1.503c0,6.963 0,36.031 -0,42.999c-0,0.399 0.159,0.782 0.441,1.065c0.282,0.282 0.665,0.441 1.065,0.441c2.049,-0 5.694,-0 7.738,-0c0.397,-0 0.777,-0.158 1.057,-0.438c0.281,-0.281 0.438,-0.661 0.438,-1.057c0,-6.963 0,-36.16 0,-43.051Z" style="fill:#fff;"/></g></g><g><circle cx="750" cy="150" r="50" style="fill:none;stroke:#000;stroke-width:10px;"/><path d="M773.004,128.511c-0,-0.402 -0.16,-0.787 -0.444,-1.071c-0.284,-0.284 -0.669,-0.444 -1.071,-0.444l-42.997,0c-0.397,0 -0.777,0.158 -1.058,0.438c-0.28,0.281 -0.438,0.661 -0.438,1.058l0,43.001c0,0.401 0.159,0.785 0.443,1.068c0.283,0.284 0.667,0.443 1.068,0.443l43.011,-0c0.394,-0 0.772,-0.157 1.051,-0.435c0.278,-0.279 0.435,-0.657 0.435,-1.051l-0,-43.007Z"/></g><g><circle cx="750" cy="350" r="50" style="stroke:#000;stroke-width:10px;"/><path d="M773.004,328.511c-0,-0.402 -0.16,-0.787 -0.444,-1.071c-0.284,-0.284 -0.669,-0.444 -1.071,-0.444l-42.997,0c-0.397,0 -0.777,0.158 -1.058,0.438c-0.28,0.281 -0.438,0.661 -0.438,1.058l0,43.001c0,0.401 0.159,0.785 0.443,1.068c0.283,0.284 0.667,0.443 1.068,0.443l43.011,-0c0.394,-0 0.772,-0.157 1.051,-0.435c0.278,-0.279 0.435,-0.657 0.435,-1.051c-0,-6.928 -0,-36.018 -0,-43.007Z" style="fill:#fff;"/></g><g><circle cx="550" cy="150" r="50" style="fill:none;stroke:#000;stroke-width:10px;"/><g><path d="M557.683,148.61c0.488,0.293 0.787,0.821 0.787,1.39c0,0.569 -0.299,1.097 -0.787,1.39c-7.076,4.246 -28.353,17.012 -35.393,21.236c-0.467,0.28 -1.049,0.288 -1.523,0.019c-0.474,-0.268 -0.767,-0.771 -0.767,-1.315c0,-8.409 0,-34.277 0,-42.671c0,-0.542 0.292,-1.043 0.764,-1.31c0.472,-0.267 1.051,-0.26 1.516,0.019c7.031,4.219 28.323,16.994 35.403,21.242Z"/><path d="M587.683,148.61c0.488,0.293 0.787,0.821 0.787,1.39c0,0.569 -0.299,1.097 -0.787,1.39c-7.076,4.246 -28.353,17.012 -35.393,21.236c-0.467,0.28 -1.049,0.288 -1.523,0.019c-0.474,-0.268 -0.767,-0.771 -0.767,-1.315c0,-8.409 0,-34.277 0,-42.671c0,-0.542 0.292,-1.043 0.764,-1.31c0.472,-0.267 1.051,-0.26 1.516,0.019c7.031,4.219 28.323,16.994 35.403,21.242Z"/></g></g><g><circle cx="550" cy="350" r="50" style="stroke:#000;stroke-width:10px;"/><g><path d="M557.683,348.61c0.488,0.293 0.787,0.821 0.787,1.39c0,0.569 -0.299,1.097 -0.787,1.39c-7.076,4.246 -28.353,17.012 -35.393,21.236c-0.467,0.28 -1.049,0.288 -1.523,0.019c-0.474,-0.268 -0.767,-0.771 -0.767,-1.315c0,-8.409 0,-34.277 0,-42.671c0,-0.542 0.292,-1.043 0.764,-1.31c0.472,-0.267 1.051,-0.26 1.516,0.019c7.031,4.219 28.323,16.994 35.403,21.242Z" style="fill:#fff;"/><path d="M587.683,348.61c0.488,0.293 0.787,0.821 0.787,1.39c0,0.569 -0.299,1.097 -0.787,1.39c-7.076,4.246 -28.353,17.012 -35.393,21.236c-0.467,0.28 -1.049,0.288 -1.523,0.019c-0.474,-0.268 -0.767,-0.771 -0.767,-1.315c0,-8.409 0,-34.277 0,-42.671c0,-0.542 0.292,-1.043 0.764,-1.31c0.472,-0.267 1.051,-0.26 1.516,0.019c7.031,4.219 28.323,16.994 35.403,21.242Z" style="fill:#fff;"/></g></g><g><circle cx="350" cy="150" r="50" style="fill:none;stroke:#000;stroke-width:10px;"/><g><path d="M342.317,148.61c-0.488,0.293 -0.787,0.821 -0.787,1.39c-0,0.569 0.299,1.097 0.787,1.39c7.076,4.246 28.353,17.012 35.393,21.236c0.467,0.28 1.049,0.288 1.523,0.019c0.474,-0.268 0.767,-0.771 0.767,-1.315c-0,-8.409 -0,-34.277 -0,-42.671c-0,-0.542 -0.292,-1.043 -0.764,-1.31c-0.472,-0.267 -1.051,-0.26 -1.516,0.019c-7.031,4.219 -28.323,16.994 -35.403,21.242Z"/><path d="M312.317,148.61c-0.488,0.293 -0.787,0.821 -0.787,1.39c-0,0.569 0.299,1.097 0.787,1.39c7.076,4.246 28.353,17.012 35.393,21.236c0.467,0.28 1.049,0.288 1.523,0.019c0.474,-0.268 0.767,-0.771 0.767,-1.315c-0,-8.409 -0,-34.277 -0,-42.671c-0,-0.542 -0.292,-1.043 -0.764,-1.31c-0.472,-0.267 -1.051,-0.26 -1.516,0.019c-7.031,4.219 -28.323,16.994 -35.403,21.242Z"/></g></g><g><circle cx="350" cy="350" r="50" style="stroke:#000;stroke-width:10px;"/><g><path d="M342.317,348.61c-0.488,0.293 -0.787,0.821 -0.787,1.39c-0,0.569 0.299,1.097 0.787,1.39c7.076,4.246 28.353,17.012 35.393,21.236c0.467,0.28 1.049,0.288 1.523,0.019c0.474,-0.268 0.767,-0.771 0.767,-1.315c-0,-8.409 -0,-34.277 -0,-42.671c-0,-0.542 -0.292,-1.043 -0.764,-1.31c-0.472,-0.267 -1.051,-0.26 -1.516,0.019c-7.031,4.219 -28.323,16.994 -35.403,21.242Z" style="fill:#fff;"/><path d="M312.317,348.61c-0.488,0.293 -0.787,0.821 -0.787,1.39c-0,0.569 0.299,1.097 0.787,1.39c7.076,4.246 28.353,17.012 35.393,21.236c0.467,0.28 1.049,0.288 1.523,0.019c0.474,-0.268 0.767,-0.771 0.767,-1.315c-0,-8.409 -0,-34.277 -0,-42.671c-0,-0.542 -0.292,-1.043 -0.764,-1.31c-0.472,-0.267 -1.051,-0.26 -1.516,0.019c-7.031,4.219 -28.323,16.994 -35.403,21.242Z" style="fill:#fff;"/></g></g><g><circle cx="150" cy="350" r="50" style="stroke:#000;stroke-width:10px;"/><path d="M177.683,348.61c0.488,0.293 0.787,0.821 0.787,1.39c0,0.569 -0.299,1.097 -0.787,1.39c-8.38,5.028 -37.057,22.234 -45.393,27.236c-0.467,0.28 -1.049,0.288 -1.523,0.019c-0.474,-0.268 -0.767,-0.771 -0.767,-1.315c-0,-9.942 -0,-44.747 -0,-54.671c0,-0.542 0.292,-1.043 0.764,-1.31c0.472,-0.267 1.051,-0.26 1.516,0.019c8.324,4.995 37.02,22.212 45.403,27.242Z" style="fill:#fff;"/></g><g><circle cx="150" cy="150" r="50" style="fill:none;stroke:#000;stroke-width:10px;"/><path d="M177.683,148.61c0.488,0.293 0.787,0.821 0.787,1.39c0,0.569 -0.299,1.097 -0.787,1.39c-8.38,5.028 -37.057,22.234 -45.393,27.236c-0.467,0.28 -1.049,0.288 -1.523,0.019c-0.474,-0.268 -0.767,-0.771 -0.767,-1.315c0,-9.942 0,-44.747 0,-54.671c0,-0.542 0.292,-1.043 0.764,-1.31c0.472,-0.267 1.051,-0.26 1.516,0.019c8.324,4.995 37.02,22.212 45.403,27.242Z"/></g></svg>