<?xml version="1.0" encoding="UTF-8" standalone="no"?><!DOCTYPE svg PUBLIC "-//W3C//DTD SVG 1.1//EN" "http://www.w3.org/Graphics/SVG/1.1/DTD/svg11.dtd"><svg width="100%" height="100%" viewBox="0 0 110 110" version="1.1" xmlns="http://www.w3.org/2000/svg" xmlns:xlink="http://www.w3.org/1999/xlink" xml:space="preserve" xmlns:serif="http://www.serif.com/" style="fill-rule:evenodd;clip-rule:evenodd;stroke-linecap:round;stroke-linejoin:round;stroke-miterlimit:1.5;"><g><circle cx="55" cy="55" r="50" style="stroke:#000;stroke-width:10px;"/><g><path d="M49.573,33.458c-0,-0.807 -0.655,-1.462 -1.462,-1.462c-3.078,0 -10.2,0 -13.314,0c-0.83,0 -1.503,0.673 -1.503,1.503c0,6.963 0,36.031 0,42.999c0,0.399 0.159,0.782 0.441,1.065c0.283,0.282 0.666,0.441 1.065,0.441c3.104,-0 10.183,-0 13.278,-0c0.396,-0 0.776,-0.158 1.057,-0.438c0.28,-0.281 0.438,-0.661 0.438,-1.057c-0,-6.963 -0,-36.16 -0,-43.051Z" style="fill:#fff;"/><path d="M76.739,33.458c0,-0.807 -0.654,-1.462 -1.462,-1.462c-3.078,0 -10.199,0 -13.313,0c-0.83,0 -1.503,0.673 -1.503,1.503c-0,6.963 -0,36.031 -0,42.999c-0,0.399 0.158,0.782 0.441,1.065c0.282,0.282 0.665,0.441 1.065,0.441c3.104,-0 10.182,-0 13.277,-0c0.397,-0 0.777,-0.158 1.057,-0.438c0.281,-0.281 0.438,-0.661 0.438,-1.057c0,-6.963 0,-36.16 0,-43.051Z" style="fill:#fff;"/></g></g></svg>