<?xml version="1.0" encoding="UTF-8" standalone="no"?><!DOCTYPE svg PUBLIC "-//W3C//DTD SVG 1.1//EN" "http://www.w3.org/Graphics/SVG/1.1/DTD/svg11.dtd"><svg width="100%" height="100%" viewBox="0 0 110 110" version="1.1" xmlns="http://www.w3.org/2000/svg" xmlns:xlink="http://www.w3.org/1999/xlink" xml:space="preserve" xmlns:serif="http://www.serif.com/" style="fill-rule:evenodd;clip-rule:evenodd;stroke-linecap:round;stroke-linejoin:round;stroke-miterlimit:1.5;"><g><circle cx="55" cy="55" r="50" style="stroke:#000;stroke-width:10px;"/><g><path d="M39.056,53.61c-0.488,0.293 -0.787,0.821 -0.787,1.39c-0,0.569 0.299,1.097 0.787,1.39c7.077,4.246 28.353,17.012 35.393,21.236c0.467,0.28 1.049,0.288 1.523,0.019c0.474,-0.268 0.767,-0.771 0.767,-1.315c0,-8.409 0,-34.277 0,-42.671c0,-0.542 -0.292,-1.043 -0.764,-1.31c-0.472,-0.267 -1.051,-0.26 -1.516,0.019c-7.031,4.219 -28.323,16.994 -35.403,21.242Z" style="fill:#fff;"/><path d="M30.53,33.458c-0,-0.388 0.154,-0.759 0.428,-1.034c0.274,-0.274 0.646,-0.428 1.034,-0.428c2.038,0 5.714,0 7.774,0c0.83,0 1.503,0.673 1.503,1.503c-0,6.963 -0,36.031 -0,42.999c-0,0.399 -0.159,0.782 -0.441,1.065c-0.283,0.282 -0.666,0.441 -1.065,0.441c-2.049,-0 -5.695,-0 -7.738,-0c-0.397,-0 -0.777,-0.158 -1.057,-0.438c-0.281,-0.281 -0.438,-0.661 -0.438,-1.057c-0,-6.963 -0,-36.16 -0,-43.051Z" style="fill:#fff;"/></g></g></svg>