<?xml version="1.0" encoding="UTF-8" standalone="no"?><!DOCTYPE svg PUBLIC "-//W3C//DTD SVG 1.1//EN" "http://www.w3.org/Graphics/SVG/1.1/DTD/svg11.dtd"><svg width="100%" height="100%" viewBox="0 0 110 110" version="1.1" xmlns="http://www.w3.org/2000/svg" xmlns:xlink="http://www.w3.org/1999/xlink" xml:space="preserve" xmlns:serif="http://www.serif.com/" style="fill-rule:evenodd;clip-rule:evenodd;stroke-linecap:round;stroke-linejoin:round;stroke-miterlimit:1.5;"><g><circle cx="55" cy="55" r="50" style="fill:none;stroke:#000;stroke-width:10px;"/><path d="M78.004,33.511c-0,-0.402 -0.16,-0.787 -0.444,-1.071c-0.284,-0.284 -0.669,-0.444 -1.071,-0.444l-42.997,0c-0.397,0 -0.777,0.158 -1.058,0.438c-0.28,0.281 -0.438,0.661 -0.438,1.058l0,43.001c0,0.401 0.159,0.785 0.443,1.068c0.283,0.284 0.667,0.443 1.068,0.443l43.011,-0c0.394,-0 0.772,-0.157 1.051,-0.435c0.278,-0.279 0.435,-0.657 0.435,-1.051l-0,-43.007Z"/></g></svg>