<?xml version="1.0" encoding="UTF-8" standalone="no"?><!DOCTYPE svg PUBLIC "-//W3C//DTD SVG 1.1//EN" "http://www.w3.org/Graphics/SVG/1.1/DTD/svg11.dtd"><svg width="100%" height="100%" viewBox="0 0 105 63" version="1.1" xmlns="http://www.w3.org/2000/svg" xmlns:xlink="http://www.w3.org/1999/xlink" xml:space="preserve" xmlns:serif="http://www.serif.com/" style="fill-rule:evenodd;clip-rule:evenodd;stroke-linejoin:round;stroke-miterlimit:2;"><path d="M3.16,56.839c-0,1.404 0.957,1.732 2.095,1.732c1.822,-0 3.598,-0.094 5.283,-0.656c0.137,0 1.139,-0.374 1.366,-0.374c0.228,-0.094 2.05,-0.187 2.232,-0.375c0.228,0 1.275,-1.263 1.685,-1.638c1.503,-1.732 2.095,-4.119 2.095,-6.366c-0,-1.357 -0.41,-2.761 -0.41,-4.306l-0,-0.374c-0,-0.332 0.091,-0.754 0.638,-0.988c0.866,0 4.237,-0.561 5.058,-0.561c0.091,-0 1.275,-0.141 1.777,-0.141c0.455,0 1.731,0.141 1.822,0.141c0.091,-0 0.957,0.28 1.048,0.28l2.552,0c0.091,0 1.276,0.609 1.367,0.796l1.367,0c0.091,0 0.911,0.234 0.957,0.234c0.273,0.094 2.46,0.234 2.643,0.422c0.41,0.093 3.599,1.498 4.009,1.545c0.183,0.187 1.185,0.374 1.276,0.421c0.319,0 1.003,0.375 1.003,0.375c3.189,1.545 6.47,3.184 9.659,4.729c0.183,0.093 1.595,0.515 2.005,0.749c1.048,0.327 5.605,1.404 6.653,1.685l1.595,0c0.82,0 1.595,-0.047 2.005,-0.702c0.182,-0.14 0.592,-0.936 0.683,-0.983c0.684,-0.983 1.504,-4.355 1.64,-4.448c3.144,-0.234 4.557,-0.609 6.332,-3.044l0,-3.51c0,-0.094 -0.227,-0.515 -0.227,-0.702c-0,0 -0.183,-0.421 -0.183,-0.561c0,-0.094 0.183,-0.655 0.183,-0.749c2.731,0 5.28,-0.468 5.28,-3.79c0,-2.154 -1.456,-2.998 -1.456,-4.03c-0,-0.422 -0,-0.61 0.409,-1.079l2.962,0c0.41,0 3.874,0.657 4.284,0.751c0.456,-0 3.601,0.328 3.965,0.328c0.411,0.093 3.328,0.654 3.783,0.654l6.237,-0c1.139,-0.561 4.328,-2.384 4.328,-4.115c-0,-0.327 -0.228,-1.826 -0.319,-1.966c-0.228,-0.281 -1.367,-1.405 -1.686,-1.732c-1.184,-0.937 -3.188,-1.92 -4.644,-1.967l-1.776,0c-1.092,-0.281 -2.003,-0.983 -3.279,-1.077c-1.185,-0.234 -4.421,-0.562 -4.603,-0.655c-0.183,-0 -2.097,-0.984 -2.371,-1.077c-0.045,-0.141 -1.732,-0.328 -2.005,-0.328c-0,-0.094 -0.729,-0.234 -0.912,-0.421c-0.091,-0 -1.23,-0.515 -1.321,-0.656l-2.643,0c-0.318,0 -1.912,-0.468 -2.321,-0.562c-2.869,-1.17 -5.784,-2.247 -8.427,-4.214c0,0 -0.41,-0.608 -0.546,-0.655c-2.734,-1.732 -7.063,-2.809 -10.025,-2.809c-2.141,-0 -3.827,-0 -5.832,0.749c-0.456,-0 -3.372,1.592 -3.828,1.638c-0.091,0.188 -1.139,0.422 -1.139,0.422c-0.182,0.047 -0.957,0.655 -1.048,0.655c-0.319,0.234 -1.276,0.609 -1.412,0.656c-0.092,-0 -1.185,0.374 -1.322,0.374c-0.182,0.188 -2.734,0.937 -3.053,0.937c-3.918,1.311 -8.156,1.498 -12.166,2.435l-0.319,-0c-0.319,-0.094 -1.868,-0.188 -1.959,-0.188c-0.137,-0.187 -0.911,-0.327 -1.002,-0.515c-0.319,0 -2.188,-0.14 -2.324,-0.234c-0.547,-0.093 -2.734,-0.796 -2.962,-1.077c-0.729,-0.234 -0.729,-0.515 -0.729,-1.17l0,-0.562c0,-0.047 0.319,-0.843 0.319,-0.983c-0,-3.465 -1.184,-7.585 -3.962,-9.88c-0.592,-0.515 -2.687,-1.638 -3.325,-1.966c-0.091,-0.094 -0.956,-0.702 -1.047,-0.702c-0.091,-0.047 -0.638,-0.422 -0.638,-0.422l-3.598,0.422c-0.819,0.093 -1.366,2.434 -1.366,2.762l0,0.234c0.091,0.328 0.319,1.732 0.319,2.06l-0,12.221c0.319,1.217 0.41,2.247 0.41,3.277c0.319,0 0.865,-0.094 0.956,-0.421c0.091,-0.515 0.228,-2.341 0.319,-2.856c0,-0.422 0.319,-1.826 0.319,-2.014c-0,-0.093 0.273,-0.234 0.273,-0.421l0.41,-0c0.091,0.187 0.911,0.421 1.002,0.421c3.097,0.984 5.784,0.89 6.239,4.87l0,3.371c-0.091,0.843 -1.047,1.451 -1.047,2.481c2.732,0 3.552,-2.809 3.962,-5.197c-0,-0.234 -0.091,-0.936 -0.273,-0.983c-0,-0.281 -0.456,-1.264 -0.638,-1.498c-0,-0.094 0.228,-0.515 0.319,-0.656l0.319,0c0.865,0 1.275,0.562 1.958,0.656l2.096,-0c0,-0 0.593,0.327 0.593,0.421c0.41,0 1.503,0.328 1.685,0.328l4.01,-0c0.182,-0 1.458,0.328 1.686,0.328c0,-0 0.319,0.14 0.41,0.14c1.185,-0 2.461,-0.702 3.509,-0.796c0.638,-0.094 5.377,-0.609 6.014,-0.655c0.137,-0 1.231,-0.281 1.686,-0.422c1.595,-0.374 3.372,-1.17 5.013,-1.311c0.82,-0.093 4.784,-0.609 5.65,-0.749l2.551,0c1.686,0.14 9.387,0.656 10.982,0.749c1.913,0.843 3.918,0.843 5.923,1.311c0.41,0.234 3.689,1.264 4.007,1.405c1.639,0.468 3.369,0.562 4.963,1.077c1.778,0.421 3.966,1.357 5.652,1.732l1.823,0c0.684,0 1.368,0.047 2.142,0.656c1.231,0.702 1.824,2.622 1.824,3.886l-0,0.468c-0,0.328 -0,0.421 -0.502,0.655c-0.319,0.328 -1.777,1.077 -1.96,1.123l-0.957,0c-0.182,-0.046 -1.276,-0.42 -1.367,-0.42l-2.325,-0c-3.281,-0.188 -6.561,-1.358 -10.112,-1.358l-0.683,-0c-0.637,-0 -1.229,0.094 -1.229,0.983c-0.001,3.226 4.419,2.899 4.419,5.383l0,0.141c-0.82,1.405 -1.595,1.639 -3.19,1.639c-1.594,-0 -2.733,-1.31 -4.51,-1.31c-0.956,-0 -1.594,0.655 -1.594,1.684c0,2.761 4.007,3.416 4.007,6.13c0,1.451 -1.593,1.638 -2.55,2.059l-0.546,0c-0.091,0 -0.82,-0.608 -0.911,-0.749c-0.774,-0.281 -2.688,-0.983 -3.463,-0.983c-1.185,0.005 -2.232,0.52 -2.232,1.924c-0,1.357 1.321,2.294 1.321,3.417c-0,1.264 -2.095,1.264 -2.825,1.264l-0.865,-0c-0.319,-0 -0.821,-0 -1.14,-0.375c-0.091,-0.187 -0.637,-0.608 -0.729,-0.702c-0.227,0 -1.412,-0.328 -1.686,-0.328c-1.321,-0.327 -1.686,-0.889 -2.642,-1.731c-0.319,-0.234 -1.595,-1.311 -1.595,-1.311c-0.274,-0.187 -1.869,-0.608 -2.005,-0.655c-0.182,-0.187 -0.638,-0.515 -0.729,-0.796l-0,-0.281c0.091,-0.234 0.455,-0.561 0.729,-0.749c-0.274,-0.515 -0.729,-0.702 -1.139,-0.702l-0.228,0c-1.458,0 -2.78,0.468 -4.238,0.468c-0.501,0 -0.501,-0.281 -0.501,-0.655c-0,-0.234 -0,-0.655 -0.228,-0.842c-0.228,-0.094 -2.187,-0.235 -2.324,-0.235c-1.139,-0.281 -2.369,-1.077 -3.372,-1.405l0,-0.188c0,-1.218 4.785,-1.546 4.785,-3.28c-0,-0.093 -0,-0.328 -0.183,-0.328c-0.091,-0.093 -0.592,-0.234 -0.82,-0.234l-0.182,0c-1.777,0.141 -3.372,1.265 -5.377,1.265c-1.094,0 -2.096,-0.375 -3.19,-0.375c-1.367,0 -2.096,0.75 -3.599,0.75c-0,-0.094 -0.092,-0.281 -0.092,-0.375c0.41,-1.124 2.324,-1.452 2.324,-2.53l0,-0.141c0,-0.093 -0.228,-0.327 -0.228,-0.327c-0.319,-0 -1.458,-0.094 -1.686,-0.094c-0.501,-0 -1.685,0.094 -1.685,0.094c-0.228,-0 -1.185,0.562 -1.368,0.562l-0.41,-0c0,-0.235 0.092,-0.984 0.092,-1.312c-0,-0.047 -0.228,-0.327 -0.228,-0.327l-3.782,-0c-1.094,-0 -2.005,1.732 -3.099,1.732c-1.002,0 -1.366,-3.041 -1.867,-3.789c-0.091,-0.093 -0.137,-0.327 -0.319,-0.327l-0.592,-0c-0.182,-0 -0.592,-0.281 -0.774,-0.281c-0.638,-0.701 -0.638,-1.45 -1.594,-1.684c-0.137,-0.094 -1.594,-0.375 -2.004,-0.422l-0.638,0c-0.091,0 -0.956,0.328 -1.047,0.422c-0.41,-0 -2.505,0.327 -3.006,0.327c-0.683,-0.421 -0.911,-1.404 -0.911,-2.06l-0.319,-0.093c-0.546,-0 -0.819,0.14 -1.047,0.749l-0,2.341c-0,0.093 0.319,0.607 0.319,0.701c-0,0.234 -0.319,1.449 -0.319,1.729l-0,0.514c-0,0.562 0.228,1.218 0.729,1.218c1.548,-0 1.594,-2.059 2.641,-2.807l1.093,0c2.733,0 4.6,1.73 6.103,3.79c0.182,0.094 0.592,0.656 0.774,0.75c-0,0.141 0.091,1.172 0.091,1.546c-0,1.406 -0.956,4.124 -2.778,4.124c-0.182,-0 -1.275,-0.235 -1.366,-0.235l-0.319,0c-1.685,0 -3.097,0.141 -4.691,0.562c0,0 0,0.187 -0.182,0.187c-0.501,0 -0.501,-1.311 -0.501,-1.639c-0,-1.031 0.41,-2.062 0.41,-2.999l-0,-0.468c-0,-0.844 -0.091,-1.828 -1.275,-1.828c-0.638,0 -0.729,1.406 -0.729,1.64c-0,0.282 -0.228,1.921 -0.319,2.39l0,0.422c0.091,0.234 0.319,1.874 0.319,1.968c-0,0.327 -0.319,2.48 -0.319,2.761l0,7.208l0.319,1.311l0.319,-0c-0,-0 0.41,-1.17 0.728,-1.638c0.547,-1.966 1.23,-4.119 3.598,-4.353l1.685,-0c0.046,-0 0.547,-0.515 0.638,-0.515l1.047,-0c1.23,0.842 1.913,2.48 1.913,3.931l0,0.281c-0.091,0.094 -0.455,0.983 -0.683,1.311c-1.093,2.153 -4.19,2.153 -6.194,3.042c-0.091,0 -0.956,0.656 -1.047,0.656c-1.275,0.655 -2.733,0.655 -2.733,2.387Zm89.937,-30.944c-0,-0.889 0.136,-1.077 0.91,-1.077l0.592,0c-0,0 1.047,0.703 1.183,0.703c1.229,0.281 3.323,-0.375 3.323,1.685c0,1.405 -0.819,2.387 -2.321,2.387c-2.094,-0 -3.687,-1.638 -3.687,-3.698Zm-40.413,-12.173l-0,-0.609c0.318,-0 1.686,-0.187 2.004,-0.234l0.593,-0.422l0.364,0c0.41,0 4.01,0.188 4.01,1.592c0,0.515 -0.501,0.703 -0.957,0.703l-0.319,-0c-0.091,-0 -0.729,-0.188 -0.729,-0.188c-0.182,0 -1.184,-0.608 -1.367,-0.608c-0.501,-0.094 -3.007,-0.234 -3.599,-0.234Zm-47.109,-7.866c-0,-0.234 1.367,-2.856 1.777,-2.856l0.227,-0c0.091,0.093 0.593,0.327 0.684,0.327c0.182,0 1.777,0.328 1.959,0.328c-0,0 0.319,0.328 0.319,0.375c1.913,1.357 3.69,2.575 3.69,5.29c0,0.75 -1.503,4.636 -2.004,4.636l-4.648,-0c-0.501,-0 -0.911,-1.92 -1.002,-2.154c-0.774,-1.873 -1.002,-3.699 -1.002,-5.946Z" style="fill-rule:nonzero;"/></svg>