<?xml version="1.0" encoding="UTF-8" standalone="no"?><!DOCTYPE svg PUBLIC "-//W3C//DTD SVG 1.1//EN" "http://www.w3.org/Graphics/SVG/1.1/DTD/svg11.dtd"><svg width="100%" height="100%" viewBox="0 0 37 37" version="1.1" xmlns="http://www.w3.org/2000/svg" xmlns:xlink="http://www.w3.org/1999/xlink" xml:space="preserve" xmlns:serif="http://www.serif.com/" style="fill-rule:evenodd;clip-rule:evenodd;stroke-linejoin:round;stroke-miterlimit:2;"><g><path d="M36.363,9.368c-0,-4.967 -4.033,-9 -9,-9l-18,-0c-4.968,-0 -9,4.033 -9,9l-0,18c-0,4.967 4.032,9 9,9l18,-0c4.967,-0 9,-4.033 9,-9l-0,-18Zm-17.034,6.082l0,-2.506c0,-0.316 -0.163,-0.61 -0.432,-0.776c-0.269,-0.166 -0.604,-0.181 -0.887,-0.04c-2.532,1.267 -8.069,4.035 -10.838,5.419c-0.312,0.156 -0.509,0.475 -0.509,0.823c0,0.349 0.197,0.668 0.509,0.824c2.765,1.382 8.287,4.143 10.825,5.412c0.286,0.143 0.624,0.128 0.896,-0.04c0.271,-0.168 0.436,-0.464 0.436,-0.783l0,-2.493l6.632,3.316c0.285,0.143 0.624,0.128 0.895,-0.04c0.271,-0.168 0.436,-0.464 0.436,-0.783c0,-2.658 0,-8.191 0,-10.839c0,-0.316 -0.163,-0.61 -0.432,-0.776c-0.269,-0.166 -0.604,-0.181 -0.887,-0.04l-6.644,3.322Z"/><path d="M36.363,9.368c-0,-4.967 -4.033,-9 -9,-9l-18,-0c-4.968,-0 -9,4.033 -9,9l-0,18c-0,4.967 4.032,9 9,9l18,-0c4.967,-0 9,-4.033 9,-9l-0,-18Zm-3,-0l-0,18c-0,3.311 -2.689,6 -6,6l-18,-0c-3.312,-0 -6,-2.689 -6,-6l-0,-18c-0,-3.312 2.688,-6 6,-6c-0,-0 18,-0 18,-0c3.311,-0 6,2.688 6,6Zm-11.619,1.521c-0.313,-0.51 -0.745,-0.948 -1.27,-1.273c-1.153,-0.712 -2.593,-0.777 -3.806,-0.171l-10.838,5.419c-1.328,0.664 -2.167,2.022 -2.167,3.506c0,1.485 0.839,2.843 2.167,3.507l10.826,5.412c1.215,0.608 2.658,0.543 3.814,-0.171c0.524,-0.324 0.955,-0.761 1.269,-1.269l2.88,1.44c1.215,0.608 2.658,0.543 3.814,-0.171c1.156,-0.714 1.859,-1.976 1.859,-3.335l0,-10.839c0,-1.356 -0.701,-2.615 -1.855,-3.328c-1.153,-0.712 -2.593,-0.777 -3.805,-0.171l-2.888,1.444Zm-2.415,4.561l0,-2.506c0,-0.316 -0.163,-0.61 -0.432,-0.776c-0.269,-0.166 -0.604,-0.181 -0.887,-0.04c-2.532,1.267 -8.069,4.035 -10.838,5.419c-0.312,0.156 -0.509,0.475 -0.509,0.823c0,0.349 0.197,0.668 0.509,0.824c2.765,1.382 8.287,4.143 10.825,5.412c0.286,0.143 0.624,0.128 0.896,-0.04c0.271,-0.168 0.436,-0.464 0.436,-0.783l0,-2.493l6.632,3.316c0.285,0.143 0.624,0.128 0.895,-0.04c0.271,-0.168 0.436,-0.464 0.436,-0.783c0,-2.658 0,-8.191 0,-10.839c0,-0.316 -0.163,-0.61 -0.432,-0.776c-0.269,-0.166 -0.604,-0.181 -0.887,-0.04l-6.644,3.322Z"/></g></svg>