<?xml version="1.0" encoding="UTF-8" standalone="no"?><!DOCTYPE svg PUBLIC "-//W3C//DTD SVG 1.1//EN" "http://www.w3.org/Graphics/SVG/1.1/DTD/svg11.dtd"><svg width="100%" height="100%" viewBox="0 0 37 37" version="1.1" xmlns="http://www.w3.org/2000/svg" xmlns:xlink="http://www.w3.org/1999/xlink" xml:space="preserve" xmlns:serif="http://www.serif.com/" style="fill-rule:evenodd;clip-rule:evenodd;stroke-linejoin:round;stroke-miterlimit:2;"><g><path d="M36.363,9.304c-0,-4.968 -4.033,-9 -9,-9l-18,-0c-4.968,-0 -9,4.032 -9,9l-0,18c-0,4.967 4.032,9 9,9l18,-0c4.967,-0 9,-4.033 9,-9l-0,-18Zm-3,-0l-0,18c-0,3.311 -2.689,6 -6,6c-0,-0 -18,-0 -18,-0c-3.312,-0 -6,-2.689 -6,-6l-0,-18c-0,-3.312 2.688,-6 6,-6l18,-0c3.311,-0 6,2.688 6,6Z"/><path d="M19.329,15.386l0,-2.506c0,-0.316 -0.163,-0.61 -0.432,-0.776c-0.269,-0.166 -0.604,-0.181 -0.887,-0.04c-2.532,1.266 -8.069,4.035 -10.838,5.419c-0.312,0.156 -0.509,0.475 -0.509,0.823c0,0.349 0.197,0.668 0.509,0.823c2.765,1.383 8.287,4.144 10.825,5.413c0.286,0.143 0.624,0.128 0.896,-0.04c0.271,-0.168 0.436,-0.464 0.436,-0.783l0,-2.493l6.632,3.316c0.285,0.143 0.624,0.128 0.895,-0.04c0.271,-0.168 0.436,-0.464 0.436,-0.783c0,-2.658 0,-8.191 0,-10.839c0,-0.316 -0.163,-0.61 -0.432,-0.776c-0.269,-0.166 -0.604,-0.181 -0.887,-0.04l-6.644,3.322Z"/><path d="M19.329,15.386l0,-2.506c0,-0.316 -0.163,-0.61 -0.432,-0.776c-0.269,-0.166 -0.604,-0.181 -0.887,-0.04c-2.532,1.266 -8.069,4.035 -10.838,5.419c-0.312,0.156 -0.509,0.475 -0.509,0.823c0,0.349 0.197,0.668 0.509,0.823c2.765,1.383 8.287,4.144 10.825,5.413c0.286,0.143 0.624,0.128 0.896,-0.04c0.271,-0.168 0.436,-0.464 0.436,-0.783l0,-2.493l6.632,3.316c0.285,0.143 0.624,0.128 0.895,-0.04c0.271,-0.168 0.436,-0.464 0.436,-0.783c0,-2.658 0,-8.191 0,-10.839c0,-0.316 -0.163,-0.61 -0.432,-0.776c-0.269,-0.166 -0.604,-0.181 -0.887,-0.04l-6.644,3.322Zm-2.886,0.816c0.201,0.713 0.662,1.337 1.309,1.736c0.279,0.173 0.58,0.296 0.89,0.368c-0.31,0.073 -0.611,0.196 -0.89,0.368c-0.647,0.4 -1.108,1.024 -1.309,1.737l-4.209,-2.105l4.209,-2.104Zm7.849,0.057l0,4.095l-3.621,-1.811c-0.212,-0.106 -0.434,-0.185 -0.659,-0.237c0.225,-0.051 0.447,-0.13 0.659,-0.236l3.621,-1.811Z"/></g></svg>