<?xml version="1.0" encoding="UTF-8" standalone="no"?><!DOCTYPE svg PUBLIC "-//W3C//DTD SVG 1.1//EN" "http://www.w3.org/Graphics/SVG/1.1/DTD/svg11.dtd"><svg width="100%" height="100%" viewBox="0 0 37 37" version="1.1" xmlns="http://www.w3.org/2000/svg" xmlns:xlink="http://www.w3.org/1999/xlink" xml:space="preserve" xmlns:serif="http://www.serif.com/" style="fill-rule:evenodd;clip-rule:evenodd;stroke-linejoin:round;stroke-miterlimit:2;"><g><path d="M36.81,9.304c-0,-4.968 -4.033,-9 -9,-9l-18,-0c-4.967,-0 -9,4.032 -9,9l-0,18c-0,4.967 4.033,9 9,9l18,-0c4.967,-0 9,-4.033 9,-9l-0,-18Zm-3,-0l-0,18c-0,3.311 -2.689,6 -6,6c-0,-0 -18,-0 -18,-0c-3.312,-0 -6,-2.689 -6,-6c-0,-0 -0,-18 -0,-18c-0,-3.312 2.688,-6 6,-6l18,-0c3.311,-0 6,2.688 6,6Z"/><path d="M17.843,15.386l0,-2.506c0,-0.316 0.164,-0.61 0.433,-0.776c0.268,-0.166 0.604,-0.181 0.887,-0.04c2.532,1.266 8.068,4.035 10.838,5.419c0.311,0.156 0.508,0.475 0.508,0.823c0,0.349 -0.197,0.668 -0.508,0.823c-2.765,1.383 -8.288,4.144 -10.826,5.413c-0.285,0.143 -0.624,0.128 -0.895,-0.04c-0.271,-0.168 -0.437,-0.464 -0.437,-0.783l0,-2.493l-6.631,3.316c-0.285,0.143 -0.624,0.128 -0.895,-0.04c-0.272,-0.168 -0.437,-0.464 -0.437,-0.783c0,-2.658 0,-8.191 0,-10.839c0,-0.316 0.164,-0.61 0.432,-0.776c0.269,-0.166 0.605,-0.181 0.887,-0.04l6.644,3.322Z"/><path d="M17.843,15.386l0,-2.506c0,-0.316 0.164,-0.61 0.433,-0.776c0.268,-0.166 0.604,-0.181 0.887,-0.04c2.532,1.266 8.068,4.035 10.838,5.419c0.311,0.156 0.508,0.475 0.508,0.823c0,0.349 -0.197,0.668 -0.508,0.823c-2.765,1.383 -8.288,4.144 -10.826,5.413c-0.285,0.143 -0.624,0.128 -0.895,-0.04c-0.271,-0.168 -0.437,-0.464 -0.437,-0.783l0,-2.493l-6.631,3.316c-0.285,0.143 -0.624,0.128 -0.895,-0.04c-0.272,-0.168 -0.437,-0.464 -0.437,-0.783c0,-2.658 0,-8.191 0,-10.839c0,-0.316 0.164,-0.61 0.432,-0.776c0.269,-0.166 0.605,-0.181 0.887,-0.04l6.644,3.322Zm2.886,0.816l4.209,2.104l-4.209,2.105c-0.2,-0.713 -0.662,-1.337 -1.308,-1.737c-0.279,-0.172 -0.58,-0.295 -0.89,-0.368c0.31,-0.072 0.611,-0.195 0.89,-0.368c0.646,-0.399 1.108,-1.023 1.308,-1.736Zm-7.849,0.057l3.622,1.811c0.212,0.106 0.433,0.185 0.659,0.236c-0.226,0.052 -0.447,0.131 -0.659,0.237l-3.622,1.811l0,-4.095Z"/></g></svg>