<?xml version="1.0" encoding="UTF-8" standalone="no"?><!DOCTYPE svg PUBLIC "-//W3C//DTD SVG 1.1//EN" "http://www.w3.org/Graphics/SVG/1.1/DTD/svg11.dtd"><svg width="100%" height="100%" viewBox="0 0 61 61" version="1.1" xmlns="http://www.w3.org/2000/svg" xmlns:xlink="http://www.w3.org/1999/xlink" xml:space="preserve" xmlns:serif="http://www.serif.com/" style="fill-rule:evenodd;clip-rule:evenodd;stroke-linejoin:round;stroke-miterlimit:2;"><g><path d="M60.265,15.368c0,-8.279 -6.721,-15 -15,-15l-30,-0c-8.279,-0 -15,6.721 -15,15l0,30c0,8.278 6.721,15 15,15l30,-0c8.279,-0 15,-6.722 15,-15l0,-30Zm-15.606,23.394c0,-0.755 -0.613,-1.368 -1.368,-1.368l-26.051,-0c-0.756,-0 -1.369,0.613 -1.369,1.368l0,2.737c0,0.756 0.613,1.369 1.369,1.369l26.051,-0c0.755,-0 1.368,-0.613 1.368,-1.369l0,-2.737Zm0,-9.763c0,-0.755 -0.613,-1.368 -1.368,-1.368l-26.051,-0c-0.756,-0 -1.369,0.613 -1.369,1.368l0,2.737c0,0.756 0.613,1.369 1.369,1.369l26.051,-0c0.755,-0 1.368,-0.613 1.368,-1.369l0,-2.737Zm0,-9.763c0,-0.755 -0.613,-1.368 -1.368,-1.368l-26.051,-0c-0.756,-0 -1.369,0.613 -1.369,1.368l0,2.737c0,0.756 0.613,1.369 1.369,1.369l26.051,-0c0.755,-0 1.368,-0.613 1.368,-1.369l0,-2.737Z"/><path d="M60.265,15.368c0,-8.279 -6.721,-15 -15,-15l-30,-0c-8.279,-0 -15,6.721 -15,15l0,30c0,8.278 6.721,15 15,15l30,-0c8.279,-0 15,-6.722 15,-15l0,-30Zm-3,-0l0,30c0,6.623 -5.377,12 -12,12l-30,-0c-6.623,-0 -12,-5.377 -12,-12c0,-0 0,-30 0,-30c0,-6.623 5.377,-12 12,-12c0,-0 30,-0 30,-0c6.623,-0 12,5.377 12,12Zm-42.62,10.118c-1.076,0.796 -1.774,2.074 -1.774,3.513c0,0 0,2.737 0,2.737c0,1.44 0.698,2.717 1.774,3.513c-1.076,0.796 -1.774,2.074 -1.774,3.513c0,0 0,2.737 0,2.737c0,2.411 1.958,4.369 4.369,4.369c-0,-0 26.051,-0 26.051,-0c2.411,-0 4.368,-1.958 4.368,-4.369c0,0 0,-2.737 0,-2.737c0,-1.439 -0.697,-2.717 -1.773,-3.513c1.076,-0.796 1.773,-2.073 1.773,-3.513c0,0 0,-2.737 0,-2.737c0,-1.439 -0.697,-2.717 -1.773,-3.513c1.076,-0.796 1.773,-2.073 1.773,-3.513c0,0 0,-2.737 0,-2.737c0,-2.411 -1.957,-4.368 -4.368,-4.368c-0,-0 -26.051,-0 -26.051,-0c-2.411,-0 -4.369,1.957 -4.369,4.368c0,0 0,2.737 0,2.737c0,1.44 0.698,2.717 1.774,3.513Zm30.014,13.276c0,-0.755 -0.613,-1.368 -1.368,-1.368l-26.051,-0c-0.756,-0 -1.369,0.613 -1.369,1.368l0,2.737c0,0.756 0.613,1.369 1.369,1.369l26.051,-0c0.755,-0 1.368,-0.613 1.368,-1.369l0,-2.737Zm0,-9.763c0,-0.755 -0.613,-1.368 -1.368,-1.368l-26.051,-0c-0.756,-0 -1.369,0.613 -1.369,1.368l0,2.737c0,0.756 0.613,1.369 1.369,1.369l26.051,-0c0.755,-0 1.368,-0.613 1.368,-1.369l0,-2.737Zm0,-9.763c0,-0.755 -0.613,-1.368 -1.368,-1.368l-26.051,-0c-0.756,-0 -1.369,0.613 -1.369,1.368l0,2.737c0,0.756 0.613,1.369 1.369,1.369l26.051,-0c0.755,-0 1.368,-0.613 1.368,-1.369l0,-2.737Z"/></g></svg>