<?xml version="1.0" encoding="UTF-8" standalone="no"?><!DOCTYPE svg PUBLIC "-//W3C//DTD SVG 1.1//EN" "http://www.w3.org/Graphics/SVG/1.1/DTD/svg11.dtd"><svg width="100%" height="100%" viewBox="0 0 37 37" version="1.1" xmlns="http://www.w3.org/2000/svg" xmlns:xlink="http://www.w3.org/1999/xlink" xml:space="preserve" xmlns:serif="http://www.serif.com/" style="fill-rule:evenodd;clip-rule:evenodd;stroke-linejoin:round;stroke-miterlimit:2;"><g><path d="M36.517,9.368c-0,-4.967 -4.033,-9 -9,-9l-18,-0c-4.968,-0 -9,4.033 -9,9l-0,18c-0,4.967 4.032,9 9,9l18,-0c4.967,-0 9,-4.033 9,-9l-0,-18Zm-14.264,7.135l-0,-3.822c-0,-0.358 0.29,-0.649 0.649,-0.649l1.298,0c0.359,0 0.649,0.291 0.649,0.649l0,11.373c0,0.358 -0.29,0.649 -0.649,0.649l-1.298,0c-0.359,0 -0.649,-0.291 -0.649,-0.649l-0,-3.816l-8.738,4.368c-0.285,0.143 -0.624,0.128 -0.895,-0.04c-0.271,-0.168 -0.436,-0.464 -0.436,-0.783c-0,-2.658 -0,-8.191 -0,-10.839c-0,-0.316 0.163,-0.61 0.432,-0.776c0.269,-0.166 0.604,-0.181 0.887,-0.04l8.75,4.375Z"/><path d="M36.517,9.368c-0,-4.967 -4.033,-9 -9,-9l-18,-0c-4.968,-0 -9,4.033 -9,9l-0,18c-0,4.967 4.032,9 9,9l18,-0c4.967,-0 9,-4.033 9,-9l-0,-18Zm-3,-0l-0,18c-0,3.311 -2.689,6 -6,6l-18,-0c-3.312,-0 -6,-2.689 -6,-6c-0,-0 -0,-18 -0,-18c-0,-3.312 2.688,-6 6,-6c-0,-0 18,-0 18,-0c3.311,-0 6,2.688 6,6Zm-14.134,2.347l-4.539,-2.27c-1.212,-0.606 -2.652,-0.541 -3.805,0.171c-1.153,0.713 -1.855,1.972 -1.855,3.328l-0,10.839c-0,1.359 0.703,2.621 1.859,3.335c1.156,0.714 2.599,0.779 3.814,0.171l4.528,-2.263c0.425,1.543 1.839,2.677 3.517,2.677l1.298,0c2.014,0 3.649,-1.635 3.649,-3.649l0,-11.373c0,-2.014 -1.635,-3.649 -3.649,-3.649l-1.298,0c-1.68,0 -3.095,1.137 -3.519,2.683Zm2.87,4.788l-0,-3.822c-0,-0.358 0.29,-0.649 0.649,-0.649l1.298,0c0.359,0 0.649,0.291 0.649,0.649l0,11.373c0,0.358 -0.29,0.649 -0.649,0.649l-1.298,0c-0.359,0 -0.649,-0.291 -0.649,-0.649l-0,-3.816l-8.738,4.368c-0.285,0.143 -0.624,0.128 -0.895,-0.04c-0.271,-0.168 -0.436,-0.464 -0.436,-0.783c-0,-2.658 -0,-8.191 -0,-10.839c-0,-0.316 0.163,-0.61 0.432,-0.776c0.269,-0.166 0.604,-0.181 0.887,-0.04l8.75,4.375Z"/></g></svg>