<?xml version="1.0" encoding="UTF-8" standalone="no"?><!DOCTYPE svg PUBLIC "-//W3C//DTD SVG 1.1//EN" "http://www.w3.org/Graphics/SVG/1.1/DTD/svg11.dtd"><svg width="100%" height="100%" viewBox="0 0 61 61" version="1.1" xmlns="http://www.w3.org/2000/svg" xmlns:xlink="http://www.w3.org/1999/xlink" xml:space="preserve" xmlns:serif="http://www.serif.com/" style="fill-rule:evenodd;clip-rule:evenodd;stroke-linejoin:round;stroke-miterlimit:2;"><g><path d="M60.687,15.368c-0,-8.279 -6.722,-15 -15,-15l-30,-0c-8.279,-0 -15,6.721 -15,15l-0,30c-0,8.278 6.721,15 15,15l30,-0c8.278,-0 15,-6.722 15,-15l-0,-30Zm-32.858,4.75c-0,-1.242 -1.009,-2.25 -2.25,-2.25l-4.5,-0c-1.242,-0 -2.25,1.008 -2.25,2.25l-0,20.5c-0,1.242 1.008,2.25 2.25,2.25l4.5,-0c1.241,-0 2.25,-1.008 2.25,-2.25l-0,-20.5Zm14.716,-0c0,-1.242 -1.008,-2.25 -2.25,-2.25l-4.5,-0c-1.242,-0 -2.25,1.008 -2.25,2.25l0,20.5c0,1.242 1.008,2.25 2.25,2.25l4.5,-0c1.242,-0 2.25,-1.008 2.25,-2.25l0,-20.5Z"/><path d="M60.687,15.368c-0,-8.279 -6.722,-15 -15,-15l-30,-0c-8.279,-0 -15,6.721 -15,15l-0,30c-0,8.278 6.721,15 15,15l30,-0c8.278,-0 15,-6.722 15,-15l-0,-30Zm-3,-0l-0,30c-0,6.623 -5.377,12 -12,12l-30,-0c-6.623,-0 -12,-5.377 -12,-12c-0,-0 -0,-30 -0,-30c-0,-6.623 5.377,-12 12,-12c-0,-0 30,-0 30,-0c6.623,-0 12,5.377 12,12Zm-27,26.459c0.545,2.315 2.627,4.041 5.108,4.041c0,-0 4.5,-0 4.5,-0c2.898,-0 5.25,-2.353 5.25,-5.25l0,-20.5c0,-2.898 -2.352,-5.25 -5.25,-5.25c0,-0 -4.5,-0 -4.5,-0c-2.481,-0 -4.563,1.725 -5.108,4.041c-0.545,-2.316 -2.627,-4.041 -5.108,-4.041c-0,-0 -4.5,-0 -4.5,-0c-2.898,-0 -5.25,2.352 -5.25,5.25l-0,20.5c-0,2.897 2.352,5.25 5.25,5.25c-0,-0 4.5,-0 4.5,-0c2.481,-0 4.563,-1.726 5.108,-4.041Zm-2.858,-21.709c-0,-1.242 -1.009,-2.25 -2.25,-2.25l-4.5,-0c-1.242,-0 -2.25,1.008 -2.25,2.25l-0,20.5c-0,1.242 1.008,2.25 2.25,2.25l4.5,-0c1.241,-0 2.25,-1.008 2.25,-2.25l-0,-20.5Zm14.716,-0c0,-1.242 -1.008,-2.25 -2.25,-2.25l-4.5,-0c-1.242,-0 -2.25,1.008 -2.25,2.25l0,20.5c0,1.242 1.008,2.25 2.25,2.25l4.5,-0c1.242,-0 2.25,-1.008 2.25,-2.25l0,-20.5Z"/></g></svg>