<?xml version="1.0" encoding="UTF-8" standalone="no"?><!DOCTYPE svg PUBLIC "-//W3C//DTD SVG 1.1//EN" "http://www.w3.org/Graphics/SVG/1.1/DTD/svg11.dtd"><svg width="100%" height="100%" viewBox="0 0 61 61" version="1.1" xmlns="http://www.w3.org/2000/svg" xmlns:xlink="http://www.w3.org/1999/xlink" xml:space="preserve" xmlns:serif="http://www.serif.com/" style="fill-rule:evenodd;clip-rule:evenodd;stroke-linejoin:round;stroke-miterlimit:2;"><g><path d="M60.687,15.304c-0,-8.279 -6.722,-15 -15,-15l-30,-0c-8.279,-0 -15,6.721 -15,15l-0,30c-0,8.278 6.721,15 15,15l30,-0c8.278,-0 15,-6.722 15,-15l-0,-30Zm-3,-0l-0,30c-0,6.623 -5.377,12 -12,12c-0,-0 -30,-0 -30,-0c-6.623,-0 -12,-5.377 -12,-12c-0,-0 -0,-30 -0,-30c-0,-6.623 5.377,-12 12,-12c-0,-0 30,-0 30,-0c6.623,-0 12,5.377 12,12Z"/><g><path d="M27.829,20.054c-0,-1.242 -1.009,-2.25 -2.25,-2.25l-4.5,-0c-1.242,-0 -2.25,1.008 -2.25,2.25l-0,20.5c-0,1.241 1.008,2.25 2.25,2.25l4.5,-0c1.241,-0 2.25,-1.009 2.25,-2.25l-0,-20.5Z"/><path d="M27.829,20.054c-0,-1.242 -1.009,-2.25 -2.25,-2.25l-4.5,-0c-1.242,-0 -2.25,1.008 -2.25,2.25l-0,20.5c-0,1.241 1.008,2.25 2.25,2.25l4.5,-0c1.241,-0 2.25,-1.009 2.25,-2.25l-0,-20.5Zm-6,0.75l-0,19l3,-0l-0,-19l-3,-0Z"/><path d="M42.545,20.054c0,-1.242 -1.008,-2.25 -2.25,-2.25l-4.5,-0c-1.242,-0 -2.25,1.008 -2.25,2.25l0,20.5c0,1.241 1.008,2.25 2.25,2.25l4.5,-0c1.242,-0 2.25,-1.009 2.25,-2.25l0,-20.5Z"/><path d="M42.545,20.054c0,-1.242 -1.008,-2.25 -2.25,-2.25l-4.5,-0c-1.242,-0 -2.25,1.008 -2.25,2.25l0,20.5c0,1.241 1.008,2.25 2.25,2.25l4.5,-0c1.242,-0 2.25,-1.009 2.25,-2.25l0,-20.5Zm-6,0.75l0,19l3,-0l0,-19l-3,-0Z"/></g></g></svg>