<?xml version="1.0" encoding="UTF-8" standalone="no"?><!DOCTYPE svg PUBLIC "-//W3C//DTD SVG 1.1//EN" "http://www.w3.org/Graphics/SVG/1.1/DTD/svg11.dtd"><svg width="100%" height="100%" viewBox="0 0 61 61" version="1.1" xmlns="http://www.w3.org/2000/svg" xmlns:xlink="http://www.w3.org/1999/xlink" xml:space="preserve" xmlns:serif="http://www.serif.com/" style="fill-rule:evenodd;clip-rule:evenodd;stroke-linejoin:round;stroke-miterlimit:2;"><g><path d="M60.849,15.368c-0,-8.279 -6.721,-15 -15,-15l-30,-0c-8.279,-0 -15,6.721 -15,15l-0,30c-0,8.278 6.721,15 15,15l30,-0c8.279,-0 15,-6.722 15,-15l-0,-30Zm-16.15,13.913c0.615,0.308 1.004,0.936 1.004,1.624c0,0.688 -0.389,1.316 -1.004,1.624c-5.455,2.727 -16.35,8.175 -21.358,10.679c-0.563,0.281 -1.231,0.251 -1.766,-0.079c-0.536,-0.331 -0.861,-0.916 -0.861,-1.545c-0,-5.245 -0,-16.161 -0,-21.386c-0,-0.623 0.322,-1.202 0.853,-1.53c0.53,-0.327 1.192,-0.357 1.749,-0.078c4.996,2.498 15.919,7.959 21.383,10.691Z"/><path d="M60.849,15.368c-0,-8.279 -6.721,-15 -15,-15l-30,-0c-8.279,-0 -15,6.721 -15,15l-0,30c-0,8.278 6.721,15 15,15l30,-0c8.279,-0 15,-6.722 15,-15l-0,-30Zm-3,-0l-0,30c-0,6.623 -5.377,12 -12,12l-30,-0c-6.623,-0 -12,-5.377 -12,-12c-0,-0 -0,-30 -0,-30c-0,-6.623 5.377,-12 12,-12c-0,-0 30,-0 30,-0c6.623,-0 12,5.377 12,12Zm-11.808,11.23l-21.383,-10.692c-1.488,-0.743 -3.254,-0.664 -4.669,0.21c-1.414,0.875 -2.275,2.419 -2.275,4.082l-0,21.386c-0,1.669 0.864,3.219 2.283,4.097c1.42,0.877 3.193,0.957 4.686,0.21l21.358,-10.679c1.631,-0.815 2.662,-2.483 2.662,-4.307c0,-1.824 -1.031,-3.491 -2.662,-4.307l0,-0Zm-1.342,2.683c0.615,0.308 1.004,0.936 1.004,1.624c0,0.688 -0.389,1.316 -1.004,1.624c-5.455,2.727 -16.35,8.175 -21.358,10.679c-0.563,0.281 -1.231,0.251 -1.766,-0.079c-0.536,-0.331 -0.861,-0.916 -0.861,-1.545c-0,-5.245 -0,-16.161 -0,-21.386c-0,-0.623 0.322,-1.202 0.853,-1.53c0.53,-0.327 1.192,-0.357 1.749,-0.078c4.996,2.498 15.919,7.959 21.383,10.691Z"/></g></svg>