<?xml version="1.0" encoding="UTF-8" standalone="no"?><!DOCTYPE svg PUBLIC "-//W3C//DTD SVG 1.1//EN" "http://www.w3.org/Graphics/SVG/1.1/DTD/svg11.dtd"><svg width="100%" height="100%" viewBox="0 0 37 37" version="1.1" xmlns="http://www.w3.org/2000/svg" xmlns:xlink="http://www.w3.org/1999/xlink" xml:space="preserve" xmlns:serif="http://www.serif.com/" style="fill-rule:evenodd;clip-rule:evenodd;stroke-linejoin:round;stroke-miterlimit:2;"><g><path d="M36.069,9.304c0,-4.968 -4.032,-9 -9,-9l-18,-0c-4.967,-0 -9,4.032 -9,9l0,18c0,4.967 4.033,9 9,9l18,-0c4.968,-0 9,-4.033 9,-9l0,-18Zm-3,-0l0,18c0,3.311 -2.688,6 -6,6c0,-0 -18,-0 -18,-0c-3.311,-0 -6,-2.689 -6,-6l0,-18c0,-3.312 2.689,-6 6,-6l18,-0c3.312,-0 6,2.688 6,6Z"/><path d="M11.736,23.99l0,-11.373c0,-0.358 0.291,-0.649 0.65,-0.649l1.298,0c0.358,0 0.649,0.291 0.649,0.649l0,3.822l8.75,-4.375c0.283,-0.141 0.618,-0.126 0.887,0.04c0.269,0.166 0.432,0.46 0.432,0.776c0,2.648 0,8.181 0,10.839c0,0.319 -0.165,0.615 -0.436,0.783c-0.271,0.168 -0.61,0.183 -0.895,0.04l-8.738,-4.368l0,3.816c0,0.358 -0.291,0.649 -0.649,0.649l-1.298,0c-0.359,0 -0.65,-0.291 -0.65,-0.649Z"/><path d="M11.736,23.99l0,-11.373c0,-0.358 0.291,-0.649 0.65,-0.649l1.298,0c0.358,0 0.649,0.291 0.649,0.649l0,3.822l8.75,-4.375c0.283,-0.141 0.618,-0.126 0.887,0.04c0.269,0.166 0.432,0.46 0.432,0.776c0,2.648 0,8.181 0,10.839c0,0.319 -0.165,0.615 -0.436,0.783c-0.271,0.168 -0.61,0.183 -0.895,0.04l-8.738,-4.368l0,3.816c0,0.358 -0.291,0.649 -0.649,0.649l-1.298,0c-0.359,0 -0.65,-0.291 -0.65,-0.649Zm5.571,-5.684l4.095,2.048l0,-4.095l-4.095,2.047Z"/></g></svg>