<?xml version="1.0" encoding="UTF-8" standalone="no"?><!DOCTYPE svg PUBLIC "-//W3C//DTD SVG 1.1//EN" "http://www.w3.org/Graphics/SVG/1.1/DTD/svg11.dtd"><svg width="100%" height="100%" viewBox="0 0 30 30" version="1.1" xmlns="http://www.w3.org/2000/svg" xmlns:xlink="http://www.w3.org/1999/xlink" xml:space="preserve" xmlns:serif="http://www.serif.com/" style="fill-rule:evenodd;clip-rule:evenodd;stroke-linejoin:round;stroke-miterlimit:2;"><g><g><g><g><path d="M-10.958,0.182c0.435,-0.136 0.922,-0.156 1.4,-0.156c0.825,0 1.643,0.075 2.459,0.156l2.601,0c0.047,0 0.561,-0.124 0.592,-0.124c0.062,-0.032 1.028,-0.032 1.355,-0.032c0.233,0 1.151,0 1.337,0.032c0.353,0.27 0.496,0.581 0.556,0.917c0.129,0.179 0.207,0.392 0.207,0.638c0,0.399 -0.022,0.8 -0.049,1.202c0.027,0.176 0.049,0.324 0.049,0.355l0,1.697c0,0.031 0.155,0.389 0.155,0.404c0.031,0.249 0.14,1.806 0.14,2.289l0,1.059c0.016,0.031 0.156,0.373 0.156,0.405l0,0.295c-0.031,0.218 -0.14,1.028 -0.156,1.23c-0.011,0.053 -0.029,0.097 -0.05,0.132c0.018,0.229 0.036,0.411 0.05,0.476l0,0.156c-0.046,0.592 -0.14,3.425 -0.155,4.033c-0.062,0.062 -0.14,0.358 -0.14,0.467l0,0.124c0.031,0.063 0.218,0.39 0.295,0.467l0,2.634c0.141,0.445 0.156,0.945 0.156,1.431c0,0.848 -0.076,1.69 -0.156,2.527l0,2.533c0,0.062 0.14,0.576 0.14,0.591c0.016,0.063 0.016,1.028 0.016,1.355c0,0.233 0,1.151 -0.016,1.338c-0.285,0.363 -0.606,0.507 -0.951,0.567c-0.175,0.122 -0.382,0.195 -0.62,0.195c-0.39,0 -0.781,-0.023 -1.173,-0.052c-0.189,0.028 -0.351,0.052 -0.383,0.052l-1.697,0c-0.031,0 -0.374,0.156 -0.405,0.156c-0.233,0.031 -1.806,0.14 -2.289,0.14l-1.043,0c-0.031,0.031 -0.389,0.155 -0.405,0.155l-0.295,0c-0.218,-0.015 -1.028,-0.124 -1.246,-0.155l0,0c-0.055,-0.013 -0.101,-0.032 -0.137,-0.057c-0.219,0.019 -0.392,0.039 -0.455,0.057l-0.171,0c-0.592,-0.062 -3.41,-0.14 -4.033,-0.171c-0.062,-0.047 -0.358,-0.125 -0.467,-0.125l-0.125,0c-0.062,0.016 -0.374,0.202 -0.467,0.296l-2.664,0c-0.435,0.136 -0.922,0.155 -1.4,0.155c-0.825,0 -1.643,-0.074 -2.459,-0.155l-2.601,0c-0.047,0 -0.561,0.124 -0.592,0.124c-0.062,0.031 -1.028,0.031 -1.355,0.031c-0.233,0 -1.151,0 -1.337,-0.031c-0.353,-0.27 -0.496,-0.581 -0.556,-0.917c-0.129,-0.179 -0.207,-0.392 -0.207,-0.638c0,-0.399 0.022,-0.8 0.049,-1.202c-0.027,-0.176 -0.049,-0.324 -0.049,-0.355l0,-1.697c0,-0.031 -0.155,-0.389 -0.155,-0.404c-0.031,-0.25 -0.14,-1.806 -0.14,-2.289l0,-1.059c-0.016,-0.031 -0.156,-0.373 -0.156,-0.405l0,-0.295c0.031,-0.218 0.14,-1.028 0.156,-1.23c0.011,-0.053 0.029,-0.097 0.05,-0.132c-0.018,-0.229 -0.036,-0.411 -0.05,-0.476l0,-0.156c0.046,-0.592 0.14,-3.425 0.155,-4.033c0.062,-0.062 0.14,-0.358 0.14,-0.467l0,-0.124c-0.031,-0.063 -0.218,-0.39 -0.295,-0.467l0,-2.634c-0.141,-0.445 -0.156,-0.945 -0.156,-1.431c0,-0.848 0.076,-1.69 0.156,-2.527l0,-2.533c0,-0.062 -0.14,-0.576 -0.14,-0.591c-0.016,-0.063 -0.016,-1.028 -0.016,-1.355c0,-0.233 0,-1.151 0.016,-1.338c0.285,-0.363 0.606,-0.507 0.951,-0.567c0.175,-0.122 0.382,-0.195 0.62,-0.195c0.39,0 0.781,0.023 1.173,0.052c0.189,-0.028 0.351,-0.052 0.383,-0.052l1.697,0c0.031,0 0.374,-0.156 0.405,-0.156c0.233,-0.031 1.806,-0.14 2.289,-0.14l1.043,0c0.031,-0.031 0.389,-0.156 0.405,-0.156l0.295,0c0.218,0.016 1.028,0.125 1.246,0.156l0,0c0.055,0.013 0.101,0.032 0.137,0.057c0.219,-0.019 0.392,-0.039 0.455,-0.057l0.171,0c0.592,0.062 3.41,0.14 4.033,0.171c0.062,0.047 0.358,0.125 0.467,0.125l0.125,0c0.062,-0.016 0.374,-0.202 0.467,-0.296l2.664,0Z" style="fill-rule:nonzero;"/></g></g></g></g><g><g><g><g><path d="M-10.958,30.022c0.435,-0.137 0.922,-0.156 1.4,-0.156c0.825,0 1.643,0.074 2.459,0.156l2.601,0c0.047,0 0.561,-0.125 0.592,-0.125c0.062,-0.031 1.028,-0.031 1.355,-0.031c0.233,0 1.151,0 1.337,0.031c0.353,0.271 0.496,0.581 0.556,0.917c0.129,0.18 0.207,0.392 0.207,0.639c0,0.398 -0.022,0.799 -0.049,1.201c0.027,0.176 0.049,0.324 0.049,0.355l0,1.697c0,0.031 0.155,0.389 0.155,0.405c0.031,0.249 0.14,1.806 0.14,2.288l0,1.059c0.016,0.031 0.156,0.374 0.156,0.405l0,0.296c-0.031,0.218 -0.14,1.027 -0.156,1.23c-0.011,0.053 -0.029,0.096 -0.05,0.132c0.018,0.229 0.036,0.411 0.05,0.476l0,0.155c-0.046,0.592 -0.14,3.426 -0.155,4.033c-0.062,0.062 -0.14,0.358 -0.14,0.467l0,0.125c0.031,0.062 0.218,0.389 0.295,0.467l0,2.634c0.141,0.444 0.156,0.945 0.156,1.43c0,0.849 -0.076,1.69 -0.156,2.528l0,2.532c0,0.062 0.14,0.576 0.14,0.592c0.016,0.062 0.016,1.027 0.016,1.354c0,0.234 0,1.152 -0.016,1.338c-0.285,0.363 -0.606,0.508 -0.951,0.567c-0.175,0.122 -0.382,0.195 -0.62,0.195c-0.39,0 -0.781,-0.022 -1.173,-0.051c-0.189,0.028 -0.351,0.052 -0.383,0.052l-1.697,0c-0.031,0 -0.374,0.155 -0.405,0.155c-0.233,0.031 -1.806,0.14 -2.289,0.14l-1.043,0c-0.031,0.031 -0.389,0.156 -0.405,0.156l-0.295,0c-0.218,-0.016 -1.028,-0.125 -1.246,-0.156l0,0c-0.055,-0.013 -0.101,-0.032 -0.137,-0.056c-0.219,0.019 -0.392,0.038 -0.455,0.056l-0.171,0c-0.592,-0.062 -3.41,-0.14 -4.033,-0.171c-0.062,-0.047 -0.358,-0.125 -0.467,-0.125l-0.125,0c-0.062,0.016 -0.374,0.203 -0.467,0.296l-2.664,0c-0.435,0.137 -0.922,0.156 -1.4,0.156c-0.825,0 -1.643,-0.075 -2.459,-0.156l-2.601,0c-0.047,0 -0.561,0.125 -0.592,0.125c-0.062,0.031 -1.028,0.031 -1.355,0.031c-0.233,0 -1.151,0 -1.337,-0.031c-0.353,-0.271 -0.496,-0.581 -0.556,-0.917c-0.129,-0.18 -0.207,-0.392 -0.207,-0.639c0,-0.398 0.022,-0.799 0.049,-1.202c-0.027,-0.176 -0.049,-0.323 -0.049,-0.354l0,-1.697c0,-0.031 -0.155,-0.389 -0.155,-0.405c-0.031,-0.249 -0.14,-1.806 -0.14,-2.289l0,-1.058c-0.016,-0.032 -0.156,-0.374 -0.156,-0.405l0,-0.296c0.031,-0.218 0.14,-1.028 0.156,-1.23c0.011,-0.053 0.029,-0.096 0.05,-0.132c-0.018,-0.229 -0.036,-0.411 -0.05,-0.476l0,-0.156c0.046,-0.591 0.14,-3.425 0.155,-4.032c0.062,-0.063 0.14,-0.358 0.14,-0.467l0,-0.125c-0.031,-0.062 -0.218,-0.389 -0.295,-0.467l0,-2.634c-0.141,-0.444 -0.156,-0.945 -0.156,-1.431c0,-0.848 0.076,-1.689 0.156,-2.527l0,-2.532c0,-0.063 -0.14,-0.576 -0.14,-0.592c-0.016,-0.062 -0.016,-1.028 -0.016,-1.355c0,-0.233 0,-1.151 0.016,-1.338c0.285,-0.363 0.606,-0.507 0.951,-0.566c0.175,-0.123 0.382,-0.196 0.62,-0.196c0.39,0 0.781,0.023 1.173,0.052c0.189,-0.028 0.351,-0.052 0.383,-0.052l1.697,0c0.031,0 0.374,-0.155 0.405,-0.155c0.233,-0.032 1.806,-0.141 2.289,-0.141l1.043,0c0.031,-0.031 0.389,-0.155 0.405,-0.155l0.295,0c0.218,0.015 1.028,0.124 1.246,0.155l0,0.001c0.055,0.013 0.101,0.032 0.137,0.056c0.219,-0.019 0.392,-0.038 0.455,-0.056l0.171,0c0.592,0.062 3.41,0.14 4.033,0.171c0.062,0.047 0.358,0.124 0.467,0.124l0.125,0c0.062,-0.015 0.374,-0.202 0.467,-0.295l2.664,0Zm7.419,2.777c-0.309,-0.068 -0.748,-0.086 -1.099,-0.086l-0.342,0c-0.966,0 -2.258,0.062 -3.099,0.171c-0.109,0 -0.701,0.265 -0.747,0.296l-0.249,0c-0.25,0 -0.374,0 -0.514,-0.296l-1.043,0c-0.094,0 -0.545,-0.171 -0.592,-0.171c-0.109,0 -0.685,0.031 -1.09,0.031c-0.218,0 -0.374,0 -0.42,-0.031c-0.094,0 -0.545,-0.233 -0.592,-0.296l-0.171,0c-0.032,0 -0.53,0.172 -0.592,0.172l-0.888,0c-0.077,0 -0.56,0.124 -0.622,0.124l-0.296,0c-0.047,0 -0.53,-0.124 -0.592,-0.124l-0.125,0c-0.172,0 -1.215,0.124 -1.386,0.124c-0.078,0 -1.23,0.062 -1.635,0.062c-0.249,0 -1.401,-0.062 -1.65,-0.062c-0.078,-0.015 -0.514,-0.124 -0.592,-0.124c-0.109,0 -0.42,-0.032 -0.747,-0.032c-0.327,0 -0.654,0.032 -0.763,0.032c-0.007,-0.01 -0.016,-0.021 -0.026,-0.032c-0.311,-0.009 -0.595,-0.09 -0.876,-0.137c-0.509,0.104 -1.033,0 -1.511,0.293c-0.062,0.094 -0.514,0.436 -0.576,0.467c-0.078,0.033 -0.463,0.153 -0.701,0.231c-0.06,0.308 -0.078,0.74 -0.078,1.077l0,0.358c0,0.966 0.047,2.258 0.156,3.099c0,0.109 0.28,0.701 0.296,0.747l0,0.249c0,0.234 0,0.374 -0.296,0.514l0,1.043c0,0.078 -0.156,0.545 -0.156,0.592c0,0.109 0.031,0.67 0.031,1.074c0,0.218 0,0.39 -0.031,0.436c0,0.078 -0.249,0.545 -0.295,0.592l0,0.156c0,0.031 0.155,0.545 0.155,0.607l0,0.888c0,0.077 0.14,0.56 0.14,0.607l0,0.297c0,0.062 -0.14,0.544 -0.14,0.591l0,0.14c0,0.172 0.14,1.215 0.14,1.37c0,0.094 0.047,1.246 0.047,1.651c0,0.233 -0.047,1.401 -0.047,1.635c-0.031,0.093 -0.14,0.513 -0.14,0.591c0,0.109 -0.015,0.436 -0.015,0.763c0,0.327 0.015,0.638 0.015,0.747c-0.005,0.004 -0.01,0.009 -0.016,0.014c-0.004,0.323 -0.086,0.622 -0.129,0.927c0.091,0.498 0,1.022 0.285,1.488c0.078,0.062 0.436,0.514 0.452,0.561c0.044,0.077 0.168,0.471 0.24,0.708c0.309,0.068 0.748,0.086 1.099,0.086l0.342,0c0.966,0 2.258,-0.063 3.099,-0.172c0.109,0 0.701,-0.264 0.747,-0.295l0.249,0c0.25,0 0.374,0 0.514,0.295l1.043,0c0.094,0 0.545,0.172 0.592,0.172c0.109,0 0.685,-0.031 1.09,-0.031c0.218,0 0.374,0 0.42,0.031c0.094,0 0.545,0.233 0.592,0.295l0.171,0c0.032,0 0.53,-0.171 0.592,-0.171l0.888,0c0.077,0 0.56,-0.124 0.622,-0.124l0.296,0c0.047,0 0.53,0.124 0.592,0.124l0.125,0c0.172,0 1.215,-0.124 1.386,-0.124c0.078,0 1.23,-0.063 1.635,-0.063c0.249,0 1.401,0.063 1.65,0.063c0.078,0.015 0.514,0.124 0.592,0.124c0.109,0 0.42,0.031 0.747,0.031c0.327,0 0.654,-0.031 0.763,-0.031c0.007,0.01 0.016,0.021 0.026,0.032c0.311,0.009 0.595,0.089 0.876,0.136c0.509,-0.104 1.033,0.001 1.511,-0.292c0.062,-0.094 0.514,-0.436 0.576,-0.467c0.078,-0.034 0.463,-0.154 0.701,-0.231c0.06,-0.308 0.078,-0.74 0.078,-1.077l0,-0.359c0,-0.965 -0.047,-2.257 -0.156,-3.098c0,-0.109 -0.28,-0.701 -0.296,-0.747l0,-0.25c0,-0.233 0,-0.373 0.296,-0.513l0,-1.044c0,-0.077 0.156,-0.545 0.156,-0.591c0,-0.109 -0.031,-0.67 -0.031,-1.075c0,-0.218 0,-0.389 0.031,-0.436c0,-0.077 0.249,-0.545 0.295,-0.591l0,-0.156c0,-0.031 -0.155,-0.545 -0.155,-0.607l0,-0.888c0,-0.078 -0.14,-0.56 -0.14,-0.607l0,-0.297c0,-0.062 0.14,-0.545 0.14,-0.591l0,-0.14c0,-0.172 -0.14,-1.215 -0.14,-1.371c0,-0.093 -0.047,-1.245 -0.047,-1.65c0,-0.233 0.047,-1.401 0.047,-1.635c0.031,-0.093 0.14,-0.513 0.14,-0.591c0,-0.109 0.015,-0.436 0.015,-0.763c0,-0.327 -0.015,-0.639 -0.015,-0.747c0.005,-0.005 0.01,-0.009 0.016,-0.015c0.004,-0.322 0.086,-0.621 0.129,-0.926c-0.091,-0.498 0,-1.022 -0.285,-1.488c-0.078,-0.062 -0.436,-0.514 -0.452,-0.561c-0.044,-0.077 -0.168,-0.471 -0.24,-0.708Z" style="fill-rule:nonzero;"/></g></g></g></g><g><g><g><g><path d="M19.042,-29.844c0.435,-0.137 0.922,-0.156 1.4,-0.156c0.825,0 1.643,0.075 2.459,0.156l2.601,0c0.047,0 0.561,-0.125 0.592,-0.125c0.062,-0.031 1.028,-0.031 1.355,-0.031c0.233,0 1.151,0 1.337,0.031c0.353,0.271 0.496,0.581 0.556,0.917c0.129,0.18 0.207,0.392 0.207,0.639c0,0.398 -0.022,0.799 -0.049,1.201c0.027,0.176 0.049,0.324 0.049,0.355l0,1.697c0,0.031 0.155,0.389 0.155,0.405c0.031,0.249 0.14,1.806 0.14,2.289l0,1.058c0.016,0.031 0.156,0.374 0.156,0.405l0,0.296c-0.031,0.218 -0.14,1.027 -0.156,1.23c-0.011,0.053 -0.029,0.096 -0.05,0.132c0.018,0.229 0.036,0.411 0.05,0.476l0,0.155c-0.046,0.592 -0.14,3.426 -0.155,4.033c-0.062,0.062 -0.14,0.358 -0.14,0.467l0,0.125c0.031,0.062 0.218,0.389 0.295,0.467l0,2.634c0.141,0.444 0.156,0.945 0.156,1.43c0,0.849 -0.076,1.69 -0.156,2.528l0,2.532c0,0.063 0.14,0.576 0.14,0.592c0.016,0.062 0.016,1.028 0.016,1.355c0,0.233 0,1.151 -0.016,1.338c-0.285,0.362 -0.606,0.507 -0.951,0.566c-0.175,0.122 -0.382,0.195 -0.62,0.195c-0.39,0 -0.781,-0.022 -1.173,-0.051c-0.189,0.028 -0.351,0.052 -0.383,0.052l-1.697,0c-0.031,0 -0.374,0.155 -0.405,0.155c-0.233,0.032 -1.806,0.14 -2.289,0.14l-1.043,0c-0.031,0.032 -0.389,0.156 -0.405,0.156l-0.295,0c-0.218,-0.016 -1.028,-0.124 -1.246,-0.156l0,0c-0.055,-0.013 -0.101,-0.032 -0.137,-0.056c-0.219,0.019 -0.392,0.038 -0.455,0.056l-0.171,0c-0.592,-0.062 -3.41,-0.14 -4.033,-0.171c-0.062,-0.047 -0.358,-0.125 -0.467,-0.125l-0.125,0c-0.062,0.016 -0.374,0.203 -0.467,0.296l-2.664,0c-0.435,0.137 -0.922,0.156 -1.4,0.156c-0.825,0 -1.643,-0.075 -2.459,-0.156l-2.601,0c-0.047,0 -0.561,0.125 -0.592,0.125c-0.062,0.031 -1.028,0.031 -1.355,0.031c-0.233,0 -1.151,0 -1.337,-0.031c-0.353,-0.271 -0.496,-0.581 -0.556,-0.917c-0.129,-0.18 -0.207,-0.392 -0.207,-0.639c0,-0.398 0.022,-0.799 0.049,-1.201c-0.027,-0.176 -0.049,-0.324 -0.049,-0.355l0,-1.697c0,-0.031 -0.155,-0.389 -0.155,-0.405c-0.031,-0.249 -0.14,-1.806 -0.14,-2.289l0,-1.058c-0.016,-0.031 -0.156,-0.374 -0.156,-0.405l0,-0.296c0.031,-0.218 0.14,-1.027 0.156,-1.23c0.011,-0.053 0.029,-0.096 0.05,-0.132c-0.018,-0.229 -0.036,-0.411 -0.05,-0.476l0,-0.155c0.046,-0.592 0.14,-3.426 0.155,-4.033c0.062,-0.062 0.14,-0.358 0.14,-0.467l0,-0.125c-0.031,-0.062 -0.218,-0.389 -0.295,-0.467l0,-2.634c-0.141,-0.444 -0.156,-0.945 -0.156,-1.43c0,-0.849 0.076,-1.69 0.156,-2.528l0,-2.532c0,-0.063 -0.14,-0.576 -0.14,-0.592c-0.016,-0.062 -0.016,-1.028 -0.016,-1.355c0,-0.233 0,-1.151 0.016,-1.338c0.285,-0.362 0.606,-0.507 0.951,-0.566c0.175,-0.122 0.382,-0.195 0.62,-0.195c0.39,0 0.781,0.022 1.173,0.051c0.189,-0.028 0.351,-0.052 0.383,-0.052l1.697,0c0.031,0 0.374,-0.155 0.405,-0.155c0.233,-0.032 1.806,-0.14 2.289,-0.14l1.043,0c0.031,-0.032 0.389,-0.156 0.405,-0.156l0.295,0c0.218,0.016 1.028,0.124 1.246,0.156l0,0c0.055,0.013 0.101,0.032 0.137,0.056c0.219,-0.019 0.392,-0.038 0.455,-0.056l0.171,0c0.592,0.062 3.41,0.14 4.033,0.171c0.062,0.047 0.358,0.125 0.467,0.125l0.125,0c0.062,-0.016 0.374,-0.203 0.467,-0.296l2.664,0Zm7.419,2.777c-0.309,-0.068 -0.748,-0.086 -1.099,-0.086l-0.342,0c-0.966,0 -2.258,0.063 -3.099,0.171c-0.109,0 -0.701,0.265 -0.747,0.296l-0.249,0c-0.25,0 -0.374,0 -0.514,-0.296l-1.043,0c-0.094,0 -0.545,-0.171 -0.592,-0.171c-0.109,0 -0.685,0.031 -1.09,0.031c-0.218,0 -0.374,0 -0.42,-0.031c-0.094,0 -0.545,-0.233 -0.592,-0.295l-0.171,0c-0.032,0 -0.53,0.171 -0.592,0.171l-0.888,0c-0.077,0 -0.56,0.124 -0.622,0.124l-0.296,0c-0.047,0 -0.53,-0.124 -0.592,-0.124l-0.125,0c-0.172,0 -1.215,0.124 -1.386,0.124c-0.078,0 -1.23,0.063 -1.635,0.063c-0.249,0 -1.401,-0.063 -1.65,-0.063c-0.078,-0.015 -0.514,-0.124 -0.592,-0.124c-0.109,0 -0.42,-0.031 -0.747,-0.031c-0.327,0 -0.654,0.031 -0.763,0.031c-0.007,-0.01 -0.016,-0.021 -0.026,-0.032c-0.311,-0.009 -0.595,-0.089 -0.876,-0.137c-0.509,0.104 -1.033,0 -1.511,0.293c-0.062,0.094 -0.514,0.436 -0.576,0.467c-0.078,0.034 -0.463,0.153 -0.701,0.231c-0.06,0.308 -0.078,0.74 -0.078,1.077l0,0.358c0,0.966 0.047,2.258 0.156,3.099c0,0.109 0.28,0.701 0.296,0.747l0,0.249c0,0.234 0,0.374 -0.296,0.514l0,1.044c0,0.077 -0.156,0.544 -0.156,0.591c0,0.109 0.031,0.67 0.031,1.075c0,0.218 0,0.389 -0.031,0.436c0,0.077 -0.249,0.544 -0.295,0.591l0,0.156c0,0.031 0.155,0.545 0.155,0.607l0,0.888c0,0.078 0.14,0.56 0.14,0.607l0,0.297c0,0.062 -0.14,0.545 -0.14,0.591l0,0.14c0,0.172 0.14,1.215 0.14,1.37c0,0.094 0.047,1.246 0.047,1.651c0,0.233 -0.047,1.401 -0.047,1.635c-0.031,0.093 -0.14,0.513 -0.14,0.591c0,0.109 -0.015,0.436 -0.015,0.763c0,0.327 0.015,0.638 0.015,0.747c-0.005,0.005 -0.01,0.009 -0.016,0.014c-0.004,0.323 -0.086,0.622 -0.129,0.927c0.091,0.498 0,1.022 0.285,1.488c0.078,0.062 0.436,0.514 0.452,0.561c0.044,0.077 0.168,0.471 0.24,0.708c0.309,0.068 0.748,0.086 1.099,0.086l0.342,0c0.966,0 2.258,-0.063 3.099,-0.171c0.109,0 0.701,-0.265 0.747,-0.296l0.249,0c0.25,0 0.374,0 0.514,0.296l1.043,0c0.094,0 0.545,0.171 0.592,0.171c0.109,0 0.685,-0.031 1.09,-0.031c0.218,0 0.374,0 0.42,0.031c0.094,0 0.545,0.233 0.592,0.295l0.171,0c0.032,0 0.53,-0.171 0.592,-0.171l0.888,0c0.077,0 0.56,-0.124 0.622,-0.124l0.296,0c0.047,0 0.53,0.124 0.592,0.124l0.125,0c0.172,0 1.215,-0.124 1.386,-0.124c0.078,0 1.23,-0.063 1.635,-0.063c0.249,0 1.401,0.063 1.65,0.063c0.078,0.015 0.514,0.124 0.592,0.124c0.109,0 0.42,0.031 0.747,0.031c0.327,0 0.654,-0.031 0.763,-0.031c0.007,0.01 0.016,0.021 0.026,0.032c0.311,0.009 0.595,0.089 0.876,0.137c0.509,-0.104 1.033,0 1.511,-0.293c0.062,-0.094 0.514,-0.436 0.576,-0.467c0.078,-0.034 0.463,-0.153 0.701,-0.231c0.06,-0.308 0.078,-0.74 0.078,-1.077l0,-0.358c0,-0.966 -0.047,-2.258 -0.156,-3.099c0,-0.109 -0.28,-0.701 -0.296,-0.747l0,-0.249c0,-0.234 0,-0.374 0.296,-0.514l0,-1.044c0,-0.077 0.156,-0.544 0.156,-0.591c0,-0.109 -0.031,-0.67 -0.031,-1.075c0,-0.218 0,-0.389 0.031,-0.436c0,-0.077 0.249,-0.544 0.295,-0.591l0,-0.156c0,-0.031 -0.155,-0.545 -0.155,-0.607l0,-0.888c0,-0.078 -0.14,-0.56 -0.14,-0.607l0,-0.297c0,-0.062 0.14,-0.545 0.14,-0.591l0,-0.14c0,-0.172 -0.14,-1.215 -0.14,-1.37c0,-0.094 -0.047,-1.246 -0.047,-1.651c0,-0.233 0.047,-1.401 0.047,-1.635c0.031,-0.093 0.14,-0.513 0.14,-0.591c0,-0.109 0.015,-0.436 0.015,-0.763c0,-0.327 -0.015,-0.638 -0.015,-0.747c0.005,-0.005 0.01,-0.009 0.016,-0.014c0.004,-0.323 0.086,-0.622 0.129,-0.927c-0.091,-0.498 0,-1.022 -0.285,-1.488c-0.078,-0.062 -0.436,-0.514 -0.452,-0.561c-0.044,-0.077 -0.168,-0.471 -0.24,-0.708Z" style="fill-rule:nonzero;"/></g></g></g></g><g><g><g><g><path d="M19.042,0.182c0.435,-0.136 0.922,-0.156 1.4,-0.156c0.825,0 1.643,0.075 2.459,0.156l2.601,0c0.047,0 0.561,-0.124 0.592,-0.124c0.062,-0.032 1.028,-0.032 1.355,-0.032c0.233,0 1.151,0 1.337,0.032c0.353,0.27 0.496,0.581 0.556,0.917c0.129,0.179 0.207,0.392 0.207,0.638c0,0.399 -0.022,0.8 -0.049,1.202c0.027,0.176 0.049,0.324 0.049,0.355l0,1.697c0,0.031 0.155,0.389 0.155,0.404c0.031,0.249 0.14,1.806 0.14,2.289l0,1.059c0.016,0.031 0.156,0.373 0.156,0.405l0,0.295c-0.031,0.218 -0.14,1.028 -0.156,1.23c-0.011,0.053 -0.029,0.097 -0.05,0.132c0.018,0.229 0.036,0.411 0.05,0.476l0,0.156c-0.046,0.592 -0.14,3.425 -0.155,4.033c-0.062,0.062 -0.14,0.358 -0.14,0.467l0,0.124c0.031,0.063 0.218,0.39 0.295,0.467l0,2.634c0.141,0.445 0.156,0.945 0.156,1.431c0,0.848 -0.076,1.69 -0.156,2.527l0,2.533c0,0.062 0.14,0.576 0.14,0.591c0.016,0.063 0.016,1.028 0.016,1.355c0,0.233 0,1.151 -0.016,1.338c-0.285,0.363 -0.606,0.507 -0.951,0.567c-0.175,0.122 -0.382,0.195 -0.62,0.195c-0.39,0 -0.781,-0.023 -1.173,-0.052c-0.189,0.028 -0.351,0.052 -0.383,0.052l-1.697,0c-0.031,0 -0.374,0.156 -0.405,0.156c-0.233,0.031 -1.806,0.14 -2.289,0.14l-1.043,0c-0.031,0.031 -0.389,0.155 -0.405,0.155l-0.295,0c-0.218,-0.015 -1.028,-0.124 -1.246,-0.155l0,0c-0.055,-0.013 -0.101,-0.032 -0.137,-0.057c-0.219,0.019 -0.392,0.039 -0.455,0.057l-0.171,0c-0.592,-0.062 -3.41,-0.14 -4.033,-0.171c-0.062,-0.047 -0.358,-0.125 -0.467,-0.125l-0.125,0c-0.062,0.016 -0.374,0.202 -0.467,0.296l-2.664,0c-0.435,0.136 -0.922,0.155 -1.4,0.155c-0.825,0 -1.643,-0.074 -2.459,-0.155l-2.601,0c-0.047,0 -0.561,0.124 -0.592,0.124c-0.062,0.031 -1.028,0.031 -1.355,0.031c-0.233,0 -1.151,0 -1.337,-0.031c-0.353,-0.27 -0.496,-0.581 -0.556,-0.917c-0.129,-0.179 -0.207,-0.392 -0.207,-0.638c0,-0.399 0.022,-0.8 0.049,-1.202c-0.027,-0.176 -0.049,-0.324 -0.049,-0.355l0,-1.697c0,-0.031 -0.155,-0.389 -0.155,-0.404c-0.031,-0.25 -0.14,-1.806 -0.14,-2.289l0,-1.059c-0.016,-0.031 -0.156,-0.373 -0.156,-0.405l0,-0.295c0.031,-0.218 0.14,-1.028 0.156,-1.23c0.011,-0.053 0.029,-0.097 0.05,-0.132c-0.018,-0.229 -0.036,-0.411 -0.05,-0.476l0,-0.156c0.046,-0.592 0.14,-3.425 0.155,-4.033c0.062,-0.062 0.14,-0.358 0.14,-0.467l0,-0.124c-0.031,-0.063 -0.218,-0.39 -0.295,-0.467l0,-2.634c-0.141,-0.445 -0.156,-0.945 -0.156,-1.431c0,-0.848 0.076,-1.69 0.156,-2.527l0,-2.533c0,-0.062 -0.14,-0.576 -0.14,-0.591c-0.016,-0.063 -0.016,-1.028 -0.016,-1.355c0,-0.233 0,-1.151 0.016,-1.338c0.285,-0.363 0.606,-0.507 0.951,-0.567c0.175,-0.122 0.382,-0.195 0.62,-0.195c0.39,0 0.781,0.023 1.173,0.052c0.189,-0.028 0.351,-0.052 0.383,-0.052l1.697,0c0.031,0 0.374,-0.156 0.405,-0.156c0.233,-0.031 1.806,-0.14 2.289,-0.14l1.043,0c0.031,-0.031 0.389,-0.156 0.405,-0.156l0.295,0c0.218,0.016 1.028,0.125 1.246,0.156l0,0c0.055,0.013 0.101,0.032 0.137,0.057c0.219,-0.019 0.392,-0.039 0.455,-0.057l0.171,0c0.592,0.062 3.41,0.14 4.033,0.171c0.062,0.047 0.358,0.125 0.467,0.125l0.125,0c0.062,-0.016 0.374,-0.202 0.467,-0.296l2.664,0Z" style="fill-rule:nonzero;"/></g></g></g><path d="M15.902,15.125c0,-0.373 -0.472,-0.884 -0.881,-1.179c-0.795,-0.765 -1.375,-0.923 -1.869,-1.472c-1.139,-0.747 -1.633,-1.768 -2.041,-1.768c-0.215,-0.334 -2.235,-1.963 -2.535,-2.042c-0.28,-0.098 -0.709,-0.373 -0.989,-0.373c-0.236,0 -0.408,0.078 -0.408,0.55l0,0.235c0,0.216 0.279,0.923 0.322,1.218c1.01,1.433 2.278,1.846 2.944,3.574c0.473,0.039 0.816,1.021 1.139,1.335c-0.623,1.178 -1.504,1.591 -2.149,2.671c-0.559,0.687 -0.924,0.962 -1.139,1.119c-1.095,1.434 -1.267,1.257 -1.461,1.748l0,0.707c0.258,0.196 0.366,0.236 0.666,0.236c0.258,0 0.516,-0.04 0.709,-0.197c1.182,-0.589 1.676,-1.06 2.708,-1.905c0.386,-0.235 1.31,-1.021 1.611,-1.256c0.817,-0.354 1.697,-1.061 2.406,-1.748c0.495,-0.393 0.967,-0.943 0.967,-1.453Zm8.186,0c0,-0.373 -0.408,-0.884 -0.859,-1.179c-0.817,-0.765 -1.332,-0.923 -1.869,-1.472c-1.096,-0.747 -1.698,-1.768 -2.041,-1.768c-0.258,-0.334 -2.299,-1.963 -2.493,-2.042c-0.322,-0.098 -0.687,-0.373 -0.988,-0.373c-0.344,0 -0.451,0.078 -0.451,0.55l0,0.235c0,0.216 0.257,0.923 0.3,1.218c1.032,1.433 2.299,1.846 3.008,3.574c0.409,0.039 0.817,1.021 1.118,1.335c-0.602,1.178 -1.526,1.591 -2.127,2.671c-0.666,0.687 -0.967,0.962 -1.182,1.119c-1.074,1.434 -1.225,1.257 -1.418,1.748l0,0.707c0.215,0.196 0.344,0.236 0.601,0.236c0.323,0 0.559,-0.04 0.731,-0.197c1.225,-0.589 1.676,-1.06 2.686,-1.905c0.451,-0.235 1.289,-1.021 1.59,-1.256c0.816,-0.354 1.718,-1.061 2.428,-1.748c0.558,-0.393 0.966,-0.943 0.966,-1.453Z" style="fill:#fff;fill-rule:nonzero;"/></g><g><g><g><g><path d="M19.042,30.022c0.435,-0.137 0.922,-0.156 1.4,-0.156c0.825,0 1.643,0.074 2.459,0.156l2.601,0c0.047,0 0.561,-0.125 0.592,-0.125c0.062,-0.031 1.028,-0.031 1.355,-0.031c0.233,0 1.151,0 1.337,0.031c0.353,0.271 0.496,0.581 0.556,0.917c0.129,0.18 0.207,0.392 0.207,0.639c0,0.398 -0.022,0.799 -0.049,1.201c0.027,0.176 0.049,0.324 0.049,0.355l0,1.697c0,0.031 0.155,0.389 0.155,0.405c0.031,0.249 0.14,1.806 0.14,2.288l0,1.059c0.016,0.031 0.156,0.374 0.156,0.405l0,0.296c-0.031,0.218 -0.14,1.027 -0.156,1.23c-0.011,0.053 -0.029,0.096 -0.05,0.132c0.018,0.229 0.036,0.411 0.05,0.476l0,0.155c-0.046,0.592 -0.14,3.426 -0.155,4.033c-0.062,0.062 -0.14,0.358 -0.14,0.467l0,0.125c0.031,0.062 0.218,0.389 0.295,0.467l0,2.634c0.141,0.444 0.156,0.945 0.156,1.43c0,0.849 -0.076,1.69 -0.156,2.528l0,2.532c0,0.062 0.14,0.576 0.14,0.592c0.016,0.062 0.016,1.027 0.016,1.354c0,0.234 0,1.152 -0.016,1.338c-0.285,0.363 -0.606,0.508 -0.951,0.567c-0.175,0.122 -0.382,0.195 -0.62,0.195c-0.39,0 -0.781,-0.022 -1.173,-0.051c-0.189,0.028 -0.351,0.052 -0.383,0.052l-1.697,0c-0.031,0 -0.374,0.155 -0.405,0.155c-0.233,0.031 -1.806,0.14 -2.289,0.14l-1.043,0c-0.031,0.031 -0.389,0.156 -0.405,0.156l-0.295,0c-0.218,-0.016 -1.028,-0.125 -1.246,-0.156l0,0c-0.055,-0.013 -0.101,-0.032 -0.137,-0.056c-0.219,0.019 -0.392,0.038 -0.455,0.056l-0.171,0c-0.592,-0.062 -3.41,-0.14 -4.033,-0.171c-0.062,-0.047 -0.358,-0.125 -0.467,-0.125l-0.125,0c-0.062,0.016 -0.374,0.203 -0.467,0.296l-2.664,0c-0.435,0.137 -0.922,0.156 -1.4,0.156c-0.825,0 -1.643,-0.075 -2.459,-0.156l-2.601,0c-0.047,0 -0.561,0.125 -0.592,0.125c-0.062,0.031 -1.028,0.031 -1.355,0.031c-0.233,0 -1.151,0 -1.337,-0.031c-0.353,-0.271 -0.496,-0.581 -0.556,-0.917c-0.129,-0.18 -0.207,-0.392 -0.207,-0.639c0,-0.398 0.022,-0.799 0.049,-1.202c-0.027,-0.176 -0.049,-0.323 -0.049,-0.354l0,-1.697c0,-0.031 -0.155,-0.389 -0.155,-0.405c-0.031,-0.249 -0.14,-1.806 -0.14,-2.289l0,-1.058c-0.016,-0.032 -0.156,-0.374 -0.156,-0.405l0,-0.296c0.031,-0.218 0.14,-1.028 0.156,-1.23c0.011,-0.053 0.029,-0.096 0.05,-0.132c-0.018,-0.229 -0.036,-0.411 -0.05,-0.476l0,-0.156c0.046,-0.591 0.14,-3.425 0.155,-4.032c0.062,-0.063 0.14,-0.358 0.14,-0.467l0,-0.125c-0.031,-0.062 -0.218,-0.389 -0.295,-0.467l0,-2.634c-0.141,-0.444 -0.156,-0.945 -0.156,-1.431c0,-0.848 0.076,-1.689 0.156,-2.527l0,-2.532c0,-0.063 -0.14,-0.576 -0.14,-0.592c-0.016,-0.062 -0.016,-1.028 -0.016,-1.355c0,-0.233 0,-1.151 0.016,-1.338c0.285,-0.363 0.606,-0.507 0.951,-0.566c0.175,-0.123 0.382,-0.196 0.62,-0.196c0.39,0 0.781,0.023 1.173,0.052c0.189,-0.028 0.351,-0.052 0.383,-0.052l1.697,0c0.031,0 0.374,-0.155 0.405,-0.155c0.233,-0.032 1.806,-0.141 2.289,-0.141l1.043,0c0.031,-0.031 0.389,-0.155 0.405,-0.155l0.295,0c0.218,0.015 1.028,0.124 1.246,0.155l0,0.001c0.055,0.013 0.101,0.032 0.137,0.056c0.219,-0.019 0.392,-0.038 0.455,-0.056l0.171,0c0.592,0.062 3.41,0.14 4.033,0.171c0.062,0.047 0.358,0.124 0.467,0.124l0.125,0c0.062,-0.015 0.374,-0.202 0.467,-0.295l2.664,0Zm7.419,2.777c-0.309,-0.068 -0.748,-0.086 -1.099,-0.086l-0.342,0c-0.966,0 -2.258,0.062 -3.099,0.171c-0.109,0 -0.701,0.265 -0.747,0.296l-0.249,0c-0.25,0 -0.374,0 -0.514,-0.296l-1.043,0c-0.094,0 -0.545,-0.171 -0.592,-0.171c-0.109,0 -0.685,0.031 -1.09,0.031c-0.218,0 -0.374,0 -0.42,-0.031c-0.094,0 -0.545,-0.233 -0.592,-0.296l-0.171,0c-0.032,0 -0.53,0.172 -0.592,0.172l-0.888,0c-0.077,0 -0.56,0.124 -0.622,0.124l-0.296,0c-0.047,0 -0.53,-0.124 -0.592,-0.124l-0.125,0c-0.172,0 -1.215,0.124 -1.386,0.124c-0.078,0 -1.23,0.062 -1.635,0.062c-0.249,0 -1.401,-0.062 -1.65,-0.062c-0.078,-0.015 -0.514,-0.124 -0.592,-0.124c-0.109,0 -0.42,-0.032 -0.747,-0.032c-0.327,0 -0.654,0.032 -0.763,0.032c-0.007,-0.01 -0.016,-0.021 -0.026,-0.032c-0.311,-0.009 -0.595,-0.09 -0.876,-0.137c-0.509,0.104 -1.033,0 -1.511,0.293c-0.062,0.094 -0.514,0.436 -0.576,0.467c-0.078,0.033 -0.463,0.153 -0.701,0.231c-0.06,0.308 -0.078,0.74 -0.078,1.077l0,0.358c0,0.966 0.047,2.258 0.156,3.099c0,0.109 0.28,0.701 0.296,0.747l0,0.249c0,0.234 0,0.374 -0.296,0.514l0,1.043c0,0.078 -0.156,0.545 -0.156,0.592c0,0.109 0.031,0.67 0.031,1.074c0,0.218 0,0.39 -0.031,0.436c0,0.078 -0.249,0.545 -0.295,0.592l0,0.156c0,0.031 0.155,0.545 0.155,0.607l0,0.888c0,0.077 0.14,0.56 0.14,0.607l0,0.297c0,0.062 -0.14,0.544 -0.14,0.591l0,0.14c0,0.172 0.14,1.215 0.14,1.37c0,0.094 0.047,1.246 0.047,1.651c0,0.233 -0.047,1.401 -0.047,1.635c-0.031,0.093 -0.14,0.513 -0.14,0.591c0,0.109 -0.015,0.436 -0.015,0.763c0,0.327 0.015,0.638 0.015,0.747c-0.005,0.004 -0.01,0.009 -0.016,0.014c-0.004,0.323 -0.086,0.622 -0.129,0.927c0.091,0.498 0,1.022 0.285,1.488c0.078,0.062 0.436,0.514 0.452,0.561c0.044,0.077 0.168,0.471 0.24,0.708c0.309,0.068 0.748,0.086 1.099,0.086l0.342,0c0.966,0 2.258,-0.063 3.099,-0.172c0.109,0 0.701,-0.264 0.747,-0.295l0.249,0c0.25,0 0.374,0 0.514,0.295l1.043,0c0.094,0 0.545,0.172 0.592,0.172c0.109,0 0.685,-0.031 1.09,-0.031c0.218,0 0.374,0 0.42,0.031c0.094,0 0.545,0.233 0.592,0.295l0.171,0c0.032,0 0.53,-0.171 0.592,-0.171l0.888,0c0.077,0 0.56,-0.124 0.622,-0.124l0.296,0c0.047,0 0.53,0.124 0.592,0.124l0.125,0c0.172,0 1.215,-0.124 1.386,-0.124c0.078,0 1.23,-0.063 1.635,-0.063c0.249,0 1.401,0.063 1.65,0.063c0.078,0.015 0.514,0.124 0.592,0.124c0.109,0 0.42,0.031 0.747,0.031c0.327,0 0.654,-0.031 0.763,-0.031c0.007,0.01 0.016,0.021 0.026,0.032c0.311,0.009 0.595,0.089 0.876,0.136c0.509,-0.104 1.033,0.001 1.511,-0.292c0.062,-0.094 0.514,-0.436 0.576,-0.467c0.078,-0.034 0.463,-0.154 0.701,-0.231c0.06,-0.308 0.078,-0.74 0.078,-1.077l0,-0.359c0,-0.965 -0.047,-2.257 -0.156,-3.098c0,-0.109 -0.28,-0.701 -0.296,-0.747l0,-0.25c0,-0.233 0,-0.373 0.296,-0.513l0,-1.044c0,-0.077 0.156,-0.545 0.156,-0.591c0,-0.109 -0.031,-0.67 -0.031,-1.075c0,-0.218 0,-0.389 0.031,-0.436c0,-0.077 0.249,-0.545 0.295,-0.591l0,-0.156c0,-0.031 -0.155,-0.545 -0.155,-0.607l0,-0.888c0,-0.078 -0.14,-0.56 -0.14,-0.607l0,-0.297c0,-0.062 0.14,-0.545 0.14,-0.591l0,-0.14c0,-0.172 -0.14,-1.215 -0.14,-1.371c0,-0.093 -0.047,-1.245 -0.047,-1.65c0,-0.233 0.047,-1.401 0.047,-1.635c0.031,-0.093 0.14,-0.513 0.14,-0.591c0,-0.109 0.015,-0.436 0.015,-0.763c0,-0.327 -0.015,-0.639 -0.015,-0.747c0.005,-0.005 0.01,-0.009 0.016,-0.015c0.004,-0.322 0.086,-0.621 0.129,-0.926c-0.091,-0.498 0,-1.022 -0.285,-1.488c-0.078,-0.062 -0.436,-0.514 -0.452,-0.561c-0.044,-0.077 -0.168,-0.471 -0.24,-0.708Z" style="fill-rule:nonzero;"/></g></g></g></g></svg>