<?xml version="1.0" encoding="UTF-8" standalone="no"?><!DOCTYPE svg PUBLIC "-//W3C//DTD SVG 1.1//EN" "http://www.w3.org/Graphics/SVG/1.1/DTD/svg11.dtd"><svg width="100%" height="100%" viewBox="0 0 110 110" version="1.1" xmlns="http://www.w3.org/2000/svg" xmlns:xlink="http://www.w3.org/1999/xlink" xml:space="preserve" xmlns:serif="http://www.serif.com/" style="fill-rule:evenodd;clip-rule:evenodd;stroke-linecap:round;stroke-linejoin:round;stroke-miterlimit:1.5;"><g><circle cx="55" cy="55" r="50" style="stroke:#000;stroke-width:10px;"/><g><path d="M47.317,53.61c-0.488,0.293 -0.787,0.821 -0.787,1.39c-0,0.569 0.299,1.097 0.787,1.39c7.076,4.246 28.353,17.012 35.393,21.236c0.467,0.28 1.049,0.288 1.523,0.019c0.474,-0.268 0.767,-0.771 0.767,-1.315c-0,-8.409 -0,-34.277 -0,-42.671c-0,-0.542 -0.292,-1.043 -0.764,-1.31c-0.472,-0.267 -1.051,-0.26 -1.516,0.019c-7.031,4.219 -28.323,16.994 -35.403,21.242Z" style="fill:#fff;"/><path d="M17.317,53.61c-0.488,0.293 -0.787,0.821 -0.787,1.39c-0,0.569 0.299,1.097 0.787,1.39c7.076,4.246 28.353,17.012 35.393,21.236c0.467,0.28 1.049,0.288 1.523,0.019c0.474,-0.268 0.767,-0.771 0.767,-1.315c-0,-8.409 -0,-34.277 -0,-42.671c-0,-0.542 -0.292,-1.043 -0.764,-1.31c-0.472,-0.267 -1.051,-0.26 -1.516,0.019c-7.031,4.219 -28.323,16.994 -35.403,21.242Z" style="fill:#fff;"/></g></g></svg>