<?xml version="1.0" encoding="UTF-8" standalone="no"?><!DOCTYPE svg PUBLIC "-//W3C//DTD SVG 1.1//EN" "http://www.w3.org/Graphics/SVG/1.1/DTD/svg11.dtd"><svg width="100%" height="100%" viewBox="0 0 110 110" version="1.1" xmlns="http://www.w3.org/2000/svg" xmlns:xlink="http://www.w3.org/1999/xlink" xml:space="preserve" xmlns:serif="http://www.serif.com/" style="fill-rule:evenodd;clip-rule:evenodd;stroke-linecap:round;stroke-linejoin:round;stroke-miterlimit:1.5;"><g><circle cx="55" cy="55" r="50" style="fill:none;stroke:#000;stroke-width:10px;"/><g><path d="M33.458,31.895c-0.388,0 -0.759,0.154 -1.034,0.429c-0.274,0.274 -0.428,0.646 -0.428,1.033c0,2.038 0,5.714 0,7.774c0,0.83 0.673,1.503 1.503,1.503c6.963,0 36.031,0 42.999,0c0.399,0 0.782,-0.158 1.065,-0.441c0.282,-0.282 0.441,-0.665 0.441,-1.064c-0,-2.05 -0,-5.695 -0,-7.739c-0,-0.396 -0.158,-0.776 -0.438,-1.057c-0.281,-0.28 -0.661,-0.438 -1.057,-0.438c-6.963,0 -36.16,0 -43.051,0Z"/><path d="M76.542,78.105c0.388,-0 0.759,-0.154 1.034,-0.429c0.274,-0.274 0.428,-0.646 0.428,-1.033c-0,-2.038 -0,-5.714 -0,-7.774c-0,-0.83 -0.673,-1.503 -1.503,-1.503c-6.963,-0 -36.031,-0 -42.999,-0c-0.399,-0 -0.782,0.158 -1.065,0.441c-0.282,0.282 -0.441,0.665 -0.441,1.064c0,2.05 0,5.695 0,7.739c0,0.396 0.158,0.776 0.438,1.057c0.281,0.28 0.661,0.438 1.057,0.438c6.963,-0 36.16,-0 43.051,-0Z"/><path d="M76.542,60.37c0.388,-0 0.759,-0.154 1.034,-0.429c0.274,-0.274 0.428,-0.646 0.428,-1.033c-0,-2.038 -0,-5.714 -0,-7.774c-0,-0.831 -0.673,-1.504 -1.503,-1.504c-6.963,0 -36.031,0 -42.999,0c-0.399,0 -0.782,0.159 -1.065,0.442c-0.282,0.282 -0.441,0.665 -0.441,1.064c0,2.05 0,5.695 0,7.739c0,0.396 0.158,0.776 0.438,1.057c0.281,0.28 0.661,0.438 1.057,0.438c6.963,-0 36.16,-0 43.051,-0Z"/></g></g></svg>