<?xml version="1.0" encoding="UTF-8" standalone="no"?><!DOCTYPE svg PUBLIC "-//W3C//DTD SVG 1.1//EN" "http://www.w3.org/Graphics/SVG/1.1/DTD/svg11.dtd"><svg width="100%" height="100%" viewBox="0 0 1000 1000" version="1.1" xmlns="http://www.w3.org/2000/svg" xmlns:xlink="http://www.w3.org/1999/xlink" xml:space="preserve" xmlns:serif="http://www.serif.com/" style="fill-rule:evenodd;clip-rule:evenodd;stroke-linecap:round;stroke-linejoin:round;stroke-miterlimit:1.5;"><g id="Layer1"></g><path d="M574.257,970.297c145.815,0 284.429,-110.711 284.429,-239.424l-0,-465.346c-0,-55.237 -21.032,-88.675 -63.826,-88.675c-36.298,0 -63.987,25.258 -63.987,55.371l0,248.722l0,-349.089c0,-39.604 -33.778,-60.389 -63.611,-60.389c-25.685,0 -66.002,21.685 -66.002,60.389l0,331.087l0,-377.939c0,-36.903 -28.803,-58.001 -65.706,-58.001c-30.38,-0 -61.207,24.698 -61.207,58.001l0,376.139l0,-304.527c0,-35.104 -31.503,-58.506 -66.606,-58.506c-16.202,-0 -62.106,9.001 -62.106,58.506l-0,440.144c-0,-0 -60.619,-70.222 -90.91,-105.311c-47.06,-54.516 -139.81,5.607 -106.21,69.307c43.204,81.908 104.41,196.22 135.013,245.725c30.603,49.505 103.511,163.816 290.729,163.816Z" style="fill:none;stroke:#000;stroke-width:50px;"/></svg>