<?xml version="1.0" encoding="UTF-8" standalone="no"?>
<!DOCTYPE svg PUBLIC "-//W3C//DTD SVG 1.1//EN" "http://www.w3.org/Graphics/SVG/1.1/DTD/svg11.dtd">
<svg width="100%" height="100%" viewBox="0 0 30 30" version="1.1" xmlns="http://www.w3.org/2000/svg" xmlns:xlink="http://www.w3.org/1999/xlink" xml:space="preserve" xmlns:serif="http://www.serif.com/" style="fill-rule:evenodd;clip-rule:evenodd;stroke-linejoin:round;stroke-miterlimit:2;">
    <g transform="matrix(1,0,0,1,-30,0)">
        <g>
            <path d="M19.042,0.156C19.477,0.019 19.964,0 20.442,0C21.267,0 22.085,0.075 22.901,0.156L25.502,0.156C25.549,0.156 26.063,0.031 26.094,0.031C26.156,0 27.122,0 27.449,0C27.682,0 28.6,0 28.786,0.031C29.139,0.302 29.282,0.612 29.342,0.948C29.471,1.128 29.549,1.34 29.549,1.587C29.549,1.985 29.527,2.386 29.5,2.788C29.527,2.964 29.549,3.112 29.549,3.143L29.549,4.84C29.549,4.871 29.704,5.229 29.704,5.245C29.735,5.494 29.844,7.051 29.844,7.534L29.844,8.592C29.86,8.623 30,8.966 30,8.997L30,9.293C29.969,9.511 29.86,10.32 29.844,10.523C29.833,10.576 29.815,10.619 29.794,10.655C29.812,10.884 29.83,11.066 29.844,11.131L29.844,11.286C29.798,11.878 29.704,14.712 29.689,15.319C29.627,15.381 29.549,15.677 29.549,15.786L29.549,15.911C29.58,15.973 29.767,16.3 29.844,16.378L29.844,19.012C29.985,19.456 30,19.957 30,20.442C30,21.291 29.924,22.132 29.844,22.97L29.844,25.502C29.844,25.565 29.984,26.078 29.984,26.094C30,26.156 30,27.122 30,27.449C30,27.682 30,28.6 29.984,28.787C29.699,29.149 29.378,29.294 29.033,29.353C28.858,29.475 28.651,29.548 28.413,29.548C28.023,29.548 27.632,29.526 27.24,29.497C27.051,29.525 26.889,29.549 26.857,29.549L25.16,29.549C25.129,29.549 24.786,29.704 24.755,29.704C24.522,29.736 22.949,29.844 22.466,29.844L21.423,29.844C21.392,29.876 21.034,30 21.018,30L20.723,30C20.505,29.984 19.695,29.876 19.477,29.844L19.477,29.844C19.422,29.831 19.376,29.812 19.34,29.788C19.121,29.807 18.948,29.826 18.885,29.844L18.714,29.844C18.122,29.782 15.304,29.704 14.681,29.673C14.619,29.626 14.323,29.548 14.214,29.548L14.089,29.548C14.027,29.564 13.715,29.751 13.622,29.844L10.958,29.844C10.523,29.981 10.036,30 9.558,30C8.733,30 7.915,29.925 7.099,29.844L4.498,29.844C4.451,29.844 3.937,29.969 3.906,29.969C3.844,30 2.878,30 2.551,30C2.318,30 1.4,30 1.214,29.969C0.861,29.698 0.718,29.388 0.658,29.052C0.529,28.872 0.451,28.66 0.451,28.413C0.451,28.015 0.473,27.614 0.5,27.212C0.473,27.036 0.451,26.888 0.451,26.857L0.451,25.16C0.451,25.129 0.296,24.771 0.296,24.755C0.265,24.506 0.156,22.949 0.156,22.466L0.156,21.408C0.14,21.377 0,21.034 0,21.003L0,20.707C0.031,20.489 0.14,19.68 0.156,19.477C0.167,19.424 0.185,19.381 0.206,19.345C0.188,19.116 0.17,18.934 0.156,18.869L0.156,18.714C0.202,18.122 0.296,15.288 0.311,14.681C0.373,14.619 0.451,14.323 0.451,14.214L0.451,14.089C0.42,14.027 0.233,13.7 0.156,13.622L0.156,10.988C0.015,10.544 0,10.043 0,9.558C0,8.709 0.076,7.868 0.156,7.03L0.156,4.498C0.156,4.435 0.016,3.922 0.016,3.906C0,3.844 0,2.878 0,2.551C0,2.318 0,1.4 0.016,1.213C0.301,0.851 0.622,0.706 0.967,0.647C1.142,0.525 1.349,0.452 1.587,0.452C1.977,0.452 2.368,0.474 2.76,0.503C2.949,0.475 3.111,0.451 3.143,0.451L4.84,0.451C4.871,0.451 5.214,0.296 5.245,0.296C5.478,0.264 7.051,0.156 7.534,0.156L8.577,0.156C8.608,0.124 8.966,0 8.982,0L9.277,0C9.495,0.016 10.305,0.124 10.523,0.156L10.523,0.156C10.578,0.169 10.624,0.188 10.66,0.212C10.879,0.193 11.052,0.174 11.115,0.156L11.286,0.156C11.878,0.218 14.696,0.296 15.319,0.327C15.381,0.374 15.677,0.452 15.786,0.452L15.911,0.452C15.973,0.436 16.285,0.249 16.378,0.156L19.042,0.156ZM26.461,2.933C26.152,2.865 25.713,2.847 25.362,2.847L25.02,2.847C24.054,2.847 22.762,2.91 21.921,3.018C21.812,3.018 21.22,3.283 21.174,3.314L20.925,3.314C20.675,3.314 20.551,3.314 20.411,3.018L19.368,3.018C19.274,3.018 18.823,2.847 18.776,2.847C18.667,2.847 18.091,2.878 17.686,2.878C17.468,2.878 17.312,2.878 17.266,2.847C17.172,2.847 16.721,2.614 16.674,2.552L16.503,2.552C16.471,2.552 15.973,2.723 15.911,2.723L15.023,2.723C14.946,2.723 14.463,2.847 14.401,2.847L14.105,2.847C14.058,2.847 13.575,2.723 13.513,2.723L13.388,2.723C13.216,2.723 12.173,2.847 12.002,2.847C11.924,2.847 10.772,2.91 10.367,2.91C10.118,2.91 8.966,2.847 8.717,2.847C8.639,2.832 8.203,2.723 8.125,2.723C8.016,2.723 7.705,2.692 7.378,2.692C7.051,2.692 6.724,2.723 6.615,2.723C6.608,2.713 6.599,2.702 6.589,2.691C6.278,2.682 5.994,2.602 5.713,2.554C5.204,2.658 4.68,2.554 4.202,2.847C4.14,2.941 3.688,3.283 3.626,3.314C3.548,3.348 3.163,3.467 2.925,3.545C2.865,3.853 2.847,4.285 2.847,4.622L2.847,4.98C2.847,5.946 2.894,7.238 3.003,8.079C3.003,8.188 3.283,8.78 3.299,8.826L3.299,9.075C3.299,9.309 3.299,9.449 3.003,9.589L3.003,10.633C3.003,10.71 2.847,11.177 2.847,11.224C2.847,11.333 2.878,11.894 2.878,12.299C2.878,12.517 2.878,12.688 2.847,12.735C2.847,12.812 2.598,13.279 2.552,13.326L2.552,13.482C2.552,13.513 2.707,14.027 2.707,14.089L2.707,14.977C2.707,15.055 2.847,15.537 2.847,15.584L2.847,15.881C2.847,15.943 2.707,16.426 2.707,16.472L2.707,16.612C2.707,16.784 2.847,17.827 2.847,17.982C2.847,18.076 2.894,19.228 2.894,19.633C2.894,19.866 2.847,21.034 2.847,21.268C2.816,21.361 2.707,21.781 2.707,21.859C2.707,21.968 2.692,22.295 2.692,22.622C2.692,22.949 2.707,23.26 2.707,23.369C2.702,23.374 2.697,23.378 2.691,23.383C2.687,23.706 2.605,24.005 2.562,24.31C2.653,24.808 2.562,25.332 2.847,25.798C2.925,25.86 3.283,26.312 3.299,26.359C3.343,26.436 3.467,26.83 3.539,27.067C3.848,27.135 4.287,27.153 4.638,27.153L4.98,27.153C5.946,27.153 7.238,27.09 8.079,26.982C8.188,26.982 8.78,26.717 8.826,26.686L9.075,26.686C9.325,26.686 9.449,26.686 9.589,26.982L10.632,26.982C10.726,26.982 11.177,27.153 11.224,27.153C11.333,27.153 11.909,27.122 12.314,27.122C12.532,27.122 12.688,27.122 12.734,27.153C12.828,27.153 13.279,27.386 13.326,27.448L13.497,27.448C13.529,27.448 14.027,27.277 14.089,27.277L14.977,27.277C15.054,27.277 15.537,27.153 15.599,27.153L15.895,27.153C15.942,27.153 16.425,27.277 16.487,27.277L16.612,27.277C16.784,27.277 17.827,27.153 17.998,27.153C18.076,27.153 19.228,27.09 19.633,27.09C19.882,27.09 21.034,27.153 21.283,27.153C21.361,27.168 21.797,27.277 21.875,27.277C21.984,27.277 22.295,27.308 22.622,27.308C22.949,27.308 23.276,27.277 23.385,27.277C23.392,27.287 23.401,27.298 23.411,27.309C23.722,27.318 24.006,27.398 24.287,27.446C24.796,27.342 25.32,27.446 25.798,27.153C25.86,27.059 26.312,26.717 26.374,26.686C26.452,26.652 26.837,26.533 27.075,26.455C27.135,26.147 27.153,25.715 27.153,25.378L27.153,25.02C27.153,24.054 27.106,22.762 26.997,21.921C26.997,21.812 26.717,21.22 26.701,21.174L26.701,20.925C26.701,20.691 26.701,20.551 26.997,20.411L26.997,19.367C26.997,19.29 27.153,18.823 27.153,18.776C27.153,18.667 27.122,18.106 27.122,17.701C27.122,17.483 27.122,17.312 27.153,17.265C27.153,17.188 27.402,16.721 27.448,16.674L27.448,16.518C27.448,16.487 27.293,15.973 27.293,15.911L27.293,15.023C27.293,14.945 27.153,14.463 27.153,14.416L27.153,14.119C27.153,14.057 27.293,13.574 27.293,13.528L27.293,13.388C27.293,13.216 27.153,12.173 27.153,12.018C27.153,11.924 27.106,10.772 27.106,10.367C27.106,10.134 27.153,8.966 27.153,8.732C27.184,8.639 27.293,8.219 27.293,8.141C27.293,8.032 27.308,7.705 27.308,7.378C27.308,7.051 27.293,6.74 27.293,6.631C27.298,6.626 27.303,6.622 27.309,6.617C27.313,6.294 27.395,5.995 27.438,5.69C27.347,5.192 27.438,4.668 27.153,4.202C27.075,4.14 26.717,3.688 26.701,3.641C26.657,3.564 26.533,3.17 26.461,2.933Z" style="fill-rule:nonzero;"/>
        </g>
        <path d="M19.042,30.156C19.477,30.019 19.964,30 20.442,30C21.267,30 22.085,30.075 22.901,30.156L25.502,30.156C25.549,30.156 26.063,30.031 26.094,30.031C26.156,30 27.122,30 27.449,30C27.682,30 28.6,30 28.786,30.031C29.139,30.302 29.282,30.612 29.342,30.948C29.471,31.128 29.549,31.34 29.549,31.587C29.549,31.985 29.527,32.386 29.5,32.788C29.527,32.964 29.549,33.112 29.549,33.143L29.549,34.84C29.549,34.871 29.704,35.229 29.704,35.245C29.735,35.494 29.844,37.051 29.844,37.534L29.844,38.592C29.86,38.623 30,38.966 30,38.997L30,39.293C29.969,39.511 29.86,40.32 29.844,40.523C29.833,40.576 29.815,40.619 29.794,40.655C29.812,40.884 29.83,41.066 29.844,41.131L29.844,41.286C29.798,41.878 29.704,44.712 29.689,45.319C29.627,45.381 29.549,45.677 29.549,45.786L29.549,45.911C29.58,45.973 29.767,46.3 29.844,46.378L29.844,49.012C29.985,49.456 30,49.957 30,50.442C30,51.291 29.924,52.132 29.844,52.97L29.844,55.502C29.844,55.565 29.984,56.078 29.984,56.094C30,56.156 30,57.122 30,57.449C30,57.682 30,58.6 29.984,58.787C29.699,59.149 29.378,59.294 29.033,59.353C28.858,59.475 28.651,59.548 28.413,59.548C28.023,59.548 27.632,59.526 27.24,59.497C27.051,59.525 26.889,59.549 26.857,59.549L25.16,59.549C25.129,59.549 24.786,59.704 24.755,59.704C24.522,59.736 22.949,59.844 22.466,59.844L21.423,59.844C21.392,59.876 21.034,60 21.018,60L20.723,60C20.505,59.984 19.695,59.876 19.477,59.844L19.477,59.844C19.422,59.831 19.376,59.812 19.34,59.788C19.121,59.807 18.948,59.826 18.885,59.844L18.714,59.844C18.122,59.782 15.304,59.704 14.681,59.673C14.619,59.626 14.323,59.548 14.214,59.548L14.089,59.548C14.027,59.564 13.715,59.751 13.622,59.844L10.958,59.844C10.523,59.981 10.036,60 9.558,60C8.733,60 7.915,59.925 7.099,59.844L4.498,59.844C4.451,59.844 3.937,59.969 3.906,59.969C3.844,60 2.878,60 2.551,60C2.318,60 1.4,60 1.214,59.969C0.861,59.698 0.718,59.388 0.658,59.052C0.529,58.872 0.451,58.66 0.451,58.413C0.451,58.015 0.473,57.614 0.5,57.212C0.473,57.036 0.451,56.888 0.451,56.857L0.451,55.16C0.451,55.129 0.296,54.771 0.296,54.755C0.265,54.506 0.156,52.949 0.156,52.466L0.156,51.408C0.14,51.377 0,51.034 0,51.003L0,50.707C0.031,50.489 0.14,49.68 0.156,49.477C0.167,49.424 0.185,49.381 0.206,49.345C0.188,49.116 0.17,48.934 0.156,48.869L0.156,48.714C0.202,48.122 0.296,45.288 0.311,44.681C0.373,44.619 0.451,44.323 0.451,44.214L0.451,44.089C0.42,44.027 0.233,43.7 0.156,43.622L0.156,40.988C0.015,40.544 0,40.043 0,39.558C0,38.709 0.076,37.868 0.156,37.03L0.156,34.498C0.156,34.435 0.016,33.922 0.016,33.906C0,33.844 0,32.878 0,32.551C0,32.318 0,31.4 0.016,31.213C0.301,30.851 0.622,30.706 0.967,30.647C1.142,30.525 1.349,30.452 1.587,30.452C1.977,30.452 2.368,30.474 2.76,30.503C2.949,30.475 3.111,30.451 3.143,30.451L4.84,30.451C4.871,30.451 5.214,30.296 5.245,30.296C5.478,30.264 7.051,30.156 7.534,30.156L8.577,30.156C8.608,30.124 8.966,30 8.982,30L9.277,30C9.495,30.016 10.305,30.124 10.523,30.156L10.523,30.156C10.578,30.169 10.624,30.188 10.66,30.212C10.879,30.193 11.052,30.174 11.115,30.156L11.286,30.156C11.878,30.218 14.696,30.296 15.319,30.327C15.381,30.374 15.677,30.452 15.786,30.452L15.911,30.452C15.973,30.436 16.285,30.249 16.378,30.156L19.042,30.156ZM10.101,36.191C10.14,36.161 10.178,36.135 10.215,36.111C10.271,36.153 10.329,36.193 10.391,36.23L10.823,36.243C10.917,36.313 10.988,36.415 11.042,36.533C11.431,36.684 11.835,36.819 12.161,37.036C12.612,37.306 12.566,37.634 13.204,37.847C13.578,37.975 14.231,39.213 14.792,39.285C14.792,39.285 14.932,39.327 14.932,39.356C15.944,40.025 15.929,40.195 16.147,40.267C16.147,40.267 16.38,40.295 16.676,40.295C16.941,40.48 17.33,41.035 17.672,41.249C18.965,41.818 18.918,41.989 19.074,42.216C19.447,42.529 19.696,42.487 20.179,42.97C20.335,42.97 20.693,43.639 20.848,43.71C21.502,44.109 22.95,44.522 22.95,45.39C22.95,46.13 21.767,46.841 21.129,46.984C20.802,47.055 20.288,47.923 20.101,47.923C19.743,48.393 19.556,48.364 19.136,48.563C18.965,48.734 18.638,49.574 18.186,49.574C18.155,49.574 17.999,49.616 17.999,49.616C17.641,49.702 17.376,49.816 17.112,50.058L16.676,50.584L16.147,50.584C16.038,50.584 15.197,51.424 14.636,51.566C14.045,51.908 13.764,52.619 13.282,52.89L12.939,52.989L12.161,53.928C11.881,54.057 11.46,54.028 11.242,54.199C10.915,54.427 10.588,54.711 10.246,54.711C9.327,54.711 8.658,53.687 8.658,53.146C8.658,52.832 8.818,52.584 9.052,52.377C9.049,52.362 9.047,52.346 9.045,52.33L9.045,51.708C9.034,51.338 8.795,51.061 8.795,50.651C8.795,50.4 8.988,50.215 8.988,49.898L8.874,49.369L9.125,47.703C9.125,47.254 8.988,46.791 8.988,46.263L9.045,45.734L8.794,45.232C8.794,45.126 8.988,44.756 9.045,44.782C8.965,44.624 8.681,43.037 8.681,42.813C8.681,42.509 8.817,42.377 8.817,42.059C8.817,41.821 8.737,41.689 8.737,41.531C8.737,40.936 8.988,40.394 8.988,39.865C8.988,39.363 8.794,38.9 8.795,38.398L8.897,37.896C8.897,37.592 8.658,37.486 8.658,37.169C8.658,36.746 8.829,36.362 9.114,36.111L9.41,36.111C9.677,36.111 9.877,36.154 10.101,36.191ZM11.134,38.587L11.119,38.834C11.119,40.05 11.165,41.279 11.199,42.495C11.233,42.998 11.393,43.593 11.393,44.108L11.199,44.624L11.393,45.324L11.279,46.672C11.279,47.955 11.301,49.197 11.381,50.387C11.384,50.513 11.394,50.643 11.408,50.777C11.842,50.48 12.366,50.155 12.799,49.873C13.235,49.873 14.154,48.834 14.356,48.563C14.932,48.065 14.948,48.606 15.352,47.894C15.446,47.752 16.707,47.055 16.738,47.055C16.847,47.041 17.034,46.87 17.05,46.841C17.844,46.315 18.513,45.774 19.4,45.262C19.618,45.262 19.945,44.949 19.945,44.621C18.965,43.853 18.638,43.839 17.563,43.141C17.252,42.942 17.143,42.657 16.707,42.501C16.676,42.501 16.442,42.458 16.442,42.458C16.271,42.287 16.256,41.946 16.006,41.946C15.493,41.946 15.041,41.206 14.792,41.007L13.749,40.295C13.64,40.295 13.048,39.797 12.939,39.726C12.635,39.567 11.657,38.706 11.134,38.587Z"/>
        <path d="M49.042,30.022C49.477,29.885 49.964,29.866 50.442,29.866C51.267,29.866 52.085,29.94 52.901,30.022L55.502,30.022C55.549,30.022 56.063,29.897 56.094,29.897C56.156,29.866 57.122,29.866 57.449,29.866C57.682,29.866 58.6,29.866 58.786,29.897C59.139,30.168 59.282,30.478 59.342,30.814C59.471,30.994 59.549,31.206 59.549,31.453C59.549,31.851 59.527,32.252 59.5,32.654C59.527,32.83 59.549,32.978 59.549,33.009L59.549,34.706C59.549,34.737 59.704,35.095 59.704,35.111C59.735,35.36 59.844,36.917 59.844,37.399L59.844,38.458C59.86,38.489 60,38.832 60,38.863L60,39.159C59.969,39.377 59.86,40.186 59.844,40.389C59.833,40.442 59.815,40.485 59.794,40.521C59.812,40.75 59.83,40.932 59.844,40.997L59.844,41.152C59.798,41.744 59.704,44.578 59.689,45.185C59.627,45.247 59.549,45.543 59.549,45.652L59.549,45.777C59.58,45.839 59.767,46.166 59.844,46.244L59.844,48.878C59.985,49.322 60,49.823 60,50.308C60,51.157 59.924,51.998 59.844,52.836L59.844,55.368C59.844,55.43 59.984,55.944 59.984,55.96C60,56.022 60,56.987 60,57.314C60,57.548 60,58.466 59.984,58.652C59.699,59.015 59.378,59.16 59.033,59.219C58.858,59.341 58.651,59.414 58.413,59.414C58.023,59.414 57.632,59.392 57.24,59.363C57.051,59.391 56.889,59.415 56.857,59.415L55.16,59.415C55.129,59.415 54.786,59.57 54.755,59.57C54.522,59.601 52.949,59.71 52.466,59.71L51.423,59.71C51.392,59.741 51.034,59.866 51.018,59.866L50.723,59.866C50.505,59.85 49.695,59.741 49.477,59.71L49.477,59.71C49.422,59.697 49.376,59.678 49.34,59.654C49.121,59.673 48.948,59.692 48.885,59.71L48.714,59.71C48.122,59.648 45.304,59.57 44.681,59.539C44.619,59.492 44.323,59.414 44.214,59.414L44.089,59.414C44.027,59.43 43.715,59.617 43.622,59.71L40.958,59.71C40.523,59.847 40.036,59.866 39.558,59.866C38.733,59.866 37.915,59.791 37.099,59.71L34.498,59.71C34.451,59.71 33.937,59.835 33.906,59.835C33.844,59.866 32.878,59.866 32.551,59.866C32.318,59.866 31.4,59.866 31.214,59.835C30.861,59.564 30.718,59.254 30.658,58.918C30.529,58.738 30.451,58.526 30.451,58.279C30.451,57.881 30.473,57.48 30.5,57.077C30.473,56.901 30.451,56.754 30.451,56.723L30.451,55.026C30.451,54.995 30.296,54.637 30.296,54.621C30.265,54.372 30.156,52.815 30.156,52.332L30.156,51.274C30.14,51.242 30,50.9 30,50.869L30,50.573C30.031,50.355 30.14,49.545 30.156,49.343C30.167,49.29 30.185,49.247 30.206,49.211C30.188,48.982 30.17,48.8 30.156,48.735L30.156,48.579C30.202,47.988 30.296,45.154 30.311,44.547C30.373,44.484 30.451,44.189 30.451,44.08L30.451,43.955C30.42,43.893 30.233,43.566 30.156,43.488L30.156,40.854C30.015,40.41 30,39.909 30,39.423C30,38.575 30.076,37.734 30.156,36.896L30.156,34.364C30.156,34.301 30.016,33.788 30.016,33.772C30,33.71 30,32.744 30,32.417C30,32.184 30,31.266 30.016,31.079C30.301,30.716 30.622,30.572 30.967,30.513C31.142,30.39 31.349,30.317 31.587,30.317C31.977,30.317 32.368,30.34 32.76,30.369C32.949,30.341 33.111,30.317 33.143,30.317L34.84,30.317C34.871,30.317 35.214,30.162 35.245,30.162C35.478,30.13 37.051,30.021 37.534,30.021L38.577,30.021C38.608,29.99 38.966,29.866 38.982,29.866L39.277,29.866C39.495,29.881 40.305,29.99 40.523,30.021L40.523,30.022C40.578,30.035 40.624,30.054 40.66,30.078C40.879,30.059 41.052,30.04 41.115,30.022L41.286,30.022C41.878,30.084 44.696,30.162 45.319,30.193C45.381,30.24 45.677,30.317 45.786,30.317L45.911,30.317C45.973,30.302 46.285,30.115 46.378,30.022L49.042,30.022ZM42.062,53.256C42.461,53.081 42.832,51.952 42.832,51.4C42.832,50.396 42.689,49.267 42.661,48.314C42.561,46.056 42.532,43.747 42.532,41.414L42.689,38.804C42.689,37.951 42.561,36.948 42.19,36.421L41.819,36.421L40.335,36.245L40.064,36.245C39.679,36.722 39.422,37.475 39.422,38.202C39.422,38.754 39.751,39.03 39.751,39.557L39.679,40.536L39.85,43.321C39.85,43.747 39.793,44.224 39.722,44.801C39.651,45.328 39.579,45.88 39.579,46.457L39.679,47.436C39.679,48.063 39.422,48.364 39.422,48.891C39.422,49.669 39.722,50.17 39.751,50.873L39.751,52.052C39.822,53.256 40.935,53.256 41.477,53.256L42.062,53.256ZM49.807,53.256C50.207,53.081 50.578,51.952 50.578,51.4C50.578,50.396 50.435,49.267 50.406,48.314C50.307,46.056 50.278,43.747 50.278,41.414L50.435,38.804C50.435,37.951 50.307,36.948 49.936,36.421L49.565,36.421L48.081,36.245L47.81,36.245C47.425,36.722 47.168,37.475 47.168,38.202C47.168,38.754 47.496,39.03 47.496,39.557L47.425,40.536L47.596,43.321C47.596,43.747 47.539,44.224 47.468,44.801C47.396,45.328 47.325,45.88 47.325,46.457L47.425,47.436C47.425,48.063 47.168,48.364 47.168,48.891C47.168,49.669 47.468,50.17 47.496,50.873L47.496,52.052C47.568,53.256 48.68,53.256 49.222,53.256L49.807,53.256Z"/>
        <g transform="matrix(1,0,0,1,60,-0.26818)">
            <path d="M19.042,30.156C19.477,30.019 19.964,30 20.442,30C21.267,30 22.085,30.075 22.901,30.156L25.502,30.156C25.549,30.156 26.063,30.031 26.094,30.031C26.156,30 27.122,30 27.449,30C27.682,30 28.6,30 28.786,30.031C29.139,30.302 29.282,30.612 29.342,30.948C29.471,31.128 29.549,31.34 29.549,31.587C29.549,31.985 29.527,32.386 29.5,32.788C29.527,32.964 29.549,33.112 29.549,33.143L29.549,34.84C29.549,34.871 29.704,35.229 29.704,35.245C29.735,35.494 29.844,37.051 29.844,37.534L29.844,38.592C29.86,38.623 30,38.966 30,38.997L30,39.293C29.969,39.511 29.86,40.32 29.844,40.523C29.833,40.576 29.815,40.619 29.794,40.655C29.812,40.884 29.83,41.066 29.844,41.131L29.844,41.286C29.798,41.878 29.704,44.712 29.689,45.319C29.627,45.381 29.549,45.677 29.549,45.786L29.549,45.911C29.58,45.973 29.767,46.3 29.844,46.378L29.844,49.012C29.985,49.456 30,49.957 30,50.442C30,51.291 29.924,52.132 29.844,52.97L29.844,55.502C29.844,55.565 29.984,56.078 29.984,56.094C30,56.156 30,57.122 30,57.449C30,57.682 30,58.6 29.984,58.787C29.699,59.149 29.378,59.294 29.033,59.353C28.858,59.475 28.651,59.548 28.413,59.548C28.023,59.548 27.632,59.526 27.24,59.497C27.051,59.525 26.889,59.549 26.857,59.549L25.16,59.549C25.129,59.549 24.786,59.704 24.755,59.704C24.522,59.736 22.949,59.844 22.466,59.844L21.423,59.844C21.392,59.876 21.034,60 21.018,60L20.723,60C20.505,59.984 19.695,59.876 19.477,59.844L19.477,59.844C19.422,59.831 19.376,59.812 19.34,59.788C19.121,59.807 18.948,59.826 18.885,59.844L18.714,59.844C18.122,59.782 15.304,59.704 14.681,59.673C14.619,59.626 14.323,59.548 14.214,59.548L14.089,59.548C14.027,59.564 13.715,59.751 13.622,59.844L10.958,59.844C10.523,59.981 10.036,60 9.558,60C8.733,60 7.915,59.925 7.099,59.844L4.498,59.844C4.451,59.844 3.937,59.969 3.906,59.969C3.844,60 2.878,60 2.551,60C2.318,60 1.4,60 1.214,59.969C0.861,59.698 0.718,59.388 0.658,59.052C0.529,58.872 0.451,58.66 0.451,58.413C0.451,58.015 0.473,57.614 0.5,57.212C0.473,57.036 0.451,56.888 0.451,56.857L0.451,55.16C0.451,55.129 0.296,54.771 0.296,54.755C0.265,54.506 0.156,52.949 0.156,52.466L0.156,51.408C0.14,51.377 0,51.034 0,51.003L0,50.707C0.031,50.489 0.14,49.68 0.156,49.477C0.167,49.424 0.185,49.381 0.206,49.345C0.188,49.116 0.17,48.934 0.156,48.869L0.156,48.714C0.202,48.122 0.296,45.288 0.311,44.681C0.373,44.619 0.451,44.323 0.451,44.214L0.451,44.089C0.42,44.027 0.233,43.7 0.156,43.622L0.156,40.988C0.015,40.544 0,40.043 0,39.558C0,38.709 0.076,37.868 0.156,37.03L0.156,34.498C0.156,34.435 0.016,33.922 0.016,33.906C0,33.844 0,32.878 0,32.551C0,32.318 0,31.4 0.016,31.213C0.301,30.851 0.622,30.706 0.967,30.647C1.142,30.525 1.349,30.452 1.587,30.452C1.977,30.452 2.368,30.474 2.76,30.503C2.949,30.475 3.111,30.451 3.143,30.451L4.84,30.451C4.871,30.451 5.214,30.296 5.245,30.296C5.478,30.264 7.051,30.156 7.534,30.156L8.577,30.156C8.608,30.124 8.966,30 8.982,30L9.277,30C9.495,30.016 10.305,30.124 10.523,30.156L10.523,30.156C10.578,30.169 10.624,30.188 10.66,30.212C10.879,30.193 11.052,30.174 11.115,30.156L11.286,30.156C11.878,30.218 14.696,30.296 15.319,30.327C15.381,30.374 15.677,30.452 15.786,30.452L15.911,30.452C15.973,30.436 16.285,30.249 16.378,30.156L19.042,30.156ZM13.047,37.198C13.467,37.051 13.946,37.031 14.415,37.031C14.609,37.031 14.804,37.036 14.997,37.044C15.021,37.036 15.037,37.031 15.04,37.031L15.313,37.031C15.424,37.039 15.699,37.073 15.958,37.106C17.099,37.202 18.232,37.358 19.373,37.358L20.335,37.358C20.364,37.358 20.81,37.173 20.881,37.173C21.657,37.173 22.82,37.571 22.82,38.479C22.82,39.458 22.676,40.453 22.676,41.447C22.676,42.314 22.892,43.18 22.949,44.032L22.949,45.41C22.964,45.581 23.05,46.987 23.093,47.186L23.093,47.328C23.05,47.867 23.106,49.124 23.106,49.365C23.106,49.422 23.236,49.891 23.236,49.905C23.25,49.962 23.25,50.842 23.25,51.141C23.25,51.354 23.25,52.191 23.236,52.361C22.704,53.028 22.044,52.886 21.326,52.929C21.196,52.929 20.421,53.057 20.349,53.057L18.783,53.057C18.754,53.057 18.438,53.199 18.409,53.199C18.275,53.216 17.668,53.261 17.119,53.292C16.659,53.505 16.109,53.531 15.572,53.531C13.905,53.531 12.266,53.205 10.614,53.205L9.651,53.205C9.622,53.205 9.177,53.389 9.105,53.389C8.33,53.389 7.167,52.992 7.167,52.084C7.167,51.104 6.894,45.083 6.894,45.083C6.937,45.041 7.037,44.771 7.037,44.686C7.037,44.572 6.894,43.706 6.894,43.592L6.894,41.135C6.894,41.078 6.764,40.609 6.764,40.595C6.75,40.538 6.75,39.657 6.75,39.359C6.75,39.146 6.75,38.309 6.764,38.138C7.296,37.471 7.956,37.613 8.674,37.571C8.804,37.571 9.579,37.443 9.651,37.443L11.217,37.443C11.246,37.443 11.562,37.301 11.591,37.301C11.738,37.282 12.461,37.229 13.047,37.198ZM13.662,51.36C13.784,51.31 13.916,51.283 13.954,51.283C14.63,51.169 15.204,51.141 15.822,51.141L16.57,51.141C16.713,51.041 16.843,51.013 16.972,51.013C17.015,51.013 17.072,51.013 17.116,51.013C17.547,51.013 17.92,51.169 18.308,51.169C18.409,51.169 18.639,51.169 18.682,51.141C19.013,51.141 19.846,51.013 19.932,51.013C20.004,50.999 20.406,50.601 20.478,50.473C20.593,50.232 20.622,49.663 20.622,49.251L20.622,48.925C20.622,48.044 20.609,48.137 20.609,47.995C20.609,47.909 20.565,46.858 20.565,46.489C20.565,46.276 20.609,45.211 20.609,44.998C20.637,44.912 20.738,44.529 20.738,44.458C20.738,44.359 20.752,44.06 20.752,43.762C20.752,43.464 20.738,43.18 20.738,43.081C20.838,42.995 21.011,42.754 21.011,42.683C21.011,42.612 20.881,42.285 20.881,42.271C20.781,41.802 20.881,41.305 20.609,40.865C20.537,40.808 20.206,40.396 20.192,40.353C20.134,40.254 19.933,39.586 19.919,39.544C19.833,39.416 19.559,39.26 19.488,39.217C19.215,39.217 17.979,39.089 17.706,39.089L17.26,39.089C17.174,39.089 16.254,39.217 16.182,39.217C16.154,39.245 16.039,39.245 15.909,39.245L15.87,39.245C15.514,39.298 15.185,39.329 14.858,39.344C14.821,39.353 14.791,39.359 14.774,39.359L13.43,39.359C13.287,39.458 13.157,39.487 13.028,39.487C12.985,39.487 12.928,39.487 12.884,39.487C12.453,39.487 12.08,39.331 11.692,39.331C11.591,39.331 11.361,39.331 11.318,39.359C10.987,39.359 10.154,39.487 10.068,39.487C9.996,39.501 9.594,39.899 9.522,40.027C9.407,40.268 9.378,40.836 9.378,41.248L9.378,41.575C9.378,42.456 9.421,43.635 9.522,44.402C9.522,44.501 9.78,45.041 9.795,45.083L9.795,45.311C9.795,45.524 9.795,45.652 9.522,45.779L9.522,46.731C9.522,46.802 9.378,47.228 9.378,47.271C9.378,47.37 9.407,47.882 9.407,48.251C9.407,48.45 9.407,48.606 9.378,48.649C9.378,48.72 9.105,49.258 9.378,49.698C9.45,49.755 9.78,50.167 9.795,50.21C9.852,50.309 10.053,50.977 10.068,51.019C10.154,51.147 10.427,51.303 10.499,51.346C10.772,51.346 12.008,51.474 12.281,51.474L12.726,51.474C12.794,51.474 13.383,51.394 13.662,51.36Z"/>
        </g>
        <g transform="matrix(2.65715,0,0,2.65715,-149.076,-240.094)">
            <g transform="matrix(0.376343,0,0,0.376343,56.1038,90.3576)">
                <path d="M49.042,0.156C49.477,0.019 49.964,0 50.442,0C51.267,0 52.085,0.075 52.901,0.156L55.502,0.156C55.549,0.156 56.063,0.031 56.094,0.031C56.156,0 57.122,0 57.449,0C57.682,0 58.6,0 58.786,0.031C59.139,0.302 59.282,0.612 59.342,0.948C59.471,1.128 59.549,1.34 59.549,1.587C59.549,1.985 59.527,2.386 59.5,2.788C59.527,2.964 59.549,3.112 59.549,3.143L59.549,4.84C59.549,4.871 59.704,5.229 59.704,5.245C59.735,5.494 59.844,7.051 59.844,7.534L59.844,8.592C59.86,8.623 60,8.966 60,8.997L60,9.293C59.969,9.511 59.86,10.32 59.844,10.523C59.833,10.576 59.815,10.619 59.794,10.655C59.812,10.884 59.83,11.066 59.844,11.131L59.844,11.286C59.798,11.878 59.704,14.712 59.689,15.319C59.627,15.381 59.549,15.677 59.549,15.786L59.549,15.911C59.58,15.973 59.767,16.3 59.844,16.378L59.844,19.012C59.985,19.456 60,19.957 60,20.442C60,21.291 59.924,22.132 59.844,22.97L59.844,25.502C59.844,25.565 59.984,26.078 59.984,26.094C60,26.156 60,27.122 60,27.449C60,27.682 60,28.6 59.984,28.787C59.699,29.149 59.378,29.294 59.033,29.353C58.858,29.475 58.651,29.548 58.413,29.548C58.023,29.548 57.632,29.526 57.24,29.497C57.051,29.525 56.889,29.549 56.857,29.549L55.16,29.549C55.129,29.549 54.786,29.704 54.755,29.704C54.522,29.736 52.949,29.844 52.466,29.844L51.423,29.844C51.392,29.876 51.034,30 51.018,30L50.723,30C50.505,29.984 49.695,29.876 49.477,29.844L49.477,29.844C49.422,29.831 49.376,29.812 49.34,29.788C49.121,29.807 48.948,29.826 48.885,29.844L48.714,29.844C48.122,29.782 45.304,29.704 44.681,29.673C44.619,29.626 44.323,29.548 44.214,29.548L44.089,29.548C44.027,29.564 43.715,29.751 43.622,29.844L40.958,29.844C40.523,29.981 40.036,30 39.558,30C38.733,30 37.915,29.925 37.099,29.844L34.498,29.844C34.451,29.844 33.937,29.969 33.906,29.969C33.844,30 32.878,30 32.551,30C32.318,30 31.4,30 31.214,29.969C30.861,29.698 30.718,29.388 30.658,29.052C30.529,28.872 30.451,28.66 30.451,28.413C30.451,28.015 30.473,27.614 30.5,27.212C30.473,27.036 30.451,26.888 30.451,26.857L30.451,25.16C30.451,25.129 30.296,24.771 30.296,24.755C30.265,24.506 30.156,22.949 30.156,22.466L30.156,21.408C30.14,21.377 30,21.034 30,21.003L30,20.707C30.031,20.489 30.14,19.68 30.156,19.477C30.167,19.424 30.185,19.381 30.206,19.345C30.188,19.116 30.17,18.934 30.156,18.869L30.156,18.714C30.202,18.122 30.296,15.288 30.311,14.681C30.373,14.619 30.451,14.323 30.451,14.214L30.451,14.089C30.42,14.027 30.233,13.7 30.156,13.622L30.156,10.988C30.015,10.544 30,10.043 30,9.558C30,8.709 30.076,7.868 30.156,7.03L30.156,4.498C30.156,4.435 30.016,3.922 30.016,3.906C30,3.844 30,2.878 30,2.551C30,2.318 30,1.4 30.016,1.213C30.301,0.851 30.622,0.706 30.967,0.647C31.142,0.525 31.349,0.452 31.587,0.452C31.977,0.452 32.368,0.474 32.76,0.503C32.949,0.475 33.111,0.451 33.143,0.451L34.84,0.451C34.852,0.451 34.907,0.429 34.974,0.402L35.111,0.345C35.178,0.317 35.233,0.296 35.245,0.296C35.478,0.264 37.051,0.156 37.534,0.156L38.577,0.156C38.608,0.124 38.966,0 38.982,0L39.277,0C39.495,0.016 40.305,0.124 40.523,0.156L40.523,0.156C40.578,0.169 40.624,0.188 40.66,0.212C40.879,0.193 41.052,0.174 41.115,0.156L41.286,0.156C41.878,0.218 44.696,0.296 45.319,0.327C45.381,0.374 45.677,0.452 45.786,0.452L45.911,0.452C45.973,0.436 46.285,0.249 46.378,0.156L49.042,0.156ZM56.461,2.933C56.152,2.865 55.713,2.847 55.362,2.847L55.02,2.847C54.054,2.847 52.762,2.91 51.921,3.018C51.812,3.018 51.22,3.283 51.174,3.314L50.925,3.314C50.675,3.314 50.551,3.314 50.411,3.018L49.368,3.018C49.274,3.018 48.823,2.847 48.776,2.847C48.667,2.847 48.091,2.878 47.686,2.878C47.468,2.878 47.312,2.878 47.266,2.847C47.172,2.847 46.721,2.614 46.674,2.552L46.503,2.552C46.471,2.552 45.973,2.723 45.911,2.723L45.023,2.723C44.946,2.723 44.463,2.847 44.401,2.847L44.105,2.847C44.058,2.847 43.575,2.723 43.513,2.723L43.388,2.723C43.216,2.723 42.173,2.847 42.002,2.847C41.924,2.847 40.772,2.91 40.367,2.91C40.118,2.91 38.966,2.847 38.717,2.847C38.639,2.832 38.203,2.723 38.125,2.723C38.016,2.723 37.705,2.692 37.378,2.692C37.051,2.692 36.724,2.723 36.615,2.723C36.608,2.713 36.599,2.702 36.589,2.691C36.278,2.682 35.994,2.602 35.713,2.554C35.204,2.658 34.68,2.554 34.202,2.847C34.14,2.941 33.688,3.283 33.626,3.314C33.548,3.348 33.163,3.467 32.925,3.545C32.865,3.853 32.847,4.285 32.847,4.622L32.847,4.98C32.847,5.946 32.894,7.238 33.003,8.079C33.003,8.188 33.283,8.78 33.299,8.826L33.299,9.075C33.299,9.309 33.299,9.449 33.003,9.589L33.003,10.633C33.003,10.71 32.847,11.177 32.847,11.224C32.847,11.333 32.878,11.894 32.878,12.299C32.878,12.517 32.878,12.688 32.847,12.735C32.847,12.812 32.598,13.279 32.552,13.326L32.552,13.482C32.552,13.513 32.707,14.027 32.707,14.089L32.707,14.977C32.707,15.055 32.847,15.537 32.847,15.584L32.847,15.881C32.847,15.943 32.707,16.426 32.707,16.472L32.707,16.612C32.707,16.784 32.847,17.827 32.847,17.982C32.847,18.076 32.894,19.228 32.894,19.633C32.894,19.866 32.847,21.034 32.847,21.268C32.816,21.361 32.707,21.781 32.707,21.859C32.707,21.968 32.692,22.295 32.692,22.622C32.692,22.949 32.707,23.26 32.707,23.369C32.702,23.374 32.697,23.378 32.691,23.383C32.687,23.706 32.605,24.005 32.562,24.31C32.653,24.808 32.562,25.332 32.847,25.798C32.925,25.86 33.283,26.312 33.299,26.359C33.343,26.436 33.467,26.83 33.539,27.067C33.848,27.135 34.287,27.153 34.638,27.153L34.98,27.153C35.946,27.153 37.238,27.09 38.079,26.982C38.188,26.982 38.78,26.717 38.826,26.686L39.075,26.686C39.325,26.686 39.449,26.686 39.589,26.982L40.632,26.982C40.726,26.982 41.177,27.153 41.224,27.153C41.333,27.153 41.909,27.122 42.314,27.122C42.532,27.122 42.688,27.122 42.734,27.153C42.828,27.153 43.279,27.386 43.326,27.448L43.497,27.448C43.529,27.448 44.027,27.277 44.089,27.277L44.977,27.277C45.054,27.277 45.537,27.153 45.599,27.153L45.895,27.153C45.942,27.153 46.425,27.277 46.487,27.277L46.612,27.277C46.784,27.277 47.827,27.153 47.998,27.153C48.076,27.153 49.228,27.09 49.633,27.09C49.882,27.09 51.034,27.153 51.283,27.153C51.361,27.168 51.797,27.277 51.875,27.277C51.984,27.277 52.295,27.308 52.622,27.308C52.949,27.308 53.276,27.277 53.385,27.277C53.392,27.287 53.401,27.298 53.411,27.309C53.722,27.318 54.006,27.398 54.287,27.446C54.796,27.342 55.32,27.446 55.798,27.153C55.86,27.059 56.312,26.717 56.374,26.686C56.452,26.652 56.837,26.533 57.075,26.455C57.135,26.147 57.153,25.715 57.153,25.378L57.153,25.02C57.153,24.054 57.106,22.762 56.997,21.921C56.997,21.812 56.717,21.22 56.701,21.174L56.701,20.925C56.701,20.691 56.701,20.551 56.997,20.411L56.997,19.367C56.997,19.29 57.153,18.823 57.153,18.776C57.153,18.667 57.122,18.106 57.122,17.701C57.122,17.483 57.122,17.312 57.153,17.265C57.153,17.188 57.402,16.721 57.448,16.674L57.448,16.518C57.448,16.487 57.293,15.973 57.293,15.911L57.293,15.023C57.293,14.945 57.153,14.463 57.153,14.416L57.153,14.119C57.153,14.057 57.293,13.574 57.293,13.528L57.293,13.388C57.293,13.216 57.153,12.173 57.153,12.018C57.153,11.924 57.106,10.772 57.106,10.367C57.106,10.134 57.153,8.966 57.153,8.732C57.184,8.639 57.293,8.219 57.293,8.141C57.293,8.032 57.308,7.705 57.308,7.378C57.308,7.051 57.293,6.74 57.293,6.631C57.298,6.626 57.303,6.622 57.309,6.617C57.313,6.294 57.395,5.995 57.438,5.69C57.347,5.192 57.438,4.668 57.153,4.202C57.075,4.14 56.717,3.688 56.701,3.641C56.657,3.564 56.533,3.17 56.461,2.933Z" style="fill-rule:nonzero;"/>
            </g>
            <g transform="matrix(1.18413e-15,-19.3384,11.0007,6.736e-16,75.4948,100.23)">
                <path d="M0.061,-0.324C0.064,-0.31 0.086,-0.297 0.097,-0.297C0.116,-0.297 0.138,-0.302 0.157,-0.303C0.201,-0.307 0.246,-0.308 0.291,-0.308L0.342,-0.302C0.358,-0.302 0.378,-0.307 0.388,-0.319L0.388,-0.332L0.392,-0.383L0.392,-0.392C0.382,-0.405 0.368,-0.414 0.354,-0.414C0.343,-0.414 0.337,-0.403 0.327,-0.403L0.308,-0.405L0.254,-0.399C0.246,-0.399 0.236,-0.401 0.225,-0.404C0.215,-0.406 0.204,-0.409 0.193,-0.409L0.174,-0.405C0.162,-0.405 0.156,-0.414 0.146,-0.414C0.13,-0.414 0.121,-0.404 0.107,-0.403L0.084,-0.403C0.061,-0.4 0.061,-0.362 0.061,-0.344L0.061,-0.324Z" style="fill-rule:nonzero;"/>
            </g>
            <g transform="matrix(1.18413e-15,-19.3384,11.0007,6.736e-16,78.4098,100.23)">
                <path d="M0.061,-0.324C0.064,-0.31 0.086,-0.297 0.097,-0.297C0.116,-0.297 0.138,-0.302 0.157,-0.303C0.201,-0.307 0.246,-0.308 0.291,-0.308L0.342,-0.302C0.358,-0.302 0.378,-0.307 0.388,-0.319L0.388,-0.332L0.392,-0.383L0.392,-0.392C0.382,-0.405 0.368,-0.414 0.354,-0.414C0.343,-0.414 0.337,-0.403 0.327,-0.403L0.308,-0.405L0.254,-0.399C0.246,-0.399 0.236,-0.401 0.225,-0.404C0.215,-0.406 0.204,-0.409 0.193,-0.409L0.174,-0.405C0.162,-0.405 0.156,-0.414 0.146,-0.414C0.13,-0.414 0.121,-0.404 0.107,-0.403L0.084,-0.403C0.061,-0.4 0.061,-0.362 0.061,-0.344L0.061,-0.324Z" style="fill-rule:nonzero;"/>
            </g>
        </g>
        <g transform="matrix(1.5,0,0,1.5,1.06581e-14,-1.33227e-15)">
            <g transform="matrix(0.666667,0,0,0.666667,-1.42109e-14,0)">
                <g>
                    <path d="M79.042,0.156C79.477,0.019 79.964,0 80.442,0C81.267,0 82.085,0.075 82.901,0.156L85.502,0.156C85.549,0.156 86.063,0.031 86.094,0.031C86.156,0 87.122,0 87.449,0C87.682,0 88.6,0 88.786,0.031C89.139,0.302 89.282,0.612 89.342,0.948C89.471,1.128 89.549,1.34 89.549,1.587C89.549,1.985 89.527,2.386 89.5,2.788C89.527,2.964 89.549,3.112 89.549,3.143L89.549,4.84C89.549,4.871 89.704,5.229 89.704,5.245C89.735,5.494 89.844,7.051 89.844,7.534L89.844,8.592C89.86,8.623 90,8.966 90,8.997L90,9.293C89.969,9.511 89.86,10.32 89.844,10.523C89.833,10.576 89.815,10.619 89.794,10.655C89.812,10.884 89.83,11.066 89.844,11.131L89.844,11.286C89.798,11.878 89.704,14.712 89.689,15.319C89.627,15.381 89.549,15.677 89.549,15.786L89.549,15.911C89.58,15.973 89.767,16.3 89.844,16.378L89.844,19.012C89.985,19.456 90,19.957 90,20.442C90,21.291 89.924,22.132 89.844,22.97L89.844,25.502C89.844,25.565 89.984,26.078 89.984,26.094C90,26.156 90,27.122 90,27.449C90,27.682 90,28.6 89.984,28.787C89.699,29.149 89.378,29.294 89.033,29.353C88.858,29.475 88.651,29.548 88.413,29.548C88.023,29.548 87.632,29.526 87.24,29.497C87.051,29.525 86.889,29.549 86.857,29.549L85.16,29.549C85.129,29.549 84.786,29.704 84.755,29.704C84.522,29.736 82.949,29.844 82.466,29.844L81.423,29.844C81.392,29.876 81.034,30 81.018,30L80.723,30C80.505,29.984 79.695,29.876 79.477,29.844L79.477,29.844C79.422,29.831 79.376,29.812 79.34,29.788C79.121,29.807 78.948,29.826 78.885,29.844L78.714,29.844C78.122,29.782 75.304,29.704 74.681,29.673C74.619,29.626 74.323,29.548 74.214,29.548L74.089,29.548C74.027,29.564 73.715,29.751 73.622,29.844L70.958,29.844C70.523,29.981 70.036,30 69.558,30C68.733,30 67.915,29.925 67.099,29.844L64.498,29.844C64.451,29.844 63.937,29.969 63.906,29.969C63.844,30 62.878,30 62.551,30C62.318,30 61.4,30 61.214,29.969C60.861,29.698 60.718,29.388 60.658,29.052C60.529,28.872 60.451,28.66 60.451,28.413C60.451,28.015 60.473,27.614 60.5,27.212C60.473,27.036 60.451,26.888 60.451,26.857L60.451,25.16C60.451,25.129 60.296,24.771 60.296,24.755C60.265,24.506 60.156,22.949 60.156,22.466L60.156,21.408C60.14,21.377 60,21.034 60,21.003L60,20.707C60.031,20.489 60.14,19.68 60.156,19.477C60.167,19.424 60.185,19.381 60.206,19.345C60.188,19.116 60.17,18.934 60.156,18.869L60.156,18.714C60.202,18.122 60.296,15.288 60.311,14.681C60.373,14.619 60.451,14.323 60.451,14.214L60.451,14.089C60.42,14.027 60.233,13.7 60.156,13.622L60.156,10.988C60.015,10.544 60,10.043 60,9.558C60,8.709 60.076,7.868 60.156,7.03L60.156,4.498C60.156,4.435 60.016,3.922 60.016,3.906C60,3.844 60,2.878 60,2.551C60,2.318 60,1.4 60.016,1.213C60.301,0.851 60.622,0.706 60.967,0.647C61.142,0.525 61.349,0.452 61.587,0.452C61.977,0.452 62.368,0.474 62.76,0.503C62.949,0.475 63.111,0.451 63.143,0.451L64.84,0.451C64.871,0.451 65.214,0.296 65.245,0.296C65.478,0.264 67.051,0.156 67.534,0.156L68.577,0.156C68.608,0.124 68.966,0 68.982,0L69.277,0C69.495,0.016 70.305,0.124 70.523,0.156L70.523,0.156C70.578,0.169 70.624,0.188 70.66,0.212C70.879,0.193 71.052,0.174 71.115,0.156L71.286,0.156C71.878,0.218 74.696,0.296 75.319,0.327C75.381,0.374 75.677,0.452 75.786,0.452L75.911,0.452C75.973,0.436 76.285,0.249 76.378,0.156L79.042,0.156ZM86.461,2.933C86.152,2.865 85.713,2.847 85.362,2.847L85.02,2.847C84.054,2.847 82.762,2.91 81.921,3.018C81.812,3.018 81.22,3.283 81.174,3.314L80.925,3.314C80.675,3.314 80.551,3.314 80.411,3.018L79.368,3.018C79.274,3.018 78.823,2.847 78.776,2.847C78.667,2.847 78.091,2.878 77.686,2.878C77.468,2.878 77.312,2.878 77.266,2.847C77.172,2.847 76.721,2.614 76.674,2.552L76.503,2.552C76.471,2.552 75.973,2.723 75.911,2.723L75.023,2.723C74.946,2.723 74.463,2.847 74.401,2.847L74.105,2.847C74.058,2.847 73.575,2.723 73.513,2.723L73.388,2.723C73.216,2.723 72.173,2.847 72.002,2.847C71.924,2.847 70.772,2.91 70.367,2.91C70.118,2.91 68.966,2.847 68.717,2.847C68.639,2.832 68.203,2.723 68.125,2.723C68.016,2.723 67.705,2.692 67.378,2.692C67.051,2.692 66.724,2.723 66.615,2.723C66.608,2.713 66.599,2.702 66.589,2.691C66.278,2.682 65.994,2.602 65.713,2.554C65.204,2.658 64.68,2.554 64.202,2.847C64.14,2.941 63.688,3.283 63.626,3.314C63.548,3.348 63.163,3.467 62.925,3.545C62.865,3.853 62.847,4.285 62.847,4.622L62.847,4.98C62.847,5.946 62.894,7.238 63.003,8.079C63.003,8.188 63.283,8.78 63.299,8.826L63.299,9.075C63.299,9.309 63.299,9.449 63.003,9.589L63.003,10.633C63.003,10.71 62.847,11.177 62.847,11.224C62.847,11.333 62.878,11.894 62.878,12.299C62.878,12.517 62.878,12.688 62.847,12.735C62.847,12.812 62.598,13.279 62.552,13.326L62.552,13.482C62.552,13.513 62.707,14.027 62.707,14.089L62.707,14.977C62.707,15.055 62.847,15.537 62.847,15.584L62.847,15.881C62.847,15.943 62.707,16.426 62.707,16.472L62.707,16.612C62.707,16.784 62.847,17.827 62.847,17.982C62.847,18.076 62.894,19.228 62.894,19.633C62.894,19.866 62.847,21.034 62.847,21.268C62.816,21.361 62.707,21.781 62.707,21.859C62.707,21.968 62.692,22.295 62.692,22.622C62.692,22.949 62.707,23.26 62.707,23.369C62.702,23.374 62.697,23.378 62.691,23.383C62.687,23.706 62.605,24.005 62.562,24.31C62.653,24.808 62.562,25.332 62.847,25.798C62.925,25.86 63.283,26.312 63.299,26.359C63.343,26.436 63.467,26.83 63.539,27.067C63.848,27.135 64.287,27.153 64.638,27.153L64.98,27.153C65.946,27.153 67.238,27.09 68.079,26.982C68.188,26.982 68.78,26.717 68.826,26.686L69.075,26.686C69.325,26.686 69.449,26.686 69.589,26.982L70.632,26.982C70.726,26.982 71.177,27.153 71.224,27.153C71.333,27.153 71.909,27.122 72.314,27.122C72.532,27.122 72.688,27.122 72.734,27.153C72.828,27.153 73.279,27.386 73.326,27.448L73.497,27.448C73.529,27.448 74.027,27.277 74.089,27.277L74.977,27.277C75.054,27.277 75.537,27.153 75.599,27.153L75.895,27.153C75.942,27.153 76.425,27.277 76.487,27.277L76.612,27.277C76.784,27.277 77.827,27.153 77.998,27.153C78.076,27.153 79.228,27.09 79.633,27.09C79.882,27.09 81.034,27.153 81.283,27.153C81.361,27.168 81.797,27.277 81.875,27.277C81.984,27.277 82.295,27.308 82.622,27.308C82.949,27.308 83.276,27.277 83.385,27.277C83.392,27.287 83.401,27.298 83.411,27.309C83.722,27.318 84.006,27.398 84.287,27.446C84.796,27.342 85.32,27.446 85.798,27.153C85.86,27.059 86.312,26.717 86.374,26.686C86.452,26.652 86.837,26.533 87.075,26.455C87.135,26.147 87.153,25.715 87.153,25.378L87.153,25.02C87.153,24.054 87.106,22.762 86.997,21.921C86.997,21.812 86.717,21.22 86.701,21.174L86.701,20.925C86.701,20.691 86.701,20.551 86.997,20.411L86.997,19.367C86.997,19.29 87.153,18.823 87.153,18.776C87.153,18.667 87.122,18.106 87.122,17.701C87.122,17.483 87.122,17.312 87.153,17.265C87.153,17.188 87.402,16.721 87.448,16.674L87.448,16.518C87.448,16.487 87.293,15.973 87.293,15.911L87.293,15.023C87.293,14.945 87.153,14.463 87.153,14.416L87.153,14.119C87.153,14.057 87.293,13.574 87.293,13.528L87.293,13.388C87.293,13.216 87.153,12.173 87.153,12.018C87.153,11.924 87.106,10.772 87.106,10.367C87.106,10.134 87.153,8.966 87.153,8.732C87.184,8.639 87.293,8.219 87.293,8.141C87.293,8.032 87.308,7.705 87.308,7.378C87.308,7.051 87.293,6.74 87.293,6.631C87.298,6.626 87.303,6.622 87.309,6.617C87.313,6.294 87.395,5.995 87.438,5.69C87.347,5.192 87.438,4.668 87.153,4.202C87.075,4.14 86.717,3.688 86.701,3.641C86.657,3.564 86.533,3.17 86.461,2.933Z" style="fill-rule:nonzero;"/>
                </g>
            </g>
        </g>
    </g>
</svg>
