<?xml version="1.0" encoding="UTF-8" standalone="no"?><!DOCTYPE svg PUBLIC "-//W3C//DTD SVG 1.1//EN" "http://www.w3.org/Graphics/SVG/1.1/DTD/svg11.dtd"><svg width="100%" height="100%" viewBox="0 0 30 30" version="1.1" xmlns="http://www.w3.org/2000/svg" xmlns:xlink="http://www.w3.org/1999/xlink" xml:space="preserve" xmlns:serif="http://www.serif.com/" style="fill-rule:evenodd;clip-rule:evenodd;stroke-linejoin:round;stroke-miterlimit:2;"><path d="M19.042,0.182c0.435,-0.136 0.922,-0.156 1.4,-0.156c0.825,0 1.643,0.075 2.459,0.156l2.601,0c0.047,0 0.561,-0.124 0.592,-0.124c0.062,-0.032 1.028,-0.032 1.355,-0.032c0.233,0 1.151,0 1.337,0.032c0.353,0.27 0.496,0.581 0.556,0.917c0.129,0.179 0.207,0.392 0.207,0.638c0,0.399 -0.022,0.8 -0.049,1.202c0.027,0.176 0.049,0.324 0.049,0.355l0,1.697c0,0.031 0.155,0.389 0.155,0.404c0.031,0.249 0.14,1.806 0.14,2.289l0,1.059c0.016,0.031 0.156,0.373 0.156,0.405l0,0.295c-0.031,0.218 -0.14,1.028 -0.156,1.23c-0.011,0.053 -0.029,0.097 -0.05,0.132c0.018,0.229 0.036,0.411 0.05,0.476l0,0.156c-0.046,0.592 -0.14,3.425 -0.155,4.033c-0.062,0.062 -0.14,0.358 -0.14,0.467l0,0.124c0.031,0.063 0.218,0.39 0.295,0.467l0,2.634c0.141,0.445 0.156,0.945 0.156,1.431c0,0.848 -0.076,1.69 -0.156,2.527l0,2.533c0,0.062 0.14,0.576 0.14,0.591c0.016,0.063 0.016,1.028 0.016,1.355c0,0.233 0,1.151 -0.016,1.338c-0.285,0.363 -0.606,0.507 -0.951,0.567c-0.175,0.122 -0.382,0.195 -0.62,0.195c-0.39,0 -0.781,-0.023 -1.173,-0.052c-0.189,0.028 -0.351,0.052 -0.383,0.052l-1.697,0c-0.031,0 -0.374,0.156 -0.405,0.156c-0.233,0.031 -1.806,0.14 -2.289,0.14l-1.043,0c-0.031,0.031 -0.389,0.155 -0.405,0.155l-0.295,0c-0.218,-0.015 -1.028,-0.124 -1.246,-0.155l0,0c-0.055,-0.013 -0.101,-0.032 -0.137,-0.057c-0.219,0.019 -0.392,0.039 -0.455,0.057l-0.171,0c-0.592,-0.062 -3.41,-0.14 -4.033,-0.171c-0.062,-0.047 -0.358,-0.125 -0.467,-0.125l-0.125,0c-0.062,0.016 -0.374,0.202 -0.467,0.296l-2.664,0c-0.435,0.136 -0.922,0.155 -1.4,0.155c-0.825,0 -1.643,-0.074 -2.459,-0.155l-2.601,0c-0.047,0 -0.561,0.124 -0.592,0.124c-0.062,0.031 -1.028,0.031 -1.355,0.031c-0.233,0 -1.151,0 -1.337,-0.031c-0.353,-0.27 -0.496,-0.581 -0.556,-0.917c-0.129,-0.179 -0.207,-0.392 -0.207,-0.638c0,-0.399 0.022,-0.8 0.049,-1.202c-0.027,-0.176 -0.049,-0.324 -0.049,-0.355l0,-1.697c0,-0.031 -0.155,-0.389 -0.155,-0.404c-0.031,-0.25 -0.14,-1.806 -0.14,-2.289l0,-1.059c-0.016,-0.031 -0.156,-0.373 -0.156,-0.405l0,-0.295c0.031,-0.218 0.14,-1.028 0.156,-1.23c0.011,-0.053 0.029,-0.097 0.05,-0.132c-0.018,-0.229 -0.036,-0.411 -0.05,-0.476l0,-0.156c0.046,-0.592 0.14,-3.425 0.155,-4.033c0.062,-0.062 0.14,-0.358 0.14,-0.467l0,-0.124c-0.031,-0.063 -0.218,-0.39 -0.295,-0.467l0,-2.634c-0.141,-0.445 -0.156,-0.945 -0.156,-1.431c0,-0.848 0.076,-1.69 0.156,-2.527l0,-2.533c0,-0.062 -0.14,-0.576 -0.14,-0.591c-0.016,-0.063 -0.016,-1.028 -0.016,-1.355c0,-0.233 0,-1.151 0.016,-1.338c0.285,-0.363 0.606,-0.507 0.951,-0.567c0.175,-0.122 0.382,-0.195 0.62,-0.195c0.39,0 0.781,0.023 1.173,0.052c0.189,-0.028 0.351,-0.052 0.383,-0.052l1.697,0c0.031,0 0.374,-0.156 0.405,-0.156c0.233,-0.031 1.806,-0.14 2.289,-0.14l1.043,0c0.031,-0.031 0.389,-0.156 0.405,-0.156l0.295,0c0.218,0.016 1.028,0.125 1.246,0.156l0,0c0.055,0.013 0.101,0.032 0.137,0.057c0.219,-0.019 0.392,-0.039 0.455,-0.057l0.171,0c0.592,0.062 3.41,0.14 4.033,0.171c0.062,0.047 0.358,0.125 0.467,0.125l0.125,0c0.062,-0.016 0.374,-0.202 0.467,-0.296l2.664,0Zm7.419,2.777c-0.309,-0.068 -0.748,-0.085 -1.099,-0.085l-0.342,0c-0.966,0 -2.258,0.062 -3.099,0.171c-0.109,0 -0.701,0.265 -0.747,0.296l-0.249,0c-0.25,0 -0.374,0 -0.514,-0.296l-1.043,0c-0.094,0 -0.545,-0.171 -0.592,-0.171c-0.109,0 -0.685,0.031 -1.09,0.031c-0.218,0 -0.374,0 -0.42,-0.031c-0.094,0 -0.545,-0.234 -0.592,-0.296l-0.171,0c-0.032,0 -0.53,0.171 -0.592,0.171l-0.888,0c-0.077,0 -0.56,0.125 -0.622,0.125l-0.296,0c-0.047,0 -0.53,-0.125 -0.592,-0.125l-0.125,0c-0.172,0 -1.215,0.125 -1.386,0.125c-0.078,0 -1.23,0.062 -1.635,0.062c-0.249,0 -1.401,-0.062 -1.65,-0.062c-0.078,-0.016 -0.514,-0.125 -0.592,-0.125c-0.109,0 -0.42,-0.031 -0.747,-0.031c-0.327,0 -0.654,0.031 -0.763,0.031c-0.007,-0.01 -0.016,-0.021 -0.026,-0.032c-0.311,-0.009 -0.595,-0.089 -0.876,-0.136c-0.509,0.104 -1.033,0 -1.511,0.293c-0.062,0.093 -0.514,0.436 -0.576,0.467c-0.078,0.033 -0.463,0.153 -0.701,0.231c-0.06,0.307 -0.078,0.74 -0.078,1.077l0,0.358c0,0.965 0.047,2.258 0.156,3.098c0,0.109 0.28,0.701 0.296,0.748l0,0.249c0,0.234 0,0.374 -0.296,0.514l0,1.043c0,0.078 -0.156,0.545 -0.156,0.592c0,0.109 0.031,0.669 0.031,1.074c0,0.218 0,0.389 -0.031,0.436c0,0.078 -0.249,0.545 -0.295,0.592l0,0.155c0,0.032 0.155,0.545 0.155,0.608l0,0.887c0,0.078 0.14,0.561 0.14,0.607l0,0.297c0,0.062 -0.14,0.545 -0.14,0.592l0,0.14c0,0.171 0.14,1.214 0.14,1.37c0,0.093 0.047,1.246 0.047,1.65c0,0.234 -0.047,1.402 -0.047,1.635c-0.031,0.094 -0.14,0.514 -0.14,0.592c0,0.109 -0.015,0.436 -0.015,0.763c0,0.327 0.015,0.638 0.015,0.747c-0.005,0.004 -0.01,0.009 -0.016,0.014c-0.004,0.322 -0.086,0.622 -0.129,0.927c0.091,0.498 0,1.022 0.285,1.488c0.078,0.062 0.436,0.513 0.452,0.56c0.044,0.078 0.168,0.472 0.24,0.709c0.309,0.068 0.748,0.085 1.099,0.085l0.342,0c0.966,0 2.258,-0.062 3.099,-0.171c0.109,0 0.701,-0.265 0.747,-0.296l0.249,0c0.25,0 0.374,0 0.514,0.296l1.043,0c0.094,0 0.545,0.171 0.592,0.171c0.109,0 0.685,-0.031 1.09,-0.031c0.218,0 0.374,0 0.42,0.031c0.094,0 0.545,0.234 0.592,0.296l0.171,0c0.032,0 0.53,-0.171 0.592,-0.171l0.888,0c0.077,0 0.56,-0.125 0.622,-0.125l0.296,0c0.047,0 0.53,0.125 0.592,0.125l0.125,0c0.172,0 1.215,-0.125 1.386,-0.125c0.078,0 1.23,-0.062 1.635,-0.062c0.249,0 1.401,0.062 1.65,0.062c0.078,0.016 0.514,0.125 0.592,0.125c0.109,0 0.42,0.031 0.747,0.031c0.327,0 0.654,-0.031 0.763,-0.031c0.007,0.01 0.016,0.021 0.026,0.032c0.311,0.009 0.595,0.089 0.876,0.136c0.509,-0.104 1.033,0 1.511,-0.293c0.062,-0.093 0.514,-0.436 0.576,-0.467c0.078,-0.033 0.463,-0.153 0.701,-0.231c0.06,-0.307 0.078,-0.74 0.078,-1.077l0,-0.358c0,-0.965 -0.047,-2.258 -0.156,-3.098c0,-0.109 -0.28,-0.701 -0.296,-0.748l0,-0.249c0,-0.234 0,-0.374 0.296,-0.514l0,-1.043c0,-0.078 0.156,-0.545 0.156,-0.592c0,-0.109 -0.031,-0.669 -0.031,-1.074c0,-0.218 0,-0.389 0.031,-0.436c0,-0.078 0.249,-0.545 0.295,-0.592l0,-0.155c0,-0.032 -0.155,-0.545 -0.155,-0.608l0,-0.887c0,-0.078 -0.14,-0.561 -0.14,-0.607l0,-0.297c0,-0.062 0.14,-0.545 0.14,-0.592l0,-0.14c0,-0.171 -0.14,-1.214 -0.14,-1.37c0,-0.093 -0.047,-1.246 -0.047,-1.65c0,-0.234 0.047,-1.402 0.047,-1.635c0.031,-0.094 0.14,-0.514 0.14,-0.592c0,-0.109 0.015,-0.436 0.015,-0.763c0,-0.327 -0.015,-0.638 -0.015,-0.747c0.005,-0.004 0.01,-0.009 0.016,-0.014c0.004,-0.323 0.086,-0.622 0.129,-0.927c-0.091,-0.498 0,-1.022 -0.285,-1.488c-0.078,-0.062 -0.436,-0.513 -0.452,-0.56c-0.044,-0.078 -0.168,-0.472 -0.24,-0.709Z" style="fill-rule:nonzero;"/><path d="M19.042,-29.844c0.435,-0.137 0.922,-0.156 1.4,-0.156c0.825,0 1.643,0.075 2.459,0.156l2.601,0c0.047,0 0.561,-0.125 0.592,-0.125c0.062,-0.031 1.028,-0.031 1.355,-0.031c0.233,0 1.151,0 1.337,0.031c0.353,0.271 0.496,0.581 0.556,0.917c0.129,0.18 0.207,0.392 0.207,0.639c0,0.398 -0.022,0.799 -0.049,1.201c0.027,0.176 0.049,0.324 0.049,0.355l0,1.697c0,0.031 0.155,0.389 0.155,0.405c0.031,0.249 0.14,1.806 0.14,2.289l0,1.058c0.016,0.031 0.156,0.374 0.156,0.405l0,0.296c-0.031,0.218 -0.14,1.027 -0.156,1.23c-0.011,0.053 -0.029,0.096 -0.05,0.132c0.018,0.229 0.036,0.411 0.05,0.476l0,0.155c-0.046,0.592 -0.14,3.426 -0.155,4.033c-0.062,0.062 -0.14,0.358 -0.14,0.467l0,0.125c0.031,0.062 0.218,0.389 0.295,0.467l0,2.634c0.141,0.444 0.156,0.945 0.156,1.43c0,0.849 -0.076,1.69 -0.156,2.528l0,2.532c0,0.063 0.14,0.576 0.14,0.592c0.016,0.062 0.016,1.028 0.016,1.355c0,0.233 0,1.151 -0.016,1.338c-0.285,0.362 -0.606,0.507 -0.951,0.566c-0.175,0.122 -0.382,0.195 -0.62,0.195c-0.39,0 -0.781,-0.022 -1.173,-0.051c-0.189,0.028 -0.351,0.052 -0.383,0.052l-1.697,0c-0.031,0 -0.374,0.155 -0.405,0.155c-0.233,0.032 -1.806,0.14 -2.289,0.14l-1.043,0c-0.031,0.032 -0.389,0.156 -0.405,0.156l-0.295,0c-0.218,-0.016 -1.028,-0.124 -1.246,-0.156l0,0c-0.055,-0.013 -0.101,-0.032 -0.137,-0.056c-0.219,0.019 -0.392,0.038 -0.455,0.056l-0.171,0c-0.592,-0.062 -3.41,-0.14 -4.033,-0.171c-0.062,-0.047 -0.358,-0.125 -0.467,-0.125l-0.125,0c-0.062,0.016 -0.374,0.203 -0.467,0.296l-2.664,0c-0.435,0.137 -0.922,0.156 -1.4,0.156c-0.825,0 -1.643,-0.075 -2.459,-0.156l-2.601,0c-0.047,0 -0.561,0.125 -0.592,0.125c-0.062,0.031 -1.028,0.031 -1.355,0.031c-0.233,0 -1.151,0 -1.337,-0.031c-0.353,-0.271 -0.496,-0.581 -0.556,-0.917c-0.129,-0.18 -0.207,-0.392 -0.207,-0.639c0,-0.398 0.022,-0.799 0.049,-1.201c-0.027,-0.176 -0.049,-0.324 -0.049,-0.355l0,-1.697c0,-0.031 -0.155,-0.389 -0.155,-0.405c-0.031,-0.249 -0.14,-1.806 -0.14,-2.289l0,-1.058c-0.016,-0.031 -0.156,-0.374 -0.156,-0.405l0,-0.296c0.031,-0.218 0.14,-1.027 0.156,-1.23c0.011,-0.053 0.029,-0.096 0.05,-0.132c-0.018,-0.229 -0.036,-0.411 -0.05,-0.476l0,-0.155c0.046,-0.592 0.14,-3.426 0.155,-4.033c0.062,-0.062 0.14,-0.358 0.14,-0.467l0,-0.125c-0.031,-0.062 -0.218,-0.389 -0.295,-0.467l0,-2.634c-0.141,-0.444 -0.156,-0.945 -0.156,-1.43c0,-0.849 0.076,-1.69 0.156,-2.528l0,-2.532c0,-0.063 -0.14,-0.576 -0.14,-0.592c-0.016,-0.062 -0.016,-1.028 -0.016,-1.355c0,-0.233 0,-1.151 0.016,-1.338c0.285,-0.362 0.606,-0.507 0.951,-0.566c0.175,-0.122 0.382,-0.195 0.62,-0.195c0.39,0 0.781,0.022 1.173,0.051c0.189,-0.028 0.351,-0.052 0.383,-0.052l1.697,0c0.031,0 0.374,-0.155 0.405,-0.155c0.233,-0.032 1.806,-0.14 2.289,-0.14l1.043,0c0.031,-0.032 0.389,-0.156 0.405,-0.156l0.295,0c0.218,0.016 1.028,0.124 1.246,0.156l0,0c0.055,0.013 0.101,0.032 0.137,0.056c0.219,-0.019 0.392,-0.038 0.455,-0.056l0.171,0c0.592,0.062 3.41,0.14 4.033,0.171c0.062,0.047 0.358,0.125 0.467,0.125l0.125,0c0.062,-0.016 0.374,-0.203 0.467,-0.296l2.664,0Zm-8.941,6.035c0.039,-0.03 0.077,-0.056 0.114,-0.08c0.056,0.042 0.114,0.082 0.176,0.119l0.432,0.013c0.094,0.07 0.165,0.172 0.219,0.29c0.389,0.151 0.793,0.286 1.119,0.503c0.451,0.27 0.405,0.598 1.043,0.811c0.374,0.128 1.027,1.366 1.588,1.438c0,0 0.14,0.042 0.14,0.071c1.012,0.669 0.997,0.839 1.215,0.911c0,0 0.233,0.028 0.529,0.028c0.265,0.185 0.654,0.74 0.996,0.954c1.293,0.569 1.246,0.74 1.402,0.967c0.373,0.313 0.622,0.271 1.105,0.754c0.156,0 0.514,0.669 0.669,0.74c0.654,0.399 2.102,0.812 2.102,1.68c0,0.74 -1.183,1.451 -1.821,1.594c-0.327,0.071 -0.841,0.939 -1.028,0.939c-0.358,0.47 -0.545,0.441 -0.965,0.64c-0.171,0.171 -0.498,1.011 -0.95,1.011c-0.031,0 -0.187,0.042 -0.187,0.042c-0.358,0.086 -0.623,0.2 -0.887,0.442l-0.436,0.526l-0.529,0c-0.109,0 -0.95,0.84 -1.511,0.982c-0.591,0.342 -0.872,1.053 -1.354,1.324l-0.343,0.099l-0.778,0.939c-0.28,0.129 -0.701,0.1 -0.919,0.271c-0.327,0.228 -0.654,0.512 -0.996,0.512c-0.919,0 -1.588,-1.024 -1.588,-1.565c0,-0.314 0.16,-0.562 0.394,-0.769c-0.003,-0.015 -0.005,-0.031 -0.007,-0.047l0,-0.622c-0.011,-0.37 -0.25,-0.647 -0.25,-1.057c0,-0.251 0.193,-0.436 0.193,-0.753l-0.114,-0.529l0.251,-1.666c0,-0.449 -0.137,-0.912 -0.137,-1.44l0.057,-0.529l-0.251,-0.502c0,-0.106 0.194,-0.476 0.251,-0.45c-0.08,-0.158 -0.364,-1.745 -0.364,-1.969c0,-0.304 0.136,-0.436 0.136,-0.754c0,-0.238 -0.08,-0.37 -0.08,-0.528c0,-0.595 0.251,-1.137 0.251,-1.666c0,-0.502 -0.194,-0.965 -0.193,-1.467l0.102,-0.502c0,-0.304 -0.239,-0.41 -0.239,-0.727c0,-0.423 0.171,-0.807 0.456,-1.058l0.296,0c0.267,0 0.467,0.043 0.691,0.08Zm1.033,2.396l-0.015,0.247c0,1.216 0.046,2.445 0.08,3.661c0.034,0.503 0.194,1.098 0.194,1.613l-0.194,0.516l0.194,0.7l-0.114,1.348c0,1.283 0.022,2.525 0.102,3.715c0.003,0.126 0.013,0.256 0.027,0.39c0.434,-0.297 0.958,-0.622 1.391,-0.904c0.436,0 1.355,-1.039 1.557,-1.31c0.576,-0.498 0.592,0.043 0.996,-0.669c0.094,-0.142 1.355,-0.839 1.386,-0.839c0.109,-0.014 0.296,-0.185 0.312,-0.214c0.794,-0.526 1.463,-1.067 2.35,-1.579c0.218,0 0.545,-0.313 0.545,-0.641c-0.98,-0.768 -1.307,-0.782 -2.382,-1.48c-0.311,-0.199 -0.42,-0.484 -0.856,-0.64c-0.031,0 -0.265,-0.043 -0.265,-0.043c-0.171,-0.171 -0.186,-0.512 -0.436,-0.512c-0.513,0 -0.965,-0.74 -1.214,-0.939l-1.043,-0.712c-0.109,0 -0.701,-0.498 -0.81,-0.569c-0.304,-0.159 -1.282,-1.02 -1.805,-1.139Z"/><path d="M49.042,-29.978c0.435,-0.137 0.922,-0.156 1.4,-0.156c0.825,0 1.643,0.074 2.459,0.156l2.601,0c0.047,0 0.561,-0.125 0.592,-0.125c0.062,-0.031 1.028,-0.031 1.355,-0.031c0.233,0 1.151,0 1.337,0.031c0.353,0.271 0.496,0.581 0.556,0.917c0.129,0.18 0.207,0.392 0.207,0.639c0,0.398 -0.022,0.799 -0.049,1.201c0.027,0.176 0.049,0.324 0.049,0.355l0,1.697c0,0.031 0.155,0.389 0.155,0.405c0.031,0.249 0.14,1.806 0.14,2.288l0,1.059c0.016,0.031 0.156,0.374 0.156,0.405l0,0.296c-0.031,0.218 -0.14,1.027 -0.156,1.23c-0.011,0.053 -0.029,0.096 -0.05,0.132c0.018,0.229 0.036,0.411 0.05,0.476l0,0.155c-0.046,0.592 -0.14,3.426 -0.155,4.033c-0.062,0.062 -0.14,0.358 -0.14,0.467l0,0.125c0.031,0.062 0.218,0.389 0.295,0.467l0,2.634c0.141,0.444 0.156,0.945 0.156,1.43c0,0.849 -0.076,1.69 -0.156,2.528l0,2.532c0,0.062 0.14,0.576 0.14,0.592c0.016,0.062 0.016,1.027 0.016,1.354c0,0.234 0,1.152 -0.016,1.338c-0.285,0.363 -0.606,0.508 -0.951,0.567c-0.175,0.122 -0.382,0.195 -0.62,0.195c-0.39,0 -0.781,-0.022 -1.173,-0.051c-0.189,0.028 -0.351,0.052 -0.383,0.052l-1.697,0c-0.031,0 -0.374,0.155 -0.405,0.155c-0.233,0.031 -1.806,0.14 -2.289,0.14l-1.043,0c-0.031,0.031 -0.389,0.156 -0.405,0.156l-0.295,0c-0.218,-0.016 -1.028,-0.125 -1.246,-0.156l0,0c-0.055,-0.013 -0.101,-0.032 -0.137,-0.056c-0.219,0.019 -0.392,0.038 -0.455,0.056l-0.171,0c-0.592,-0.062 -3.41,-0.14 -4.033,-0.171c-0.062,-0.047 -0.358,-0.125 -0.467,-0.125l-0.125,0c-0.062,0.016 -0.374,0.203 -0.467,0.296l-2.664,0c-0.435,0.137 -0.922,0.156 -1.4,0.156c-0.825,0 -1.643,-0.075 -2.459,-0.156l-2.601,0c-0.047,0 -0.561,0.125 -0.592,0.125c-0.062,0.031 -1.028,0.031 -1.355,0.031c-0.233,0 -1.151,0 -1.337,-0.031c-0.353,-0.271 -0.496,-0.581 -0.556,-0.917c-0.129,-0.18 -0.207,-0.392 -0.207,-0.639c0,-0.398 0.022,-0.799 0.049,-1.202c-0.027,-0.176 -0.049,-0.323 -0.049,-0.354l0,-1.697c0,-0.031 -0.155,-0.389 -0.155,-0.405c-0.031,-0.249 -0.14,-1.806 -0.14,-2.289l0,-1.058c-0.016,-0.032 -0.156,-0.374 -0.156,-0.405l0,-0.296c0.031,-0.218 0.14,-1.028 0.156,-1.23c0.011,-0.053 0.029,-0.096 0.05,-0.132c-0.018,-0.229 -0.036,-0.411 -0.05,-0.476l0,-0.156c0.046,-0.591 0.14,-3.425 0.155,-4.032c0.062,-0.063 0.14,-0.358 0.14,-0.467l0,-0.125c-0.031,-0.062 -0.218,-0.389 -0.295,-0.467l0,-2.634c-0.141,-0.444 -0.156,-0.945 -0.156,-1.431c0,-0.848 0.076,-1.689 0.156,-2.527l0,-2.532c0,-0.063 -0.14,-0.576 -0.14,-0.592c-0.016,-0.062 -0.016,-1.028 -0.016,-1.355c0,-0.233 0,-1.151 0.016,-1.338c0.285,-0.363 0.606,-0.507 0.951,-0.566c0.175,-0.123 0.382,-0.196 0.62,-0.196c0.39,0 0.781,0.023 1.173,0.052c0.189,-0.028 0.351,-0.052 0.383,-0.052l1.697,0c0.031,0 0.374,-0.155 0.405,-0.155c0.233,-0.032 1.806,-0.141 2.289,-0.141l1.043,0c0.031,-0.031 0.389,-0.155 0.405,-0.155l0.295,0c0.218,0.015 1.028,0.124 1.246,0.155l0,0.001c0.055,0.013 0.101,0.032 0.137,0.056c0.219,-0.019 0.392,-0.038 0.455,-0.056l0.171,0c0.592,0.062 3.41,0.14 4.033,0.171c0.062,0.047 0.358,0.124 0.467,0.124l0.125,0c0.062,-0.015 0.374,-0.202 0.467,-0.295l2.664,0Zm-6.98,23.234c0.399,-0.175 0.77,-1.304 0.77,-1.856c0,-1.004 -0.143,-2.133 -0.171,-3.086c-0.1,-2.258 -0.129,-4.567 -0.129,-6.9l0.157,-2.61c0,-0.853 -0.128,-1.856 -0.499,-2.383l-0.371,0l-1.484,-0.176l-0.271,0c-0.385,0.477 -0.642,1.23 -0.642,1.957c0,0.552 0.329,0.828 0.329,1.355l-0.072,0.979l0.171,2.785c0,0.426 -0.057,0.903 -0.128,1.48c-0.071,0.527 -0.143,1.079 -0.143,1.656l0.1,0.979c0,0.627 -0.257,0.928 -0.257,1.455c0,0.778 0.3,1.279 0.329,1.982l0,1.179c0.071,1.204 1.184,1.204 1.726,1.204l0.585,0Zm7.745,0c0.4,-0.175 0.771,-1.304 0.771,-1.856c0,-1.004 -0.143,-2.133 -0.172,-3.086c-0.099,-2.258 -0.128,-4.567 -0.128,-6.9l0.157,-2.61c0,-0.853 -0.128,-1.856 -0.499,-2.383l-0.371,0l-1.484,-0.176l-0.271,0c-0.385,0.477 -0.642,1.23 -0.642,1.957c0,0.552 0.328,0.828 0.328,1.355l-0.071,0.979l0.171,2.785c0,0.426 -0.057,0.903 -0.128,1.48c-0.072,0.527 -0.143,1.079 -0.143,1.656l0.1,0.979c0,0.627 -0.257,0.928 -0.257,1.455c0,0.778 0.3,1.279 0.328,1.982l0,1.179c0.072,1.204 1.184,1.204 1.726,1.204l0.585,0Z"/><g><path d="M49.042,0.182c0.435,-0.136 0.922,-0.156 1.4,-0.156c0.825,0 1.643,0.075 2.459,0.156l2.601,0c0.047,0 0.561,-0.124 0.592,-0.124c0.062,-0.032 1.028,-0.032 1.355,-0.032c0.233,0 1.151,0 1.337,0.032c0.353,0.27 0.496,0.581 0.556,0.917c0.129,0.179 0.207,0.392 0.207,0.638c0,0.399 -0.022,0.8 -0.049,1.202c0.027,0.176 0.049,0.324 0.049,0.355l0,1.697c0,0.031 0.155,0.389 0.155,0.404c0.031,0.249 0.14,1.806 0.14,2.289l0,1.059c0.016,0.031 0.156,0.373 0.156,0.405l0,0.295c-0.031,0.218 -0.14,1.028 -0.156,1.23c-0.011,0.053 -0.029,0.097 -0.05,0.132c0.018,0.229 0.036,0.411 0.05,0.476l0,0.156c-0.046,0.592 -0.14,3.425 -0.155,4.033c-0.062,0.062 -0.14,0.358 -0.14,0.467l0,0.124c0.031,0.063 0.218,0.39 0.295,0.467l0,2.634c0.141,0.445 0.156,0.945 0.156,1.431c0,0.848 -0.076,1.69 -0.156,2.527l0,2.533c0,0.062 0.14,0.576 0.14,0.591c0.016,0.063 0.016,1.028 0.016,1.355c0,0.233 0,1.151 -0.016,1.338c-0.285,0.363 -0.606,0.507 -0.951,0.567c-0.175,0.122 -0.382,0.195 -0.62,0.195c-0.39,0 -0.781,-0.023 -1.173,-0.052c-0.189,0.028 -0.351,0.052 -0.383,0.052l-1.697,0c-0.031,0 -0.374,0.156 -0.405,0.156c-0.233,0.031 -1.806,0.14 -2.289,0.14l-1.043,0c-0.031,0.031 -0.389,0.155 -0.405,0.155l-0.295,0c-0.218,-0.015 -1.028,-0.124 -1.246,-0.155l0,0c-0.055,-0.013 -0.101,-0.032 -0.137,-0.057c-0.219,0.019 -0.392,0.039 -0.455,0.057l-0.171,0c-0.592,-0.062 -3.41,-0.14 -4.033,-0.171c-0.062,-0.047 -0.358,-0.125 -0.467,-0.125l-0.125,0c-0.062,0.016 -0.374,0.202 -0.467,0.296l-2.664,0c-0.435,0.136 -0.922,0.155 -1.4,0.155c-0.825,0 -1.643,-0.074 -2.459,-0.155l-2.601,0c-0.047,0 -0.561,0.124 -0.592,0.124c-0.062,0.031 -1.028,0.031 -1.355,0.031c-0.233,0 -1.151,0 -1.337,-0.031c-0.353,-0.27 -0.496,-0.581 -0.556,-0.917c-0.129,-0.179 -0.207,-0.392 -0.207,-0.638c0,-0.399 0.022,-0.8 0.049,-1.202c-0.027,-0.176 -0.049,-0.324 -0.049,-0.355l0,-1.697c0,-0.031 -0.155,-0.389 -0.155,-0.404c-0.031,-0.25 -0.14,-1.806 -0.14,-2.289l0,-1.059c-0.016,-0.031 -0.156,-0.373 -0.156,-0.405l0,-0.295c0.031,-0.218 0.14,-1.028 0.156,-1.23c0.011,-0.053 0.029,-0.097 0.05,-0.132c-0.018,-0.229 -0.036,-0.411 -0.05,-0.476l0,-0.156c0.046,-0.592 0.14,-3.425 0.155,-4.033c0.062,-0.062 0.14,-0.358 0.14,-0.467l0,-0.124c-0.031,-0.063 -0.218,-0.39 -0.295,-0.467l0,-2.634c-0.141,-0.445 -0.156,-0.945 -0.156,-1.431c0,-0.848 0.076,-1.69 0.156,-2.527l0,-2.533c0,-0.062 -0.14,-0.576 -0.14,-0.591c-0.016,-0.063 -0.016,-1.028 -0.016,-1.355c0,-0.233 0,-1.151 0.016,-1.338c0.285,-0.363 0.606,-0.507 0.951,-0.567c0.175,-0.122 0.382,-0.195 0.62,-0.195c0.39,0 0.781,0.023 1.173,0.052c0.189,-0.028 0.351,-0.052 0.383,-0.052l1.697,0c0.012,0 0.067,-0.022 0.134,-0.05l0.137,-0.057c0.067,-0.027 0.122,-0.049 0.134,-0.049c0.233,-0.031 1.806,-0.14 2.289,-0.14l1.043,0c0.031,-0.031 0.389,-0.156 0.405,-0.156l0.295,0c0.218,0.016 1.028,0.125 1.246,0.156l0,0c0.055,0.013 0.101,0.032 0.137,0.057c0.219,-0.019 0.392,-0.039 0.455,-0.057l0.171,0c0.592,0.062 3.41,0.14 4.033,0.171c0.062,0.047 0.358,0.125 0.467,0.125l0.125,0c0.062,-0.016 0.374,-0.202 0.467,-0.296l2.664,0Zm7.419,2.777c-0.309,-0.068 -0.748,-0.085 -1.099,-0.085l-0.342,0c-0.966,0 -2.258,0.062 -3.099,0.171c-0.109,0 -0.701,0.265 -0.747,0.296l-0.249,0c-0.25,0 -0.374,0 -0.514,-0.296l-1.043,0c-0.094,0 -0.545,-0.171 -0.592,-0.171c-0.109,0 -0.685,0.031 -1.09,0.031c-0.218,0 -0.374,0 -0.42,-0.031c-0.094,0 -0.545,-0.234 -0.592,-0.296l-0.171,0c-0.032,0 -0.53,0.171 -0.592,0.171l-0.888,0c-0.077,0 -0.56,0.125 -0.622,0.125l-0.296,0c-0.047,0 -0.53,-0.125 -0.592,-0.125l-0.125,0c-0.172,0 -1.215,0.125 -1.386,0.125c-0.078,0 -1.23,0.062 -1.635,0.062c-0.249,0 -1.401,-0.062 -1.65,-0.062c-0.078,-0.016 -0.514,-0.125 -0.592,-0.125c-0.109,0 -0.42,-0.031 -0.747,-0.031c-0.327,0 -0.654,0.031 -0.763,0.031c-0.007,-0.01 -0.016,-0.021 -0.026,-0.032c-0.311,-0.009 -0.595,-0.089 -0.876,-0.136c-0.509,0.104 -1.033,0 -1.511,0.293c-0.062,0.093 -0.514,0.436 -0.576,0.467c-0.078,0.033 -0.463,0.153 -0.701,0.231c-0.06,0.307 -0.078,0.74 -0.078,1.077l0,0.358c0,0.965 0.047,2.258 0.156,3.098c0,0.109 0.28,0.701 0.296,0.748l0,0.249c0,0.234 0,0.374 -0.296,0.514l0,1.043c0,0.078 -0.156,0.545 -0.156,0.592c0,0.109 0.031,0.669 0.031,1.074c0,0.218 0,0.389 -0.031,0.436c0,0.078 -0.249,0.545 -0.295,0.592l0,0.155c0,0.032 0.155,0.545 0.155,0.608l0,0.887c0,0.078 0.14,0.561 0.14,0.607l0,0.297c0,0.062 -0.14,0.545 -0.14,0.592l0,0.14c0,0.171 0.14,1.214 0.14,1.37c0,0.093 0.047,1.246 0.047,1.65c0,0.234 -0.047,1.402 -0.047,1.635c-0.031,0.094 -0.14,0.514 -0.14,0.592c0,0.109 -0.015,0.436 -0.015,0.763c0,0.327 0.015,0.638 0.015,0.747c-0.005,0.004 -0.01,0.009 -0.016,0.014c-0.004,0.322 -0.086,0.622 -0.129,0.927c0.091,0.498 0,1.022 0.285,1.488c0.078,0.062 0.436,0.513 0.452,0.56c0.044,0.078 0.168,0.472 0.24,0.709c0.309,0.068 0.748,0.085 1.099,0.085l0.342,0c0.966,0 2.258,-0.062 3.099,-0.171c0.109,0 0.701,-0.265 0.747,-0.296l0.249,0c0.25,0 0.374,0 0.514,0.296l1.043,0c0.094,0 0.545,0.171 0.592,0.171c0.109,0 0.685,-0.031 1.09,-0.031c0.218,0 0.374,0 0.42,0.031c0.094,0 0.545,0.234 0.592,0.296l0.171,0c0.032,0 0.53,-0.171 0.592,-0.171l0.888,0c0.077,0 0.56,-0.125 0.622,-0.125l0.296,0c0.047,0 0.53,0.125 0.592,0.125l0.125,0c0.172,0 1.215,-0.125 1.386,-0.125c0.078,0 1.23,-0.062 1.635,-0.062c0.249,0 1.401,0.062 1.65,0.062c0.078,0.016 0.514,0.125 0.592,0.125c0.109,0 0.42,0.031 0.747,0.031c0.327,0 0.654,-0.031 0.763,-0.031c0.007,0.01 0.016,0.021 0.026,0.032c0.311,0.009 0.595,0.089 0.876,0.136c0.509,-0.104 1.033,0 1.511,-0.293c0.062,-0.093 0.514,-0.436 0.576,-0.467c0.078,-0.033 0.463,-0.153 0.701,-0.231c0.06,-0.307 0.078,-0.74 0.078,-1.077l0,-0.358c0,-0.965 -0.047,-2.258 -0.156,-3.098c0,-0.109 -0.28,-0.701 -0.296,-0.748l0,-0.249c0,-0.234 0,-0.374 0.296,-0.514l0,-1.043c0,-0.078 0.156,-0.545 0.156,-0.592c0,-0.109 -0.031,-0.669 -0.031,-1.074c0,-0.218 0,-0.389 0.031,-0.436c0,-0.078 0.249,-0.545 0.295,-0.592l0,-0.155c0,-0.032 -0.155,-0.545 -0.155,-0.608l0,-0.887c0,-0.078 -0.14,-0.561 -0.14,-0.607l0,-0.297c0,-0.062 0.14,-0.545 0.14,-0.592l0,-0.14c0,-0.171 -0.14,-1.214 -0.14,-1.37c0,-0.093 -0.047,-1.246 -0.047,-1.65c0,-0.234 0.047,-1.402 0.047,-1.635c0.031,-0.094 0.14,-0.514 0.14,-0.592c0,-0.109 0.015,-0.436 0.015,-0.763c0,-0.327 -0.015,-0.638 -0.015,-0.747c0.005,-0.004 0.01,-0.009 0.016,-0.014c0.004,-0.323 0.086,-0.622 0.129,-0.927c-0.091,-0.498 0,-1.022 -0.285,-1.488c-0.078,-0.062 -0.436,-0.513 -0.452,-0.56c-0.044,-0.078 -0.168,-0.472 -0.24,-0.709Z" style="fill-rule:nonzero;"/></g><path d="M10.101,6.218c0.039,-0.03 0.077,-0.057 0.114,-0.08c0.056,0.042 0.114,0.081 0.176,0.118l0.432,0.014c0.094,0.07 0.165,0.171 0.219,0.289c0.389,0.151 0.793,0.287 1.119,0.504c0.451,0.27 0.405,0.597 1.043,0.811c0.374,0.128 1.027,1.366 1.588,1.437c0,0 0.14,0.043 0.14,0.071c1.012,0.669 0.997,0.84 1.215,0.911c0,0 0.233,0.029 0.529,0.029c0.265,0.185 0.654,0.74 0.996,0.953c1.293,0.569 1.246,0.74 1.402,0.968c0.373,0.313 0.622,0.27 1.105,0.754c0.156,0 0.514,0.669 0.669,0.74c0.654,0.398 2.102,0.811 2.102,1.679c0,0.74 -1.183,1.452 -1.821,1.594c-0.327,0.071 -0.841,0.939 -1.028,0.939c-0.358,0.47 -0.545,0.442 -0.965,0.641c-0.171,0.171 -0.498,1.01 -0.95,1.01c-0.031,0 -0.187,0.043 -0.187,0.043c-0.358,0.085 -0.623,0.199 -0.887,0.441l-0.436,0.527l-0.529,0c-0.109,0 -0.95,0.839 -1.511,0.982c-0.591,0.341 -0.872,1.053 -1.354,1.323l-0.343,0.1l-0.778,0.939c-0.28,0.128 -0.701,0.1 -0.919,0.27c-0.327,0.228 -0.654,0.513 -0.996,0.513c-0.919,0 -1.588,-1.025 -1.588,-1.566c0,-0.313 0.16,-0.561 0.394,-0.768c-0.003,-0.016 -0.005,-0.032 -0.007,-0.048l0,-0.621c-0.011,-0.37 -0.25,-0.648 -0.25,-1.057c0,-0.252 0.193,-0.437 0.193,-0.754l-0.114,-0.529l0.251,-1.665c0,-0.45 -0.137,-0.912 -0.137,-1.441l0.057,-0.529l-0.251,-0.502c0,-0.106 0.194,-0.476 0.251,-0.449c-0.08,-0.159 -0.364,-1.745 -0.364,-1.97c0,-0.304 0.136,-0.436 0.136,-0.753c0,-0.238 -0.08,-0.37 -0.08,-0.529c0,-0.595 0.251,-1.137 0.251,-1.665c0,-0.503 -0.194,-0.965 -0.193,-1.468l0.102,-0.502c0,-0.304 -0.239,-0.41 -0.239,-0.727c0,-0.423 0.171,-0.806 0.456,-1.057l0.296,0c0.267,0 0.467,0.043 0.691,0.08Z" style="fill-rule:nonzero;"/></svg>